<svg xmlns="http://www.w3.org/2000/svg" viewBox="0 0 333.3 512"><defs/><defs><style>.cls-3{fill:#fff}.cls-4{fill:#11e800}</style></defs><g id="Capa_2" data-name="Capa 2"><g id="Layer_1" data-name="Layer 1"><circle cx="166.7" cy="166.7" r="151.7" fill="#6b00d1"/><path fill="#4f00aa" d="M333.3 166.7C333.3 74.7 258.5 0 166.6 0S0 74.8 0 166.7c0 76 51.1 140.2 120.7 160.2V385H67.2l99.4 127L266 385h-53.4v-58.1a167 167 0 00120.7-160.2zm-303.3 0a136.8 136.8 0 11136.7 136.6A136.8 136.8 0 0130 166.7z"/><path d="M164.4 181.3l-1.3 20.6L68.8 227l1.4-20.5 34.5-9.3 3.5-49.3-34.5 9.3 1.5-20.7 59.7-16-5 70z" class="cls-3"/><path d="M260.6 112.5l-2.5 38.4q-1 13.2-8.4 21.5t-23 12.4l-36 9.7q-15.5 4.1-22-.4t-5.5-17.8l2.6-38.4q.9-13.2 8.3-21.5t23-12.4l36-9.7q15.6-4.1 22 .4t5.5 17.8zm-39 5.1l-16 4.3q-8.8 2.4-11.8 6.5t-3.3 11.2l-1.6 21.5a28.6 28.6 0 00.1 6 6 6 0 001.8 3.8 6.3 6.3 0 004.1 1.4 25.7 25.7 0 007.3-1.1l16-4.3a32 32 0 007.3-2.8 15.5 15.5 0 004.5-3.7 13.1 13.1 0 002.5-5 34.3 34.3 0 001-6.2l1.5-21.5a31.3 31.3 0 00-.2-6 6.2 6.2 0 00-1.8-3.8 6.4 6.4 0 00-4.2-1.4 25.9 25.9 0 00-7.2 1.1z" class="cls-3"/><path d="M259.4 133.6l-.7 10.3a9.7 9.7 0 01-2.2 5.8 12.4 12.4 0 01-6.2 3.3l-9.7 2.6c-2.8.8-4.8.7-6 0s-1.6-2.5-1.4-4.8l.7-10.4a9.5 9.5 0 012.2-5.8 12.4 12.4 0 016.2-3.4l9.7-2.5q4.2-1.2 6 0t1.4 4.9zM237 181.5l39.8-58.5 14.3-3.8-39.7 58.4zm11.2-44.8l-3.3.9a4 4 0 00-2.3 1.3 4.7 4.7 0 00-.7 2.3l-.3 4.3a2.5 2.5 0 00.4 2c.3.4 1 .4 2.2 0l3.3-.8a4.2 4.2 0 002.4-1.3 4.6 4.6 0 00.7-2.2l.3-4.4a2.8 2.8 0 00-.4-2c-.3-.4-1-.5-2.3-.1zm46.7 13.3l-.8 10.3a9.3 9.3 0 01-2.2 5.8 12.4 12.4 0 01-6.1 3.3L276 172q-4.2 1.1-6 0t-1.5-4.8l.7-10.3a9 9 0 012.3-5.9 12.6 12.6 0 016.2-3.3l9.7-2.6q4.2-1.2 5.9 0c1.1.9 1.6 2.5 1.5 4.9zm-11.3 3.1l-3.2.9a3.8 3.8 0 00-2.4 1.3 4.7 4.7 0 00-.6 2.3l-.3 4.4a2.7 2.7 0 00.3 2c.3.3 1 .3 2.3 0l3.2-.9a4.4 4.4 0 002.5-1.3 4.3 4.3 0 00.7-2.2l.3-4.4a2.6 2.6 0 00-.4-2c-.4-.4-1.2-.4-2.4-.1zM79 174.5l-2.3 10.7L36.3 196l2.3-10.7z" class="cls-4"/></g></g></svg>