<svg xmlns="http://www.w3.org/2000/svg" viewBox="0 0 507.6 166.1"><defs/><defs><style>.cls-2{fill:#5d00bf}.cls-3{fill:#fff}</style></defs><g id="Capa_2" data-name="Capa 2"><g id="Layer_1" data-name="Layer 1"><path fill="#1eef00" d="M507.6 83a83 83 0 01-83 83H83A83 83 0 1183 0h341.6a83 83 0 0183 83z"/><path d="M44.4 125.1l-5.1 24 90.3-24.2 5.2-24z" class="cls-2"/><path d="M194.8 137l7.9-116.3-99.2 27L101 82l57.4-15.7-5.4 82L95.7 164l-.2 2h116.2l38.4-10.5 2.2-34.2zM290 0a56 56 0 00-14 11.2Q263.7 25 262.3 47l-4 63.8q-1.4 22 9.4 29.6t36.5.5l59.8-16.3a124.4 124.4 0 0011.9-3.9q17-6.5 26.3-17Q414.5 90 415.9 68l.4-6.6L419.9 4 420 0zm79.2 84a25.9 25.9 0 01-7.5 6.2 52.7 52.7 0 01-12.1 4.7L323 102c-5 1.4-9 2-12.1 2s-5.3-1-6.9-2.4a10 10 0 01-3-6.2 48.6 48.6 0 01-.2-10l2.5-35.9q.4-11.6 5.4-18.5t19.7-11l26.6-7.2a42.5 42.5 0 0112-1.9c3 .1 5.4.8 7 2.3a10.3 10.3 0 013 6.3 52 52 0 01.4 9.8l-.7 10.5-1.8 25.4a57 57 0 01-1.6 10.5 25.9 25.9 0 01-1 2.8 22 22 0 01-3 5.3z" class="cls-3"/><path d="M410.5 32.6c-2-1.4-5.3-1.4-10.1-.2L384 36.8a25.5 25.5 0 00-7.3 3.1 15.4 15.4 0 00-3.1 2.6 16.1 16.1 0 00-3.9 9.9l-1.2 17.5c-.3 4 .5 6.7 2.5 8a5.2 5.2 0 001.4.7c2 .7 4.9.6 8.7-.5l16.4-4.4c4.8-1.2 8.3-3.1 10.5-5.6a16.3 16.3 0 003.8-9.8l1.2-17.5c.3-4-.6-6.8-2.5-8.2zm-12 17L398 57a7.5 7.5 0 01-1.1 3.8c-.7 1-2 1.6-4.1 2.2l-5.5 1.5c-2 .5-3.3.5-3.9-.1s-.8-1.7-.7-3.3l.6-7.4a7.8 7.8 0 011.2-4c.6-1 2-1.6 4-2.2L394 46c2-.6 3.4-.5 4 .1a4.9 4.9 0 01.5 3.5zm43.9-26.7l-26.1 38.4-40.4 59.5-.8 1.2 24.3-6.6 67.3-99zm28.2 37.5q-3-2-10-.2L444 64.6q-7 2-10.5 5.7a15.4 15.4 0 00-3.7 9.9l-1.4 17.5q-.4 6 2.6 8c2 1.4 5.4 1.4 10 .2l16.5-4.4c4.8-1.3 8.3-3.2 10.5-5.7a15.5 15.5 0 003.7-9.7l1.3-17.6c.2-4-.6-6.7-2.6-8.1zm-12 17l-.5 7.3a7.5 7.5 0 01-1.2 3.8c-.6 1-2 1.7-4.1 2.3l-5.5 1.5c-2 .5-3.3.5-3.8-.1s-.7-1.7-.6-3.4l.5-7.4a8 8 0 011.1-3.9c.7-1 2-1.7 4-2.2l5.5-1.5c2-.5 3.4-.5 4 .2a4.5 4.5 0 01.7 3.3z" class="cls-2"/></g></g></svg>