<svg xmlns="http://www.w3.org/2000/svg" viewBox="0 0 299.2 299.2"><defs/><defs><style>.cls-3{fill:#fff}.cls-4{fill:#11e800}</style></defs><g id="Capa_2" data-name="Capa 2"><g id="Layer_1" data-name="Layer 1"><circle cx="149.6" cy="149.6" r="149.6" fill="#5000a5"/><circle cx="149.6" cy="148.2" r="108.7" fill="#6b00d1"/><path d="M50.8 205.7a31.1 31.1 0 011.3-6.8 28 28 0 012.6-5.8 36.5 36.5 0 013.2-4.6 21.3 21.3 0 013.3-3.3l48.5-36.7a5.4 5.4 0 002-2.7v-.2c0-1.2-.8-1.6-2.4-1.2l-55.1 14.8 1.4-18.9 69.4-18.6q7.5-2 12 .7t5.5 9.6a5 5 0 000 .8v1.5a23.6 23.6 0 01-1 5.7 39.5 39.5 0 01-2.3 5.8 29.4 29.4 0 01-3.2 5.2 20.5 20.5 0 01-3.8 3.9L81.9 193l-.3 3.2 57.5-15.4-1.3 18.8-88.2 23.7zM222.6 172.8a25 25 0 01-12.4 7.4L140.7 199 142 180l55.1-14.8c1.7-.4 2.5-1.2 2.6-2.5 0-.7-.1-1.2-.5-1.5a6.3 6.3 0 00-1-.4l-45-11.6a8.7 8.7 0 01-6.5-5.5 21.9 21.9 0 01-1.4-10.2l1.4-17.6 88-23.6-1.3 19-57.6 15.3v3.1l46.6 12.3a9.7 9.7 0 012.7 1.4 10.9 10.9 0 012.7 3 15.7 15.7 0 012 4.7 21.1 21.1 0 01.3 6.5 7.3 7.3 0 01-.2 2.3 34.8 34.8 0 01-7.3 12.9z" class="cls-3"/><path d="M244 117.7l-.9 13.2a12.2 12.2 0 01-2.9 7.4q-2.5 2.8-7.9 4.3l-12.4 3.3c-3.5 1-6 .9-7.5-.1s-2.2-3.1-2-6.1l1-13.2a12.2 12.2 0 012.9-7.5q2.5-2.8 7.8-4.3l12.4-3.3q5.4-1.4 7.6.1c1.5 1 2 3.2 1.9 6.2zM215.4 179l50.8-74.7 18.3-4.9-50.8 74.7zm14.3-57.2l-4.1 1a5.1 5.1 0 00-3 1.8 5.8 5.8 0 00-1 3l-.3 5.5a3.2 3.2 0 00.5 2.5q.6.7 2.9 0l4.1-1a5.3 5.3 0 003-1.7 5.7 5.7 0 001-2.9l.3-5.6a3.6 3.6 0 00-.4-2.5c-.5-.5-1.5-.5-3-.1zm59.6 17l-1 13.2a11.8 11.8 0 01-2.8 7.3q-2.4 2.8-7.9 4.3l-12.4 3.3q-5.3 1.4-7.5-.1t-2-6l1-13.3a11.6 11.6 0 012.8-7.4q2.6-2.9 8-4.3l12.3-3.3c3.6-1 6.1-1 7.6.1s2 3.1 1.9 6.2zm-14.4 4l-4.1 1a5 5 0 00-3 1.8 6.2 6.2 0 00-.9 2.9l-.4 5.6a3.4 3.4 0 00.5 2.5c.4.4 1.3.4 2.8 0l4.2-1a5.6 5.6 0 003.1-1.7 5.4 5.4 0 001-3l.3-5.5a3.4 3.4 0 00-.5-2.6c-.5-.5-1.5-.5-3 0zM71 160l-3.1 14.6L13 189.3l3.1-14.6z" class="cls-4"/></g></g></svg>