<svg xmlns="http://www.w3.org/2000/svg" viewBox="0 0 333.3 512"><defs/><defs><style>.cls-3{fill:#fff}.cls-4{fill:#11e800}</style></defs><g id="Capa_2" data-name="Capa 2"><g id="Layer_1" data-name="Layer 1"><circle cx="166.7" cy="166.7" r="151.7" fill="#6b00d1"/><path fill="#4f00aa" d="M333.3 166.7C333.3 74.7 258.5 0 166.6 0S0 74.8 0 166.7c0 76 51.1 140.2 120.7 160.2V385H67.2l99.4 127L266 385h-53.4v-58.1a167 167 0 00120.7-160.2zm-303.3 0a136.8 136.8 0 11136.7 136.6A136.8 136.8 0 0130 166.7z"/><path d="M66 207.4a33 33 0 011.5-7.4 29.8 29.8 0 012.8-6.2 38.8 38.8 0 013.4-5 23.4 23.4 0 013.6-3.5l52.4-39.6a6 6 0 002-3l.2-.2c0-1.4-.9-1.8-2.6-1.3l-59.6 16 1.5-20.4 75-20.1q8-2.2 12.9.8c3.3 2 5.2 5.4 6 10.3a4.7 4.7 0 000 .9v1.6a25.5 25.5 0 01-1.2 6.1 42.7 42.7 0 01-2.4 6.3 32 32 0 01-3.4 5.6 21.9 21.9 0 01-4.1 4.2l-54.3 41.2-.3 3.4 62-16.6-1.3 20.4-95.3 25.5zM251.6 171.8a26.9 26.9 0 01-13.3 8.1L163.2 200l1.4-20.4 59.5-16c1.8-.4 2.7-1.3 2.7-2.6.1-.9 0-1.4-.5-1.6a6.2 6.2 0 00-1.1-.6l-48.6-12.4a9.4 9.4 0 01-7-6 23.6 23.6 0 01-1.5-11l1.4-19L264.6 85l-1.5 20.4L201 122v3.3l50.6 13.3a10.2 10.2 0 012.9 1.6 11.5 11.5 0 013 3.2 16.7 16.7 0 012 5 23.1 23.1 0 01.4 7 8.1 8.1 0 01-.3 2.6 37.4 37.4 0 01-7.9 13.8z" class="cls-3"/><path d="M255.6 134.8l-.7 10.2a9.5 9.5 0 01-2.3 5.7 12.2 12.2 0 01-6.1 3.3l-9.6 2.6c-2.8.7-4.7.7-5.9-.1s-1.6-2.4-1.4-4.7l.7-10.3a9.4 9.4 0 012.2-5.8 12.3 12.3 0 016.1-3.3l9.6-2.5c2.8-.8 4.8-.7 5.9 0s1.6 2.5 1.5 4.9zm-22.2 47.4l39.3-57.9 14.2-3.8-39.3 57.9zm11-44.4l-3.1.9a4.2 4.2 0 00-2.4 1.3 4.6 4.6 0 00-.7 2.3l-.3 4.3a2.5 2.5 0 00.4 2c.3.3 1 .3 2.2 0l3.2-1a4.3 4.3 0 002.4-1.2 4.5 4.5 0 00.7-2.2l.3-4.4a2.8 2.8 0 00-.4-2c-.3-.3-1-.3-2.3 0zm46.3 13.2l-.8 10.2a9.1 9.1 0 01-2.1 5.7 12.2 12.2 0 01-6.2 3.3l-9.6 2.6c-2.7.7-4.7.7-5.8 0s-1.7-2.5-1.6-4.8l.8-10.2a9 9 0 012.2-5.8 12.4 12.4 0 016.1-3.3l9.6-2.6q4.2-1.1 5.9.1c1.1.8 1.6 2.4 1.5 4.8zm-11.2 3l-3.2 1a3.9 3.9 0 00-2.3 1.2 5 5 0 00-.7 2.3l-.3 4.3a2.7 2.7 0 00.4 2q.5.5 2.2 0l3.2-.8a4.4 4.4 0 002.4-1.3 4.3 4.3 0 00.7-2.3l.4-4.3a2.6 2.6 0 00-.5-2c-.3-.3-1-.3-2.3 0zM81 173.3l-2.3 10.6-40 10.7 2.2-10.6z" class="cls-4"/></g></g></svg>