<svg xmlns="http://www.w3.org/2000/svg" viewBox="0 -104 512 512" style="fill: #7e7e83;"><defs></defs><path fill-rule="evenodd" d="M365 3c44.4 10.3 61.4 36.3 82.7 72H365zM105.6 78c8.7 0 15 4.2 15 14a15 15 0 01-15 15H15a15 15 0 000 30h135a15 15 0 110 30H15a15 15 0 100 30h33v45a15 15 0 0015 15h30.2a57.5 57.5 0 00112.6 0h152.4a57.5 57.5 0 00112.6 0H497a15 15 0 0015-15v-90c0-44-46.4-47-46.5-47H350a15 15 0 01-15-15V0H63a15 15 0 00-15 15v33H30a15 15 0 100 30zm328.3 148a27.5 27.5 0 11-38.9 39 27.5 27.5 0 0139-39zm-265 0a27.5 27.5 0 11-38.9 39 27.5 27.5 0 0139-39zm0 0"></path></svg>