<svg xmlns="http://www.w3.org/2000/svg" width="512" height="512" viewBox="0 0 128 128"><defs/><path fill="#da364c" d="M105 47c0 13.4-9.2 29.2-23 42a100.5 100.5 0 01-18 13.4C41.7 89.2 23 65.9 23 47a21.4 21.4 0 0140.3-10l.7 1.5a21.9 21.9 0 012.1-3.8A21.4 21.4 0 01105 47z"/><path fill="#ef5261" d="M99.8 54A60.7 60.7 0 0182 89 100.5 100.5 0 0164 102.4C41.7 89.2 23 65.9 23 47a21.3 21.3 0 013.9-12.3 21.3 21.3 0 0112.3-4c8.8 0 17.3 6.6 20.6 14.2a19.5 19.5 0 014.2-6.4c.3.5-.2-.5 0 0a11.6 11.6 0 016-6 21.3 21.3 0 018.7-1.7 21.6 21.6 0 0121 23.2z"/></svg>