<svg xmlns="http://www.w3.org/2000/svg" viewBox="0 0 2512.66 401.12"><defs/><defs><style>.cls-1{fill:#ea6c02}</style></defs><g id="Capa_2" data-name="Capa 2"><g id="Capa_1-2" data-name="Capa 1"><path d="M21.67 401C124 380.3 222.18 349.09 307.85 286.59 296 281.2 284.77 276 274.59 268.76c-11.76-8.32-21.17-18.63-26.4-32.24-6.14-16-4.56-32 .9-47.75 8.1-23.44 22.74-42.66 39.63-60.29C320.91 94.9 359.1 69.56 400.4 48.64a476.63 476.63 0 0191.48-35.06C526.74 4.2 562.15-1 598.43.17c-13.22 4.3-26.5 8.36-39.33 13.69a286.72 286.72 0 00-37.84 19 327.56 327.56 0 00-35.73 24.39c12.51 1 23.66 2.51 34.54 5.42 13.93 3.72 27.07 9.17 38 18.92 18.42 16.46 23 37.33 18.65 60.74-4.78 25.85-17.94 47.68-33.9 67.92-28.23 35.78-63.45 63.6-101.86 87.61-41 25.66-84.87 45.41-130.62 61a775.06 775.06 0 01-116.7 29.49C137.51 398.12 81 401.87 24.16 401h-2.49z" class="cls-1"/><path d="M354 32.47c-23.47.37-46.85 2.4-70.19 4.73-25.64 2.57-51.3 5.06-76.73 9.43-3.43.59-4.37-.38-3.5-4 2.32-9.5 6.35-18.52 7.92-28.22.51-3.09 1.91-6.71-1.07-8.85s-6 .58-8.59 2.15c-20.37 12.4-38.43 27.84-55.73 44-13.13 12.3-27.29 22.32-44 29.06-11.53 4.64-22.58 10.48-33.72 16-13.47 6.71-25 15.27-31.49 29.76-5.71 12.65-14.89 23-25.5 32.08a71.46 71.46 0 00-7.28 7.48c-5.15 5.89-5.39 9.13-1 15.51 9.4 13.64 20.3 25.79 35.16 33.7 6.57 3.5 13.45 6.26 21.7 4.5-2.51-4.17-4.81-8-7.07-11.79-1.08-1.82-1.51-3.52.3-5.35C66 189.83 79.53 177.94 95.6 169.19c7.21-3.92 14.24-3.9 21.11.91a34.24 34.24 0 019.19 9.7c11.2 17.42 15.37 36.85 16.1 57.2.21 5.9-2.3 10.29-7.15 13.88-5.07 3.76-10.13 7.51-15.39 11-3.62 2.41-6.72 2.79-10.33 0-3.12-2.38-6.6-4.3-10.42-6.75a18.94 18.94 0 00.32 9.18 115.29 115.29 0 0014 29.58 21 21 0 003 3.29c2.93 2.85 6.1 3.6 10 1.58a128.8 128.8 0 0012.79-7.63c9.48-6.42 18.84-13 28.77-18.75 18-10.43 37.13-10 56.69-7 7.85 1.23 15.41 3.72 23.16 5.8 0-.49.07-.72 0-.8-.56-.59-1.11-1.17-1.72-1.7-15.61-13.56-24.41-30.41-24.39-51.32 0-22.41 8.9-41.95 20.52-60.42 12.72-20.21 28.56-37.8 46-54.08 26.86-25.08 56.32-46.41 89.15-63 5.19-2.63 10.47-5.09 15.43-7.49-12.83.06-25.62-.11-38.43.1zM98.34 113.73a17.51 17.51 0 00-6.24 6.21 22.52 22.52 0 01-9.72 9c-6.43 3.11-17.21 1-21.88-4.37-1.72-2 0-3 1-4.07 5.46-5.59 12.22-9.1 19.53-11.44a138.17 138.17 0 0135.28-6.46c-5.96 3.69-11.95 7.4-17.97 11.13zM1767.55 178.58c26.15 0 52.3 0 78.44.08 1.64 0 5.68-1.65 3.67 3.07-10.27 24.09-18.36 49.2-32.51 71.48-12.83 20.2-31.56 31.25-55.24 35.14-46 7.55-92.26 6.12-138.51 5.75-28.63-.23-57.18-2.58-85.77-4.07-5.42-.29-5.72-.75-3.74-6 12.35-32.38 24.89-64.69 38.38-96.62 6.45-15.26 12.22-30.84 21.37-44.82 13.21-20.17 31.95-31.68 55.58-36 21.39-3.87 43-4.82 64.6-5.26 32.64-.67 65.25.42 97.85 1.6 20.95.75 41.88 2.09 62.83 3 3.66.15 4.22 1.27 3 4.46q-7.42 19-14.61 38.13c-.92 2.44-2.38 3.15-4.91 3-28.4-1.34-56.8-3-85.23-3.75-31.92-.82-63.88-3-95.8.67-18.07 2.09-31.62 10.52-39.4 27.2-10.24 21.94-18.65 44.64-27.5 67.16-1 2.52-.52 3.46 2.38 3.67 31.07 2.24 62.17 3.67 93.28 1.51 11.2-.78 22.54-2.21 32.22-9.11 6.39-4.56 10.8-10.65 14.63-17.31 2.09-3.63.78-4.52-2.94-4.5-20.16.11-40.31.09-60.46.1-5.67 0-11.33-.18-17 0-3 .08-3.52-1-2.46-3.49 4.58-10.86 9.25-21.69 13.65-32.62 1.25-3.09 3.56-2.48 5.77-2.48h78.45zM2464.56 106.32c-50.06-2.37-100.12-4-150.21-1.45a205.23 205.23 0 00-42.81 6.48c-26.38 7.09-43.55 24.88-54.15 49.11-13.82 31.6-26.84 63.56-40.16 95.38-5.28 12.64-10.46 25.32-15.93 38.56h57.56c3 0 3.41-2.14 4.23-4.09 5.91-14.23 12-28.4 17.58-42.76 1.37-3.52 3.06-4.44 6.52-4.22 21.44 1.36 42.91 1.13 64.38 1.06a7.7 7.7 0 016 2.72c13.92 14 28 27.92 41.92 41.93a9.14 9.14 0 007 3c28.14-.08 56.28 0 84.42-.08 1.33 0 3 .74 4.19-1.28l-50.24-51c3.58-.55 6.17-.92 8.75-1.35 9.83-1.62 19.84-2.87 28.85-7.35 17.25-8.58 28.92-22.75 36.62-39.92 8.54-19.06 16-38.58 23.94-57.92 3.24-7.94 6.31-16 9.63-24.37-16.56-.87-32.32-1.71-48.09-2.45zm-51.49 47.22c-5.2 12.48-9.07 25.7-20.52 34.56-9.71 7.52-21.27 9-32.8 10.11-10.91 1-21.9 1.45-32.9 1.52q-30.41-1.23-60.81-2.49c-1.53-.07-4.6.61-3.37-2.45 4.92-12.29 9.27-24.92 20-33.86 8.2-6.83 18.07-9.07 28.14-10.17 33.36-3.64 66.72-1.23 100.07.79 1.31.08 3.12-.15 2.19 1.99zM1258.32 111.74c-6.32.06-12.67.27-19-.16-30.88-2.08-61.78-3.71-92.71-4.5-34.6-.89-69.25-1.22-103.65 3.65-15.49 2.19-30.67 5.56-43.89 14.91-15.93 11.27-25.73 27-33.3 44.33-17 38.93-32.63 78.38-47.59 118.11-2.73 7.25-2.63 7.45 6.19 7.88 39.22 2 78.41 4.79 113.11 4.31 38.41 0 72.1-.92 105.66-5.83 28.73-4.21 49.44-18.81 62.84-44.27 7.19-13.65 12.81-28 18.71-42.2 12.65-30.47 24.89-61.12 36.39-92 1.21-3.23.55-4.26-2.76-4.23zm-93.75 46.33a652.68 652.68 0 01-29 70.25c-7.1 14.44-19.49 21.76-35.47 24.18-15.09 2.29-30.19 1.75-45.3 2.14-19.49.22-38.91-1.12-58.34-2.27-2.59-.15-4.05-.31-2.74-3.63 9.31-23.57 17.7-47.51 29.09-70.2 7.21-14.39 19.47-21.83 35.11-23.88 30.19-3.94 60.43-2.31 90.67-.72 4.48.24 9 .56 13.45.67 2.54.07 3.57.53 2.53 3.46zM2138.37 287.62c-1.29-32.06-2.67-64.11-3.95-96.17q-1.73-43.08-3.25-86.17c-.12-3.66-1.15-4.76-4.91-4.73-29.31.16-58.63.11-88 .06a57.1 57.1 0 00-18.12 3.06c-16.69 5.52-30.06 16.22-42.26 28.28q-66.4 65.61-132.37 131.67c-10 9.92-19.72 20-29.91 30.39a10.78 10.78 0 001.78.36c23.32 0 46.64 0 70 .08 2.56 0 4-1.29 5.51-2.8q13.21-13.15 26.39-26.37c1.8-1.81 3.46-3.33 6.32-3.33q61 .09 121.94 0c3 0 4.07 1 4.12 4 .13 7.64.69 15.28.73 22.93 0 4.05.94 5.68 5.59 5.63 24.65-.28 49.31-.13 74-.13 6.57-.01 6.66-.01 6.39-6.76zM2046 219.28l-77.94-.1c-.25 0-.49-.3-.85-.55.41-2.57 2.9-3.4 4.44-5q29.91-30.28 60.89-59.5c3.23-3 6.17-6.54 10.78-7.76 2.62-.69 4-.46 4.05 2.82.65 21.93 1.45 43.86 2.28 65.78.13 2.81-.24 4.32-3.65 4.31zM747.82 300.29c-40.5.38-80.87-2.42-121.27-4.51-4.89-.26-5.56-1.49-3.87-6q21.14-56.37 44.7-111.77c6.09-14.4 12.63-28.49 23.2-40.37 12.59-14.17 28.54-21.8 46.92-25.1 39.93-7.16 80.2-6.07 120.48-5.2 31.46.68 62.88 2.38 94.32 3.57 3.82.14 7.64.64 11.46.64s4.67 1 3.23 4.69c-5.51 14.05-10.8 28.19-16.21 42.28-1.9 4.95-4.06 9.82-5.83 14.81-.9 2.55-2.17 3.65-5 3.64q-35.73-.1-71.46 0c-3.34 0-4.47-.69-2.82-4.26 2.16-4.64 3.56-9.62 5.47-14.39 1-2.44.89-3.58-2.21-3.74-32.43-1.67-64.85-3.78-97.32-1.06-15.82 1.33-30.56 5.19-40.34 19.24-5.35 7.7-8.75 16.38-12.2 25-6.64 16.62-13.2 33.27-19.88 49.88-1.23 3-1.47 4.45 2.8 4.74 28.43 1.95 56.87 2.69 85.36 1.87a135 135 0 0029.1-4.05c10.78-2.71 18-9.73 22.8-19.33 1.69-3.39 3.8-4.29 7.39-4.27 23.49.12 47 0 70.46 0 5.78 0 5.89.33 3.6 5.44-6.25 13.94-12.89 27.53-23.57 38.9a70.14 70.14 0 01-37.51 21.17c-36.89 7.89-74.36 7.8-111.8 8.18zM1220.48 294.93c3.93-10.13 7.67-20 11.6-29.83 13.18-33 26.33-65.91 39.69-98.78 4.92-12.12 9.06-24.65 17.93-34.81 12.19-14 26.9-22.46 46-22.07 6.14.13 12.29 0 19.21 0l-10.6 26.31q-22.66 56.05-45.4 112.07c-1.47 3.6-1.05 4.33 2.82 4.6a849.57 849.57 0 0085.34 1.84 105.33 105.33 0 0029-4.59c12.39-3.95 20.71-12.69 25.61-24.22 15.62-36.76 30.86-73.68 46-110.64 1.66-4 3.62-5.51 7.95-5.48 25 .17 50 .06 75 .07 7.08 0 7.12 0 4.42 6.57q-18.18 43.88-36.41 87.73c-6.77 16.22-12.72 32.85-21.33 48.22s-19.83 28.47-36.5 35.45c-13 5.43-26.9 7.33-40.8 8.86-43.63 4.79-87.42 4.65-131.18 3.53-27.94-.72-55.84-2.78-83.76-4.26-1.41-.05-2.71-.32-4.59-.57z" class="cls-1"/></g></g></svg>