<svg xmlns="http://www.w3.org/2000/svg" viewBox="0 0 1027.6 407.5"><defs/><defs><style>.cls-1{fill:#fff}.cls-2{fill:#4a00b5}</style></defs><g id="Capa_2" data-name="Capa 2"><g id="Capa_1-2" data-name="Capa 1"><path d="M229.3 134.2l-3.5 13q-5.6 20.6-20 31.4t-40.4 12.3l-60 3.8q-26 1.7-34.8-7.6t-3-30l16.3-60q5.6-20.6 20-31.3t40.3-12.4l60-3.8q26-1.6 34.8 7.6t3 30l-3.4 13-42 2.6a43 43 0 001.8-9.5 9.1 9.1 0 00-1.7-6.4 11.2 11.2 0 00-6.3-3.5 41.7 41.7 0 00-11.8-.5L152 84.6q-14.8.9-20.9 6.5t-8.7 16.6l-9.4 33.6a46.7 46.7 0 00-1.8 9.6 9.7 9.7 0 001.6 6.5c1.2 1.7 3.3 2.8 6.1 3.5a41 41 0 0011.9.6l26.7-1.7a51.8 51.8 0 0012.4-2 26.4 26.4 0 008.5-4.4 20 20 0 005.4-6.8 56.6 56.6 0 003.6-9.7z" class="cls-1"/><path d="M97.8 199c-14.4 0-24.3-3-30-9.1-6.9-7.3-8.2-18.6-4-33.8l16.2-60c4-14.5 11.2-25.8 21.5-33.5s24.5-12 42.5-13.1l60-3.8c18.8-1.2 31.2 1.7 38 8.8s8 18.6 4 33.8l-4.3 15.6-50.5 3.2 1.6-5.4a39 39 0 001.6-8.6 5.3 5.3 0 00-.8-3.7 7.6 7.6 0 00-4.1-2 37.7 37.7 0 00-10.6-.5l-26.7 1.7c-8.9.5-15 2.4-18.4 5.5s-6 8.1-7.6 14.6v.1l-9.4 33.6a43.2 43.2 0 00-1.6 8.7 6 6 0 00.8 3.9 6.9 6.9 0 003.8 2 38 38 0 0010.7.5l26.7-1.7a47.9 47.9 0 0011.4-2 22.4 22.4 0 007.2-3.6 15.7 15.7 0 004.4-5.5 52.5 52.5 0 003.3-9l.7-2.7 50.4-3.2-5 18.3c-4 14.6-11.2 26-21.5 33.6s-24.5 12-42.5 13.1l-60 3.8q-4 .4-7.8.4zM211.6 53.4c-2.2 0-4.5 0-7 .3l-60 3.8c-16.5 1-29.3 4.9-38.3 11.5s-15 16.4-18.6 29.3l-16.3 59.9c-3.3 12.3-2.6 21 2.1 26.2 5 5.2 15.6 7.3 31.6 6.3l60-3.8c16.5-1 29.4-5 38.3-11.6s15-16.4 18.5-29.2l2-7.5-33.5 2a56.6 56.6 0 01-3 7.7 24 24 0 01-6.6 8.2 30.7 30.7 0 01-9.7 5 55.3 55.3 0 01-13.4 2.3l-26.7 1.7c-5.5.4-9.8.1-13-.7a14 14 0 01-8.5-5 13.7 13.7 0 01-2.3-9.1 50 50 0 012-10.4l9.2-33.6c2-8 5.3-14.2 10-18.5 4.8-4.5 12.4-7 23.3-7.6l26.7-1.7a45 45 0 0113 .6c3.7 1 6.6 2.6 8.4 4.8a13 13 0 012.7 9.2 40.5 40.5 0 01-.7 5l33.7-2.2 2.7-10.1c3.4-12.3 2.7-21.1-2.1-26.2-4.1-4.3-12.5-6.6-24.5-6.6z" class="cls-2"/><path d="M391 37.9l41.9-2.7-14.4 51.9q-5.7 20.7-20 31.4t-40.2 12.3l-9 .6-13.5 48.7-42 2.7 13.5-48.7-9 .5q-26 1.7-34.9-7.6t-3.2-30l14.4-51.8 42-2.6-10.7 38.7a46 46 0 00-1.8 9.6 9.7 9.7 0 001.6 6.4c1.2 1.7 3.2 2.9 6 3.6a41 41 0 0012 .5l26.6-1.6a51.9 51.9 0 0012.5-2.1 24.9 24.9 0 008.4-4.5 21.1 21.1 0 005.4-7 55 55 0 003.6-9.6z" class="cls-1"/><path d="M288.5 187.1l13.4-48.7-3.4.2c-18.7 1.2-31.2-1.7-38-8.8s-8.3-18.6-4.2-33.8l15.2-54.6 50.4-3.2-12.2 44.1a43.4 43.4 0 00-1.6 8.8 6 6 0 00.8 3.9 6.8 6.8 0 003.8 2 37.5 37.5 0 0010.7.4l26.7-1.7a47.7 47.7 0 0011.4-1.9 21.2 21.2 0 007.2-3.7 17 17 0 004.4-5.6 52.7 52.7 0 003.3-9L387.8 34l50.4-3.2-15.9 57.3c-4 14.6-11.1 25.9-21.4 33.6s-24.3 12-42.3 13.1l-6.3.4-13.4 48.7zm24.1-57.4l-13.4 48.7 33.5-2 13.4-48.8 12-.7c16.4-1 29.2-5 38-11.6s15-16.4 18.5-29.3l13-46.5-33.6 2.2-10 36a59.7 59.7 0 01-3.8 10.3 25.1 25.1 0 01-6.4 8.2 29 29 0 01-9.8 5.2 55.3 55.3 0 01-13.4 2.3l-26.7 1.7c-5.5.4-9.8.1-13-.7a14 14 0 01-8.4-5 13.6 13.6 0 01-2.4-9.1 49.1 49.1 0 011.9-10.4l9.2-33.3-33.5 2.1-13.6 49.2c-3.4 12.2-2.6 21 2.2 26 5 5.3 15.7 7.5 31.7 6.5z" class="cls-2"/><path d="M585.5 121.5l-1.4 4.9a75.3 75.3 0 01-7.3 17.7 42.7 42.7 0 01-11.3 12.5 50.9 50.9 0 01-16.4 7.9 105.7 105.7 0 01-22.4 3.6l-111.5 7L454 34l111.5-7.1q25.8-1.6 33.7 6.8t2.3 29l-1.3 4.8a42 42 0 01-7.7 14.9A90.4 90.4 0 01580.5 95a26.9 26.9 0 015.5 11.6 30 30 0 01-.5 14.9zm-59.8-7.5l-53.4 3.4-6.4 22.9 53.3-3.4q6.2-.4 10.4-1a25.4 25.4 0 006.8-1.9 11.1 11.1 0 004.3-3.5 18.2 18.2 0 002.7-5.6 19.1 19.1 0 001-6.6c-.2-2.3-1.6-3.8-4.4-4.2s-7.5-.5-14.3-.1zm14.8-54L487 63.4l-6 21.9 53.4-3.4q6.2-.4 10.3-.9a23 23 0 006.8-1.7 10.6 10.6 0 004.3-3.4 17.7 17.7 0 002.5-5.5 24.6 24.6 0 001.1-6.6 3.5 3.5 0 00-2-3.3 14.6 14.6 0 00-6-1q-4.1 0-11 .5z" class="cls-1"/><path d="M409.8 179.5L451 30l114.4-7.3c18.6-1.2 30.6 1.5 36.9 8.1s7.3 17.7 3.2 32.7l-1.4 5a46.3 46.3 0 01-8.4 16.2 96.5 96.5 0 01-9.9 10.8 33.3 33.3 0 014.1 10.1 34.1 34.1 0 01-.5 16.9l-1.4 4.9a80.1 80.1 0 01-7.8 18.6 46.8 46.8 0 01-12.3 13.7 55 55 0 01-17.7 8.5 109.5 109.5 0 01-23.2 3.8zm47.4-141.8l-36.7 133 106-6.6a101.3 101.3 0 0021.5-3.5 46.9 46.9 0 0015.1-7.2 39 39 0 0010.2-11.4 72 72 0 007-16.8l1.4-4.8a26.1 26.1 0 00.4-12.9 23.2 23.2 0 00-4.6-10l-2.6-3 3-2.5a87 87 0 0011.6-12.2 38.2 38.2 0 007-13.4l1.3-5c3.4-12 3-20.5-1.3-25-3-3.3-10.8-6.9-30.6-5.6zm3.3 107l8.7-31.1 56.2-3.5c7.2-.5 12.2-.5 15.3 0 4.6.8 7.4 3.7 7.7 8a22.5 22.5 0 01-1.2 8 21.9 21.9 0 01-3.2 6.9 15 15 0 01-5.9 4.7 28.6 28.6 0 01-8 2.2c-2.8.4-6.4.8-10.6 1zm14.9-23.5l-4.2 14.8 47.8-3c4-.3 7.4-.6 10-1a21 21 0 005.7-1.5 7 7 0 002.8-2.3 14.1 14.1 0 002-4.4 15.2 15.2 0 00.9-5.2 1 1 0 000-.3 4.6 4.6 0 00-1-.2c-1.7-.3-5.4-.5-13.4 0zm.3-31.6l8.3-30 56.2-3.6c4.6-.3 8.4-.5 11.2-.5a18.4 18.4 0 017.8 1.4 7.5 7.5 0 014.3 6.9 27.9 27.9 0 01-1.3 7.6 22 22 0 01-3.1 6.8 14.6 14.6 0 01-5.8 4.7 26.7 26.7 0 01-8 2c-2.8.4-6.3.7-10.6 1zm14.5-22.4l-3.8 13.7 47.8-3c4-.2 7.5-.5 10.1-.8a19.3 19.3 0 005.6-1.5 6.7 6.7 0 002.7-2 14 14 0 001.9-4.4 21.1 21.1 0 001-5.2 12.8 12.8 0 00-4-.5c-2.7 0-6.3.2-10.8.5z" class="cls-2"/><path d="M752.9 153.8l-109.2 6.8q-26 1.7-34.7-7.6t-3-30l16.3-59.9q5.6-20.6 20-31.4t40.4-12.3l109.1-6.9-9 32.1-92.4 5.9q-14.8 1-21 6.6t-8.7 16.6l-.2.2 116.3-7.3-8.7 32.1-116.3 7.4-.4 1.2a46.5 46.5 0 00-1.8 9.6 9.7 9.7 0 001.6 6.4q1.8 2.6 6 3.6a41.2 41.2 0 0012 .6l92.4-5.9z" class="cls-1"/><path d="M636.3 164.9c-14.5 0-24.4-3-30.2-9.1-6.8-7.3-8.1-18.6-4-33.8l16.3-59.9c4-14.6 11.2-25.9 21.5-33.5s24.5-12 42.5-13.2l114.8-7.3-11.3 40.4-95.3 6c-8.8.5-15 2.4-18.4 5.5a24.7 24.7 0 00-6 9.5l116-7.3-11 40.3-116.4 7.3a39.8 39.8 0 00-1.2 7.2 6 6 0 00.8 4 7 7 0 003.9 2 37.9 37.9 0 0010.6.4l98.1-6.1-11 40.3-112 7q-4 .3-7.8.3zm150.2-148l-103.6 6.5c-16.4 1-29.3 5-38.2 11.6s-15 16.4-18.6 29.2l-16.3 60c-3.3 12.2-2.6 21 2.2 26 4.9 5.3 15.5 7.5 31.5 6.5l106.3-6.8 6.5-24-86.9 5.5c-5.5.4-9.8.2-13-.6a14 14 0 01-8.5-5.1 13.6 13.6 0 01-2.3-9 49.9 49.9 0 012-10.5v-.2l1.2-3.8L765 95l6.5-24-120.4 7.6 6-6.7c2-7.6 5.3-13.5 9.7-17.7 4.8-4.4 12.5-6.9 23.4-7.6l89.6-5.7z" class="cls-2"/><path d="M902.6 96.2l31.7 46-46.7 3L855 99.4l-25.5 1.6-13.4 48.7-42 2.7L813 11l109.2-6.8q26-1.7 34.7 7.6t3 30l-2.8 11Q951.6 72.5 939 83t-36.4 13zm-3.2-59L846 40.7l-7.6 28 53.4-3.3a77.7 77.7 0 0010.5-1.3 21.1 21.1 0 007-2.6 13 13 0 004.4-4.4 29.4 29.4 0 002.8-6.9 30.3 30.3 0 001.4-7.4 4.5 4.5 0 00-1.8-4q-1.9-1.3-6-1.6a95.7 95.7 0 00-10.7.2z" class="cls-1"/><path d="M768.8 156.8L809.9 7.3l112-7C940.7-1 953.1 2 959.8 9s8.2 18.6 4 33.8L961 53.8a63 63 0 01-19.4 32.4 65 65 0 01-32 13l32 46.6-56 3.6-32.6-45.8-20.4 1.3-13.5 48.7zM816 15l-36.6 133 33.5-2 13.4-48.8 30.6-1.9 32.6 45.8 37.4-2.4L895.5 93l6.7-.7c15-1.6 26.5-5.6 34.2-12.2s13.4-16 16.8-28.3l3-10.9c3.3-12.3 2.5-21.1-2.2-26.2s-15.8-7.4-31.6-6.4zm17 58l9.8-36.2 56.2-3.5.3 4-.3-4a101.6 101.6 0 0111.3-.2c3.5.2 6.1 1 8 2.2a8.5 8.5 0 013.5 7.5 33.3 33.3 0 01-1.6 8.4A33.4 33.4 0 01917 59a17.1 17.1 0 01-5.7 5.8 25.2 25.2 0 01-8.3 3.1 83.7 83.7 0 01-11 1.4zm16-28.5l-5.3 19.8 47.8-3a75.9 75.9 0 009.9-1.2 17.4 17.4 0 005.7-2.1 9.1 9.1 0 003-3.1 25.7 25.7 0 002.4-5.9 26.2 26.2 0 001.3-6.4 1.4 1.4 0 000-.7c-.2-.1-1.2-.7-4-.8a92 92 0 00-10.3.2z" class="cls-2"/><path fill="#0dff00" d="M859.2 208.8L982.4 88l36-2.3-123 120.7zM935.8 105l-6.7 24.3q-2.4 8.4-8.1 12.7t-16.4 5l-24.5 1.6q-10.4.6-14-3.1t-1.3-12.1l6.6-24.4q2.4-8.5 8.3-12.9t16.3-5l24.4-1.5q10.6-.7 14.2 3.1t1.2 12.3zm-28.3 2l-8.2.5q-4.4.3-6.3 2a11.3 11.3 0 00-2.7 5.1l-2.9 10.3c-.6 2.3-.6 4 0 4.9s2.5 1.4 5.4 1.2l8.2-.5q4.6-.3 6.4-2a11 11 0 002.7-5l2.8-10.3c.6-2.2.7-3.9 0-5s-2.3-1.4-5.4-1.2zm105.2 54.2l-6.9 24.4q-2.1 8.3-8 12.7t-16.4 5l-24.4 1.5q-10.4.7-14.1-3t-1.4-12.2l6.8-24.3q2.2-8.5 8.1-12.9t16.4-5l24.5-1.5q10.6-.7 14 3c2.4 2.6 2.8 6.7 1.4 12.3zm-28.5 2l-8.1.6c-3 .1-5 .8-6.2 2a11.7 11.7 0 00-2.7 5l-2.9 10.4q-1 3.4 0 4.9c.5 1 2.3 1.4 5.3 1.2l8.1-.5c3.1-.2 5.3-.9 6.5-2a10.7 10.7 0 002.8-5l2.8-10.3c.7-2.3.7-4 0-5s-2.5-1.5-5.6-1.3z"/><path fill="#6900ff" d="M850 212.9l65.5-64.2a43.9 43.9 0 01-10.7 2l-24.4 1.5c-8.2.5-13.7-.9-16.9-4.2-3.3-3.4-4-8.6-2-15.5l6.5-24.3c1.8-6.4 5-11.4 9.5-14.7s10.6-5.3 18.2-5.7l24.4-1.6c8.3-.5 13.9.9 17 4.2s4 8.7 2 15.6l-6.6 24.4a36 36 0 01-.8 2.5l49.1-48.2 46.8-3-65.3 64.1a43.8 43.8 0 0110.4-1.8l24.4-1.5c8.3-.6 13.8.8 16.9 4.2s3.8 8.6 2 15.5l-6.8 24.4c-1.6 6.3-4.7 11.2-9.2 14.6s-10.5 5.2-18.3 5.7l-24.4 1.5c-8.1.5-13.6-.8-16.8-4.1s-4.2-8.6-2.4-15.4l6.9-24.5.7-2.2-48.7 47.7zM984 91.5L868.4 204.7 894 203l115.2-113.2zm16.4 57.8l-2.8.1-24.4 1.6c-6.3.4-11.2 1.9-14.6 4.4s-5.5 6-6.8 10.9l-6.8 24.4c-.8 2.9-1.3 6.8.6 8.7.9 1 3.6 2.5 11.3 2l24.5-1.5c6.3-.4 11.2-1.9 14.5-4.4s5.4-6 6.7-10.7l6.8-24.4c.8-3 1.3-7-.5-9-.6-.7-2.6-2-8.5-2zm-76.8-56.2l-2.9.1-24.4 1.5c-6.3.4-11.1 1.9-14.5 4.4s-5.5 6-7 11l-6.6 24.3c-.8 3-1.4 6.8.4 8.7 1 1 3.7 2.6 11.4 2l24.4-1.5c6.4-.4 11.3-1.9 14.5-4.3s5.5-6 7-10.9l6.5-24.3c.9-3 1.5-7-.3-9-.7-.7-2.9-2-8.5-2zm44.7 97.8c-2.6 0-5.5-.5-7-3-1-1.8-1.2-4.3-.2-7.5l2.8-10.3a15.4 15.4 0 013.6-6.7c1.8-1.8 4.6-2.8 8.4-3l8.2-.6c2.9-.2 7 0 8.8 3 1.2 2 1.3 4.5.4 7.8l-2.8 10.3a13.9 13.9 0 01-3.8 6.7c-1.9 1.6-4.7 2.6-8.7 2.8l-8.1.5h-1.6zm-.9-7a12.9 12.9 0 002 0l8.2-.5c3.3-.2 4.2-.9 4.3-1a7.3 7.3 0 001.8-3.5l2.9-10.2a8.5 8.5 0 00.3-1.8 11.9 11.9 0 00-2.4 0l-8.1.5c-3 .2-3.8.9-4 1a8.7 8.7 0 00-1.8 3.6l-2.8 10.3a10.6 10.6 0 00-.4 1.6zm-75.8-49.2c-2.5 0-5.5-.4-7-2.8-1.2-2-1.4-4.5-.5-7.7l2.9-10.3a14.8 14.8 0 013.7-6.8c1.9-1.7 4.7-2.7 8.5-3l8.2-.5c3-.2 7 0 8.8 3.1 1 2 1.1 4.5.2 7.6l-2.8 10.3a14.5 14.5 0 01-3.7 6.7c-1.8 1.7-4.6 2.6-8.6 2.9l-8.1.5h-1.6zm-1-7a12.4 12.4 0 002.2 0l8.1-.5c3.3-.2 4.1-.9 4.2-1a7.8 7.8 0 001.8-3.4l2.8-10.3a8.6 8.6 0 00.4-1.9 12.8 12.8 0 00-2.3 0l-8.1.6c-3 .1-3.9.8-4 1a8 8 0 00-2 3.6l-2.8 10.2a10.5 10.5 0 00-.4 1.6z"/><path d="M242.1 262.3l-20.8 76.3q-7.1 26.4-25.5 40t-51.4 15.8l-139 8.8 49.5-180 139.1-8.8q33-2 44.2 9.7t4 38.2zm-80.8-5.6L97 260.8l-27 98 64.4-4a65 65 0 0015.8-2.7 31.7 31.7 0 0010.8-5.8 26.6 26.6 0 007-8.8 71 71 0 004.5-12.3l11.9-42.8a65.3 65.3 0 002-12 12.8 12.8 0 00-2.1-8.4q-2.3-3.2-8-4.5t-14.9-.8z" class="cls-2"/><path d="M0 407.5l51.8-188 142-9c23.5-1.6 39 2 47.3 10.9s10 23 4.9 42l-20.8 76.2c-5 18.4-14 32.6-27 42.2s-30.8 15-53.6 16.5zM58 227L10.7 398.8l133.5-8.4c21.1-1.4 37.7-6.4 49.3-15s19.5-21.3 24-37.9l20.7-76.3c4.4-16 3.4-27.6-3-34.4-6.5-6.9-20.3-9.7-41-8.4zm6.5 136.2L93.8 257l67.3-4.3c6.7-.4 12-.1 16.1.9a17 17 0 0110.2 6 16.8 16.8 0 012.9 11 69.9 69.9 0 01-2.2 12.8v.1l-11.9 42.8a75.3 75.3 0 01-4.8 13 30.8 30.8 0 01-8 10.1 36 36 0 01-12 6.5 70 70 0 01-16.9 2.9zm35.5-98.6l-24.7 89.9 58.7-3.7a61.5 61.5 0 0014.8-2.5 28 28 0 009.5-5 23.2 23.2 0 005.9-7.5 68 68 0 004.3-11.7l11.9-42.7a61.7 61.7 0 001.8-11.2 9 9 0 00-1.3-5.9c-1-1.3-2.8-2.3-5.6-3-3.3-.8-8-1-13.8-.6z" class="cls-1"/><path d="M470.8 247.8L435.6 376l-53.5 3.4 19.4-70.4-94.8 6-19.3 70.4-53.4 3.3 35.2-128.1q7.2-26.4 25.5-40t51.4-15.8l76.5-4.8q33.1-2.1 44.2 9.7t4 38.1zM318.2 274l94.7-6a64.6 64.6 0 002-12 12.8 12.8 0 00-2-8.4q-2.4-3.2-8-4.5t-15-.7l-34 2.1q-18.8 1.2-26.6 8.4T318.2 274z" class="cls-2"/><path d="M228.6 393l36.7-133.5c5-18.3 14-32.5 27-42.2s30.8-15 53.6-16.5l76.5-4.8c23.5-1.5 39 2.1 47.3 11s10 23 5 42l-36 130.8-61.9 3.9 19.3-70.4-86.3 5.4-19.3 70.4zm203.6-189.3q-4.4 0-9.3.3l-76.6 4.8c-21.1 1.3-37.7 6.4-49.2 15S277.5 245 273 261.6l-33.7 122.8 45-2.9 19.3-70.4 103.2-6.5-19.3 70.4 45-2.9 34.4-125.3c4.4-16 3.4-27.6-3-34.4-5.5-5.8-16.1-8.8-31.7-8.8zM313 278.3l1.3-5.3c2.4-10 6.6-17.8 12.3-23.1 6-5.5 15.5-8.6 29-9.5l34-2.1c6.8-.5 12-.2 16.2.8a17 17 0 0110.3 6 16.7 16.7 0 012.8 11 69 69 0 01-2.1 12.8l-.7 2.9zm82.4-32.2c-1.6 0-3.4 0-5.2.2l-34 2.1c-11.6.7-19.7 3.2-24.1 7.3-3.6 3.3-6.4 8-8.5 13.9l86-5.5a54.7 54.7 0 001.3-8.4 9 9 0 00-1.3-5.8c-1-1.4-2.9-2.4-5.6-3a38.8 38.8 0 00-8.6-.8z" class="cls-1"/><path d="M660.4 185l53.4-3.4-18.4 66q-7.2 26.4-25.4 40t-51.2 15.8l-11.6.7-17 62-53.5 3.5 17-62-11.4.6q-33.1 2.1-44.4-9.6t-4.1-38.2l18.4-66.1 53.4-3.4-13.6 49.3a60.4 60.4 0 00-2.3 12.2 12.4 12.4 0 002 8.3q2.4 3.2 7.8 4.5t15.1.8l34-2.2a65.5 65.5 0 0015.8-2.7 31.9 31.9 0 0010.8-5.7 27 27 0 007-8.8 71.3 71.3 0 004.5-12.3z" class="cls-2"/><path d="M531.3 373.9l17.1-62-5.9.4c-23.5 1.5-39-2.1-47.5-11s-10.2-23-5-42l19-68.8 62-4-15.1 54.8a55 55 0 00-2.2 11.4 8.5 8.5 0 001.3 5.6c1 1.4 2.8 2.4 5.5 3 3.2.8 7.9 1 14 .6l34-2.1a62.1 62.1 0 0014.8-2.5 28 28 0 009.4-5 23 23 0 005.9-7.5 68 68 0 004.3-11.7l14.4-52 61.9-4-20 71.6c-5 18.3-14 32.5-26.7 42.1S641.8 306 619 307.4l-8.7.5-17 62.1zm27.8-70.7l-17 62 45-2.9 17-62 14.4-1c21.2-1.3 37.7-6.3 49.2-15s19.3-21.2 23.9-37.8l16.8-60.7-45 2.8-12.8 46.6a75 75 0 01-4.9 13 30.8 30.8 0 01-7.9 10.1 35.9 35.9 0 01-12.1 6.5 69.5 69.5 0 01-16.8 2.9l-34 2.1a56 56 0 01-16.3-.8c-4.6-1-8-3-10.1-6a16.3 16.3 0 01-2.8-10.8 62.4 62.4 0 012.4-13l12.2-44-45 2.9-17.6 63.4c-4.4 16-3.4 27.5 3 34.3 6.7 6.9 20.6 9.7 41.3 8.4z" class="cls-1"/><path d="M904.7 313.7a78.4 78.4 0 01-21.7 25 56.1 56.1 0 01-30.6 10.9l-161.2 10.2 11.1-41 127.9-8q6-.4 7-4.4c.5-1.7.3-2.9-.5-3.5a22.7 22.7 0 00-2.3-1.6l-94-45.2q-9.1-4.6-11.5-15.3a45.6 45.6 0 011.2-22.8 14 14 0 011.8-5 78.2 78.2 0 0121.8-25 56.1 56.1 0 0130.5-11l161-10.1-11.5 41L806 216a9 9 0 00-4.5 1.5 5.9 5.9 0 00-2.6 3l-.2.2a6.8 6.8 0 001.4 3 7.6 7.6 0 002 1.7l94.2 45.6a20.6 20.6 0 016 4.8 24 24 0 014.4 7.8 34.3 34.3 0 011.8 11 48.5 48.5 0 01-2.1 14.2c-.7 2.8-1.2 4.4-1.6 4.9z" class="cls-2"/><path d="M685.9 364.1l13.3-49.1 130.7-8.3c1.5 0 3.2-.4 3.4-1.3l-.7-.5-93.9-45.2a25.2 25.2 0 01-13.7-18 49.7 49.7 0 011.2-24.7c.8-3.1 1.5-5 2.4-6.2a82.4 82.4 0 0122.7-26 60.4 60.4 0 0132.7-11.7l166.5-10.5-13.7 49-130.7 8.4a5 5 0 00-2.5.9 4.1 4.1 0 00-.5.3 3.5 3.5 0 00.7.7l94.3 45.5a24.8 24.8 0 017 5.7 28.3 28.3 0 015.3 9.1 38.2 38.2 0 012 12.3 52.5 52.5 0 01-2.3 15.2c-.8 3.8-1.4 5.3-2 6.2a82.5 82.5 0 01-22.7 26 60.3 60.3 0 01-32.7 11.7zm19.6-41.5l-9 32.8 155.7-9.8a52.4 52.4 0 0028.4-10.2 74.6 74.6 0 0020.6-23.7l.2-.3a30.6 30.6 0 001-3.6v-.2a44.8 44.8 0 002-13 30.4 30.4 0 00-1.5-9.8 20.3 20.3 0 00-3.7-6.5 16.8 16.8 0 00-4.7-3.8L800 228.9h-.1a11.7 11.7 0 01-3-2.6 10.8 10.8 0 01-2.3-4.7l-.5-2 1.2-1.4a10.3 10.3 0 013.9-4 13 13 0 016.4-2.2l125-8 9.1-32.7-155.3 9.8a52.4 52.4 0 00-28.4 10.1 74.6 74.6 0 00-20.6 23.8l-.2.4-.2.2a17.8 17.8 0 00-1 3.4v.2a42 42 0 00-1 20.8c1.3 5.9 4.3 10 9.3 12.5l94.1 45.3.2.1a25.3 25.3 0 012.6 1.8c1 .8 3.3 3.2 2 7.7-.6 2.6-2.9 6.9-10.6 7.4zm29.5-107z" class="cls-1"/></g></g></svg>