<svg xmlns="http://www.w3.org/2000/svg" viewBox="0 0 299.3 257.2"><defs/><defs><style>.cls-5{fill:#5600a8}.cls-3,.cls-4{stroke-miterlimit:10}.cls-4{stroke-width:.75px}.cls-3,.cls-4{fill:#fff}.cls-3{stroke:#ccc}.cls-4{stroke:#22b573}</style></defs><g id="Capa_2" data-name="Capa 2"><g id="Capa_1-2" data-name="Capa 1"><path fill="#00ff0c" d="M299.2 52.8a51.5 51.5 0 01-33.1 47.8L0 194.1l2.4-93.5C2.7 91.2 8.4 83 17 80L236.7 2.6c25.1-8.9 52.1 5.9 60.2 33a55 55 0 012.3 17.2z" opacity=".9"/><path fill="#5600a8" stroke="#b3b3b3" stroke-miterlimit="10" stroke-width=".8" d="M278.6 186L204 255.5a5 5 0 01-6.7 0L122.7 186a5 5 0 013.4-8.6H151v-36.3l99.4-34.3v70.6h24.8a5 5 0 013.4 8.6z"/><path d="M186.3 172.6a14 14 0 1114-14 14 14 0 01-14 14zm0-18.7a4.7 4.7 0 104.7 4.7 4.7 4.7 0 00-4.7-4.7zM214.4 210a14 14 0 1114-14 14 14 0 01-14 14zm0-18.7a4.7 4.7 0 104.7 4.7 4.7 4.7 0 00-4.7-4.7zM177 210a4.7 4.7 0 01-3.6-7.7l46.8-56a4.7 4.7 0 117.1 6l-46.7 56a4.6 4.6 0 01-3.6 1.7z" class="cls-3"/><path d="M32.4 116.8l25-9 .1 9.5L28.1 128q-7 2.5-10.2.7t-3.2-8l-.3-17.8a16 16 0 013-10.2q3-4.1 10-6.7l29.4-10.6.2 9.5L32 94c-2.6 1-4.4 2.1-5.2 3.5a9.3 9.3 0 00-1 5.2v10a13.8 13.8 0 00.3 2.8 2.8 2.8 0 001 1.7 3 3 0 002 .5 11.8 11.8 0 003.3-.9zM94 62l11.2-4.1.2 15.4a16 16 0 01-3 10.2q-3 4.1-10 6.7L90 91l.2 14.5-11.3 4-.2-14.4-2.5.9q-7 2.5-10.1.7c-2.2-1.2-3.3-3.9-3.3-8l-.2-15.4 11.3-4.1.1 11.5a13.2 13.2 0 00.3 2.8 2.8 2.8 0 001 1.6 3 3 0 002 .5 11.8 11.8 0 003.3-.8l7.2-2.6a14.4 14.4 0 003.2-1.6 6.9 6.9 0 002-1.9 6 6 0 001-2.3 15.5 15.5 0 00.1-3zM154 69.3v1.4a21.6 21.6 0 01-.5 5.5 12.3 12.3 0 01-2.1 4.4 14.7 14.7 0 01-3.9 3.4 30.6 30.6 0 01-5.8 2.8l-30.1 10.9-.7-42L141 45q7-2.5 9.8-.8c2 1 2.9 3.7 3 7.7v1.5a12 12 0 01-1 4.7 25.5 25.5 0 01-2.2 4.4 7.7 7.7 0 012.4 2.8 8.5 8.5 0 011 4.1zm-17 2.8l-14.3 5.2V84l14.4-5.2q1.7-.6 2.8-1.2a7 7 0 001.7-1 3.2 3.2 0 001-1.3 5 5 0 00.2-1.8 5.4 5.4 0 00-.3-1.9 1.3 1.3 0 00-1.5-.8 21.2 21.2 0 00-4 1.2zm-.2-16l-14.4 5.2v6.5l14.5-5.2 2.7-1.1a6.4 6.4 0 001.8-1 3 3 0 00.9-1.3 5.2 5.2 0 00.2-1.7 6.4 6.4 0 00-.2-1.9 1 1 0 00-.8-.7 4.1 4.1 0 00-1.8.2c-.7.1-1.7.5-3 .9zM202.6 64.7l-29.4 10.7q-7 2.5-10.1.7t-3.3-8l-.3-17.8a16 16 0 013-10.2q3-4.1 10-6.7L202 22.8l.1 9.5-25 9c-2.6 1-4.3 2.2-5.1 3.5a9.3 9.3 0 00-1 5.3l31.3-11.3.1 9.5L171 59.7v.4a13.1 13.1 0 00.3 2.8 2.8 2.8 0 001 1.6 3 3 0 002 .5 12.3 12.3 0 003.3-.8l25-9zM239.1 36.9L251.5 47 239 51.6l-12.6-10-6.9 2.5.2 14.4-11.3 4.1-.6-42L237 10q7-2.5 10.1-.7t3.3 8v3.3a16.8 16.8 0 01-2.4 9.8q-2.6 3.9-9 6.5zM233.5 21l-14.4 5.2.2 8.3 14.4-5.2a22.3 22.3 0 002.7-1.2 6 6 0 001.8-1.3 3.8 3.8 0 00.8-1.5 8.2 8.2 0 00.2-2.2 8.2 8.2 0 00-.2-2.1 1.3 1.3 0 00-.8-1 3.3 3.3 0 00-1.8 0 26.3 26.3 0 00-2.9 1z" class="cls-4"/><path d="M54.5 140.7c0-3.8-1.1-6.3-3-7.4s-5.1-1-9.5.6l-27.5 10L15 171l.2 12 10.5-3.8-.2-13.6 16.9-6.1c4.4-1.6 7.5-3.7 9.4-6.2a15 15 0 002.8-9.6zm-10.6 5.4a7.7 7.7 0 01-.2 2 3.5 3.5 0 01-.8 1.5 5.7 5.7 0 01-1.6 1.2 18.6 18.6 0 01-2.6 1l-13.4 5-.2-7.8 13.5-4.9a24 24 0 012.7-.8 3.3 3.3 0 011.7 0 1.2 1.2 0 01.8.8 8.6 8.6 0 01.1 2zM99.4 151l-10.3-8.4c3.9-1.6 6.7-3.7 8.3-6.1a13.8 13.8 0 001.7-3.6 18.5 18.5 0 00.7-5.5l-.1-3q-.1-5.8-3-7.5c-1.8-1-4.5-1-8.3.3-.4 0-.8.2-1.2.4l-27.5 10 .6 39.1L71 163l-.2-13.5L77 147l11.8 9.3 10.5-3.8 1.2-.5zm-11.2-17.8a5.7 5.7 0 01-1.7 1.2 20.3 20.3 0 01-2.5 1l-13.5 5-.2-7.8 13.5-4.9a24.4 24.4 0 012.8-.8 3 3 0 011.6-.1 1.2 1.2 0 01.8.9 8.8 8.8 0 01.1 2 8 8 0 01-.1 2 3.6 3.6 0 01-.8 1.5zM116.6 117.3c.8-1.2 2.4-2.3 4.9-3.2l23.2-8.5v-8.9l-27.6 10q-6.5 2.4-9.4 6.2a15 15 0 00-2.8 9.6l.3 16.6c.1 3.8 1.1 6.3 3 7.4s5.1 1 9.5-.6l27.5-10-.2-9-23.3 8.5a11 11 0 01-3 .8 2.7 2.7 0 01-1.9-.5 2.6 2.6 0 01-.9-1.5 12.8 12.8 0 01-.2-2.6v-.4l29.3-10.6-.2-8.9-29.3 10.6a8.6 8.6 0 011-5zM179.5 111.2a5.4 5.4 0 01-1 2.2 7.2 7.2 0 01-1.7 1.7 13 13 0 01-3 1.5L167 119a10.7 10.7 0 01-3 .8 2.8 2.8 0 01-2-.5 2.6 2.6 0 01-.8-1.5 13 13 0 01-.3-2.6l-.1-9.4a8.6 8.6 0 011-4.9q1.1-1.9 4.9-3.2l6.7-2.5a10.7 10.7 0 013-.7 3 3 0 012 .4 2.5 2.5 0 01.8 1.5 11.2 11.2 0 01.3 2.6l10.6-3.8-.1-3.6c0-3.8-1-6.3-3-7.4s-5.1-1-9.5.6l-15.2 5.5q-6.5 2.4-9.4 6.2a15 15 0 00-2.8 9.6l.3 16.6c.1 3.8 1.1 6.3 3 7.4s5.1 1 9.5-.6l15.2-5.5q6.5-2.4 9.4-6.2a14.8 14.8 0 002.8-9.6v-3.5l-10.6 3.8a16.3 16.3 0 01-.2 2.7zM195.2 78.4l.6 39.2 10.6-3.9-.6-39.1zM248 62q-2.9-1.7-9.4.7L223.5 68q-6.6 2.4-9.5 6.2a15 15 0 00-2.7 9.6l.3 16.6c0 3.8 1 6.3 3 7.4s5 1 9.4-.6l15.2-5.5q6.5-2.3 9.4-6.2a14.9 14.9 0 002.8-9.5l-.3-16.6c0-3.8-1.1-6.3-3-7.5zm-7.2 24.2a13.5 13.5 0 01-.2 2.8 5.7 5.7 0 01-.9 2.2 6.6 6.6 0 01-1.8 1.8 14.3 14.3 0 01-3 1.5l-6.8 2.4a10.7 10.7 0 01-3 .8 2.8 2.8 0 01-1.9-.5 2.6 2.6 0 01-.9-1.5 13 13 0 01-.2-2.6l-.2-9.4a8.7 8.7 0 011-4.9q1.2-1.9 5-3.2l6.6-2.5a10.7 10.7 0 013-.7 2.8 2.8 0 012 .4 2.7 2.7 0 01.9 1.6 13.3 13.3 0 01.3 2.5z" class="cls-5"/></g></g></svg>