<svg xmlns="http://www.w3.org/2000/svg" viewBox="0 0 298.2 254.5"><defs/><defs><style>.cls-2{fill:#fff}.cls-3{fill:#440097}</style></defs><g id="Capa_2" data-name="Capa 2"><g id="Capa_1-2" data-name="Capa 1"><path fill="#3bfe4d" d="M296.6 184.5L223 253.2a4.9 4.9 0 01-6.7 0l-73.6-68.7a5 5 0 013.4-8.5h24.5v-35.8l98.1-34V176h24.5a4.9 4.9 0 013.4 8.5z"/><path d="M205.5 171.3a13.8 13.8 0 1113.9-13.9 13.9 13.9 0 01-13.9 13.9zm0-18.5a4.6 4.6 0 104.7 4.6 4.6 4.6 0 00-4.7-4.6zM233.3 208.2a13.9 13.9 0 1113.8-13.8 13.9 13.9 0 01-13.8 13.8zm0-18.5a4.6 4.6 0 104.6 4.7 4.6 4.6 0 00-4.7-4.7zM196.3 208.2a4.6 4.6 0 01-3.5-7.6l46.1-55.4a4.6 4.6 0 117.1 6L200 206.4a4.6 4.6 0 01-3.6 1.7z" class="cls-2"/><path d="M20.1 117.6l28.4-9.7v10.8L15 130q-8 2.7-11.5.5t-3.5-9v-20.1A18 18 0 013.6 90q3.6-4.6 11.6-7.3l33.5-11.4V82l-28.5 9.6q-4.5 1.6-6 3.9a10.5 10.5 0 00-1.3 5.9v11.3a15.5 15.5 0 00.2 3.1 3.2 3.2 0 001 1.9 3.3 3.3 0 002.2.6 13.2 13.2 0 003.8-.8zM91 57l12.8-4.4-.1 17.4a18.1 18.1 0 01-3.6 11.5q-3.5 4.5-11.5 7.2l-2.8 1V106l-13 4.4L73 94l-2.8 1q-8 2.7-11.5.6t-3.5-9.1l.1-17.4 12.9-4.4-.1 13a15.3 15.3 0 00.3 3.1 3.2 3.2 0 001 2 3.3 3.3 0 002.2.5 13.4 13.4 0 003.7-.8l8.2-2.8a17.3 17.3 0 003.8-1.7 8.1 8.1 0 002.2-2.1 6.9 6.9 0 001.2-2.6 19 19 0 00.3-3.4zM158.8 66.6v1.7a24.8 24.8 0 01-.8 6.1 13.7 13.7 0 01-2.5 4.9A16.5 16.5 0 01151 83a33.9 33.9 0 01-6.7 3l-34.2 11.7.2-47.4 34.3-11.7q7.9-2.7 11-.7t3.2 8.8v1.7a13.6 13.6 0 01-1.1 5.3 29 29 0 01-2.7 5 8.7 8.7 0 012.7 3.1 9.7 9.7 0 011 4.7zm-19.3 2.7L123 75l-.1 7.7 16.4-5.6 3.1-1.2a8.3 8.3 0 002-1.1 3.5 3.5 0 001-1.5 5.8 5.8 0 00.4-2 6.2 6.2 0 00-.2-2.1 1.4 1.4 0 00-1.7-1 22.2 22.2 0 00-4.5 1.2zm0-18.1L123 56.8V64l16.4-5.5 3.1-1.2a7.3 7.3 0 002-1.1 3.4 3.4 0 001-1.4 5.8 5.8 0 00.3-2 8 8 0 00-.2-2.1 1.1 1.1 0 00-.9-.9 4.8 4.8 0 00-2 .2l-3.3 1.1zM213.8 62.5L180.3 74q-8 2.7-11.5.6t-3.5-9.1V45.3a18 18 0 013.6-11.5q3.6-4.6 11.6-7.3L214 15.1V26l-28.5 9.7c-3 1-5 2.3-6 3.8a10.4 10.4 0 00-1.3 6l35.6-12.1V44l-35.6 12v.5a15.5 15.5 0 00.2 3.1 3.2 3.2 0 001 2 3.2 3.2 0 002.3.5 13.3 13.3 0 003.7-.8l28.4-9.6zM255.7 31.9l13.8 11.7-14.4 4.9-14-11.6-7.8 2.7v16.3l-13 4.4.2-47.4L254 1.5q8-2.7 11.5-.5t3.5 9.1v3.7a19 19 0 01-3 11q-3 4.3-10.3 7zm-6-18.1l-16.4 5.5v9.4l16.4-5.6a25 25 0 003.1-1.2 7 7 0 002-1.4 4.4 4.4 0 001-1.8 9.5 9.5 0 00.3-2.4 10.1 10.1 0 00-.1-2.4 1.5 1.5 0 00-1-1.1 3.8 3.8 0 00-2 0 34 34 0 00-3.3 1zM45.8 140.3c0-4.3-1.1-7.1-3.3-8.5s-5.8-1.1-10.7.6L.5 143l-.1 30.6v13.7l12-4.1v-15.4l19.3-6.6q7.4-2.5 10.8-6.8a16.9 16.9 0 003.3-10.7zm-12 5.9a8.9 8.9 0 01-.3 2.2 4 4 0 01-.9 1.7 6.4 6.4 0 01-1.8 1.3 22.3 22.3 0 01-3 1.2l-15.3 5.2V149l15.3-5.2a30.1 30.1 0 013.1-.9 3.6 3.6 0 011.9 0 1.4 1.4 0 01.9 1 9.4 9.4 0 010 2.3zM96.4 153l-11.6-9.8q6.8-2.6 9.6-6.7a15.1 15.1 0 002-4 20.9 20.9 0 001-6.3v-3.4c0-4.3-1.2-7.2-3.4-8.5-2-1.2-5-1.2-9.4.1l-1.3.4L52 125.5l-.1 44.3 12-4.1v-15.3l7.3-2.5 13.1 10.8 12-4.1 1.4-.5zM84 132.5a6.4 6.4 0 01-1.8 1.3 22.3 22.3 0 01-3 1.2l-15.4 5.2v-8.7l15.4-5.3a29.4 29.4 0 013-.9 3.4 3.4 0 012 0 1.4 1.4 0 01.8 1 9.5 9.5 0 01.2 2.3 8.7 8.7 0 01-.3 2.2 4 4 0 01-.9 1.7zM116.5 115.2c.9-1.4 2.7-2.6 5.6-3.6l26.5-9V92.4L117.3 103q-7.4 2.6-10.8 6.9a17 17 0 00-3.3 10.7v18.8c0 4.3 1 7.2 3.3 8.5s5.7 1.1 10.7-.5l31.3-10.7v-10.1l-26.5 9a12.4 12.4 0 01-3.5.8 3.1 3.1 0 01-2-.5 3 3 0 01-1-1.8 15 15 0 01-.3-3v-.3l33.3-11.4v-10l-33.3 11.3a9.8 9.8 0 011.3-5.6zM187.7 109.6a6 6 0 01-1 2.4 8 8 0 01-2.1 2 15.2 15.2 0 01-3.5 1.5l-7.6 2.7a12.4 12.4 0 01-3.6.7 3 3 0 01-2-.5 3 3 0 01-1-1.8 15 15 0 01-.3-3l.1-10.5a9.8 9.8 0 011.3-5.5c.9-1.4 2.7-2.6 5.6-3.6l7.6-2.6a12.3 12.3 0 013.5-.8 3.4 3.4 0 012.1.5 2.8 2.8 0 011 1.8 12.6 12.6 0 01.2 2.9l12-4.1v-4c0-4.4-1-7.2-3.2-8.5s-5.8-1.2-10.8.5l-17.2 5.9q-7.5 2.5-10.8 6.8a17 17 0 00-3.4 10.7V122q0 6.5 3.3 8.5t10.7-.5L186 124q7.5-2.5 10.8-6.8a16.8 16.8 0 003.3-10.8v-4l-12 4.1a17.7 17.7 0 01-.3 3zM206.2 72.8L206 117l12-4.1.2-44.3zM266.3 55.4q-3.3-2-10.7.5l-17.2 5.9q-7.5 2.5-10.8 6.8a17 17 0 00-3.4 10.8V98c0 4.4 1.1 7.2 3.3 8.5s5.8 1.2 10.7-.5l17.3-5.9q7.4-2.5 10.8-6.8a16.9 16.9 0 003.3-10.8V64c0-4.4-1-7.2-3.3-8.5zm-8.8 27.2a16 16 0 01-.2 3.1 6.4 6.4 0 01-1 2.5 7.5 7.5 0 01-2.1 2 15.8 15.8 0 01-3.5 1.6l-7.7 2.6a12.4 12.4 0 01-3.5.8 3 3 0 01-2-.6 3 3 0 01-1-1.7 14.2 14.2 0 01-.3-3V79.4a9.8 9.8 0 011.3-5.6c.9-1.4 2.7-2.6 5.6-3.6l7.6-2.6a12.3 12.3 0 013.5-.7 3.1 3.1 0 012 .5 3 3 0 011 1.8 15.3 15.3 0 01.4 2.9z" class="cls-3"/></g></g></svg>