<svg xmlns="http://www.w3.org/2000/svg" viewBox="0 0 296.8 255.9"><defs/><defs><style>.cls-5{fill:#5600a8}.cls-3{stroke:#ccc;stroke-width:2px}.cls-3,.cls-4,.cls-5{stroke-miterlimit:10}.cls-3,.cls-4{fill:#fff}.cls-4{stroke:#4a00b5}.cls-5{stroke:#1b1464;stroke-width:.5px}</style></defs><g id="Capa_2" data-name="Capa 2"><g id="Capa_1-2" data-name="Capa 1"><path fill="#5600a8" stroke="#ccc" stroke-miterlimit="10" stroke-width="2" d="M276.1 184l-74.5 69.5a5 5 0 01-6.8 0L120.3 184a5 5 0 013.4-8.6h24.9v-36.3l99.3-34.3v70.6h24.8a5 5 0 013.4 8.6z"/><path fill="#00ff0c" d="M296.8 52.8a51.5 51.5 0 01-33.1 47.8L1.6 193 0 100.7C.3 91.2 6 83 14.4 80L234.3 2.6c25.1-8.9 52 5.9 60.2 33a55 55 0 012.3 17.2z" opacity=".8"/><path d="M184 172.6a14 14 0 1114-14 14 14 0 01-14 14zm0-18.7a4.7 4.7 0 104.6 4.7 4.7 4.7 0 00-4.7-4.7zM212 210a14 14 0 1114-14 14 14 0 01-14 14zm0-18.7a4.7 4.7 0 104.7 4.7 4.7 4.7 0 00-4.7-4.7zM174.6 210a4.7 4.7 0 01-3.6-7.7l46.7-56a4.7 4.7 0 117.2 6l-46.8 56a4.6 4.6 0 01-3.5 1.7z" class="cls-3"/><path d="M30 116.8l25-9 .1 9.5L25.6 128q-7 2.5-10.1.7t-3.3-8l-.3-17.8a16 16 0 013-10.2Q18 88.6 25 86l29.4-10.7.1 9.5L29.6 94c-2.7 1-4.4 2.1-5.2 3.5a9.3 9.3 0 00-1 5.2v10a13 13 0 00.3 2.8 2.8 2.8 0 001 1.7 3 3 0 002 .5 12 12 0 003.3-.9zM91.5 62l11.3-4.1.2 15.4a16 16 0 01-3 10.2q-3 4-10 6.6l-2.5.9.3 14.5-11.3 4-.3-14.4-2.4.9q-7 2.5-10.2.7c-2.1-1.2-3.2-3.9-3.3-8l-.2-15.4 11.3-4.1.2 11.5a13.8 13.8 0 00.3 2.8 2.8 2.8 0 001 1.6 3 3 0 002 .5 12 12 0 003.3-.8l7.2-2.6a14.3 14.3 0 003.2-1.6 7 7 0 002-1.9 6 6 0 001-2.3 16.4 16.4 0 00.2-3zM151.6 69.3v1.4a21.6 21.6 0 01-.6 5.5 12.2 12.2 0 01-2 4.4 14.7 14.7 0 01-4 3.4 30.4 30.4 0 01-5.8 2.8l-30 10.9-.7-42 30-10.8q7-2.6 9.9-.9c1.9 1.2 2.9 3.7 3 7.8v1.4a12 12 0 01-1 4.7 26.2 26.2 0 01-2.2 4.5 7.6 7.6 0 012.4 2.8 8.6 8.6 0 011 4.1zm-17 2.8l-14.4 5.2.1 6.8 14.4-5.2q1.7-.6 2.8-1.2a7.2 7.2 0 001.7-1 3 3 0 00.9-1.3 5.2 5.2 0 00.3-1.8 5.4 5.4 0 00-.3-1.9 1.3 1.3 0 00-1.5-.8 21.3 21.3 0 00-4 1.2zm-.2-16L120 61.3v6.5l14.4-5.2 2.8-1.1a6.5 6.5 0 001.8-1 3 3 0 00.8-1.3 5.2 5.2 0 00.3-1.7 7.2 7.2 0 00-.2-1.9 1 1 0 00-.8-.7 4.1 4.1 0 00-1.8.2c-.8.1-1.7.5-3 .9zM200.2 64.7l-29.4 10.7q-7 2.5-10.2.7c-2-1.3-3.1-4-3.2-8l-.4-17.8a16 16 0 013-10.2q3.1-4.1 10.1-6.6l29.4-10.7.1 9.5-24.9 9c-2.6 1-4.4 2.2-5.2 3.5a9 9 0 00-1 5.2l31.2-11.2.2 9.5-31.3 11.4v.4a13.2 13.2 0 00.3 2.8 2.8 2.8 0 001 1.6 3 3 0 002 .5 12.2 12.2 0 003.3-.8l24.9-9zM236.7 36.9L249 47l-12.6 4.6-12.6-10L217 44l.2 14.4-11.3 4.1-.6-41.9L234.7 10q7-2.5 10.1-.6t3.3 8v3.2a16.9 16.9 0 01-2.5 9.8q-2.6 3.9-9 6.5zM231 21l-14.4 5.2.2 8.3 14.3-5.2a23 23 0 002.8-1.2 6.2 6.2 0 001.7-1.3 3.8 3.8 0 00.9-1.6 8.7 8.7 0 00.2-2.1 8.6 8.6 0 00-.2-2.1 1.3 1.3 0 00-.8-1 3.3 3.3 0 00-1.8 0 26.3 26.3 0 00-3 1z" class="cls-4"/><path d="M52 135.7c0-3.8-1-6.3-3-7.4s-5-1-9.4.6l-27.5 10 .4 27.1.1 12 10.6-3.8-.2-13.6 17-6.1a20 20 0 009.4-6.2 15 15 0 002.8-9.6zm-10.5 5.4a7.7 7.7 0 01-.2 2 3.4 3.4 0 01-.8 1.5 5.8 5.8 0 01-1.6 1.2 18.6 18.6 0 01-2.6 1l-13.4 5-.2-7.8 13.5-4.9a24.7 24.7 0 012.7-.8 3.4 3.4 0 011.6 0 1.3 1.3 0 01.8.8 8.1 8.1 0 01.2 2zM97 146l-10.4-8.4c4-1.6 6.8-3.7 8.4-6.1a13.2 13.2 0 001.7-3.6 18.5 18.5 0 00.7-5.5l-.1-3q-.1-5.8-3-7.5c-1.8-1-4.6-1-8.3.3-.4 0-.8.2-1.2.4l-27.5 10 .6 39.1 10.6-3.8-.2-13.5 6.3-2.4 11.8 9.3 10.6-3.8 1.2-.5zm-11.3-17.8a5.9 5.9 0 01-1.6 1.2 20 20 0 01-2.6 1l-13.4 5-.2-7.8 13.5-4.9a25.2 25.2 0 012.7-.8 3 3 0 011.7-.1 1.2 1.2 0 01.7.9 8.8 8.8 0 01.2 2 7.9 7.9 0 01-.2 2 3.6 3.6 0 01-.8 1.5zM114.2 112.3c.7-1.2 2.3-2.3 4.8-3.2l23.3-8.5v-8.9l-27.6 10q-6.5 2.4-9.4 6.2a15 15 0 00-2.8 9.6l.3 16.6c0 3.8 1 6.3 3 7.4s5.1 1 9.5-.6l27.5-10-.2-9-23.3 8.5a11.2 11.2 0 01-3 .8 2.4 2.4 0 01-2.8-2 13.6 13.6 0 01-.3-2.6v-.4l29.3-10.6-.1-8.9-28.8 10.3-.5.2a8.7 8.7 0 011-4.9zM177 106.2a5.4 5.4 0 01-.9 2.2 7 7 0 01-1.8 1.7 12.8 12.8 0 01-3 1.5l-6.7 2.4a10.7 10.7 0 01-3.1.8 2.7 2.7 0 01-1.9-.5 2.7 2.7 0 01-.9-1.5 13.7 13.7 0 01-.2-2.6l-.1-9.4a8.7 8.7 0 011-4.9c.7-1.3 2.3-2.3 4.8-3.2l6.8-2.4a10.7 10.7 0 013-.8 3 3 0 012 .4 2.5 2.5 0 01.9 1.6 11.2 11.2 0 01.2 2.5l10.6-3.8v-3.6q-.2-5.7-3-7.4t-9.6.6L160 85.3q-6.5 2.4-9.4 6.2a15 15 0 00-2.8 9.6l.3 16.6c0 3.8 1 6.3 3 7.4s5.1 1 9.5-.6l15.2-5.5q6.5-2.4 9.4-6.2a14.9 14.9 0 002.8-9.6l-.1-3.5-10.6 3.8a15.3 15.3 0 01-.2 2.7zM192.8 73.4l.6 39.2 10.6-3.9-.6-39.2zM245.7 57q-3-1.7-9.5.7L221 63.1q-6.5 2.3-9.4 6.2a15 15 0 00-2.8 9.5l.3 16.6c0 3.8 1 6.3 3 7.5s5.1 1 9.5-.7l15.1-5.4q6.5-2.4 9.4-6.3a14.9 14.9 0 002.9-9.5l-.3-16.6c0-3.8-1.1-6.3-3-7.5zm-7.4 24.2a14.3 14.3 0 01-.2 2.8 5.8 5.8 0 01-.8 2.2 6.7 6.7 0 01-1.9 1.8 13.8 13.8 0 01-3 1.5l-6.7 2.4a10.7 10.7 0 01-3 .8 2.7 2.7 0 01-2-.5 2.6 2.6 0 01-.8-1.5 12.3 12.3 0 01-.3-2.6v-9.4a8.6 8.6 0 011-4.9q1-1.9 4.8-3.2L232 68a10.7 10.7 0 013-.7 2.4 2.4 0 012.8 2 14.2 14.2 0 01.3 2.5z" class="cls-5"/></g></g></svg>