<svg xmlns="http://www.w3.org/2000/svg" viewBox="0 0 271 210.8"><defs/><defs><style>.cls-2{fill:#5600a8}.cls-3{fill:#fff}</style></defs><g id="Capa_2" data-name="Capa 2"><g id="Capa_1-2" data-name="Capa 1"><path fill="#00ff0c" d="M271 43.9a43.9 43.9 0 01-29.3 41.4L0 170.9V91.3a19.1 19.1 0 0112.8-18L212.4 2.5A44 44 0 01271 44z" opacity=".6"/><path d="M254.5 153.5l-60.2 56.2a4 4 0 01-2.8 1 4 4 0 01-2.7-1l-60.2-56.2a4 4 0 012.7-7h20.1v-29.2l80.3-27.8v57h20a4 4 0 012.8 7z" class="cls-2"/><path d="M180 142.7a11.3 11.3 0 1111.3-11.3 11.3 11.3 0 01-11.3 11.3zm0-15.1a3.8 3.8 0 103.8 3.8 3.8 3.8 0 00-3.8-3.8zM202.7 173a11.3 11.3 0 1111.3-11.4 11.3 11.3 0 01-11.3 11.3zm0-15.2a3.8 3.8 0 103.7 3.8 3.8 3.8 0 00-3.8-3.8zM172.4 173a3.7 3.7 0 01-2.4-1 3.8 3.8 0 01-.5-5.3l37.8-45.3a3.8 3.8 0 115.8 4.8l-37.8 45.3a3.8 3.8 0 01-2.9 1.4zM29.1 104.6l23.1-8.3.2 8.8-27.2 9.9q-6.5 2.4-9.4.7c-2-1.2-3-3.6-3-7.4l-.3-16.5a14.8 14.8 0 012.7-9.4q2.9-3.8 9.4-6.2l27.2-9.9v8.8l-23 8.4c-2.4.9-4 2-4.8 3.2a8.6 8.6 0 00-1 4.9l.1 9.2a12 12 0 00.3 2.6 2.5 2.5 0 00.9 1.5 2.7 2.7 0 001.8.5 10.8 10.8 0 003-.8zM86 53.9L96.6 50l.2 14.2a14.8 14.8 0 01-2.7 9.5q-2.8 3.8-9.3 6.1l-2.3.8.2 13.4L72.2 98 72 84.5l-2.3.9q-6.5 2.3-9.4.6c-2-1.1-3-3.6-3-7.4l-.2-14.2 10.5-3.8.1 10.6a12 12 0 00.3 2.6 2.6 2.6 0 00.9 1.5 2.7 2.7 0 001.8.5 10.8 10.8 0 003-.8l6.7-2.4a13.5 13.5 0 003-1.5 6.8 6.8 0 001.8-1.7 5.7 5.7 0 00.8-2.2 15 15 0 00.2-2.7zM141.7 60.7V62a20.5 20.5 0 01-.5 5 11.3 11.3 0 01-2 4 13.5 13.5 0 01-3.5 3.2 27.2 27.2 0 01-5.5 2.6l-27.8 10.1-.6-38.7L129.6 38q6.5-2.4 9.1-.8t2.8 7.2v1.3a11.1 11.1 0 01-.9 4.4 24.5 24.5 0 01-2.1 4.1 7 7 0 012.2 2.6 7.8 7.8 0 011 3.8zM126 63.2L112.7 68v6.3l13.3-4.8 2.5-1a6.3 6.3 0 001.7-1 3 3 0 00.8-1.2 4.8 4.8 0 00.2-1.6 5 5 0 00-.2-1.8 1.2 1.2 0 00-1.4-.7 18.4 18.4 0 00-3.6 1zm-.3-14.8l-13.3 4.8v6l13.4-4.8 2.6-1a6.1 6.1 0 001.6-1 3 3 0 00.8-1.1 5 5 0 00.2-1.6 6.8 6.8 0 00-.2-1.8 1 1 0 00-.7-.7 3.8 3.8 0 00-1.6.2l-2.8 1zM186.7 56.4l-27.3 9.9q-6.4 2.3-9.4.6c-1.9-1.1-2.9-3.6-3-7.4l-.3-16.4a14.8 14.8 0 012.8-9.5q2.9-3.8 9.3-6.1l27.3-9.9v8.9l-23 8.3c-2.5 1-4 2-4.8 3.3a8.6 8.6 0 00-1 4.8v.1l29-10.5.1 8.8-29 10.5v.3a12 12 0 00.3 2.6 2.5 2.5 0 00.9 1.5 2.7 2.7 0 001.8.5 11.2 11.2 0 003-.7l23.1-8.4zM220.4 30.6L232 40l-11.7 4.2-11.6-9.2-6.4 2.3.2 13.4-10.4 3.8-.6-38.8 27.2-9.9q6.5-2.3 9.4-.6c2 1.1 3 3.6 3 7.4v3a15.5 15.5 0 01-2.3 9q-2.4 3.7-8.3 6zM215.2 16L202 20.8l.2 7.6 13.3-4.8a20.8 20.8 0 002.5-1 5.6 5.6 0 001.6-1.3 3.3 3.3 0 00.8-1.4 7.6 7.6 0 00.2-2 7.5 7.5 0 00-.2-2 1.2 1.2 0 00-.7-1 3 3 0 00-1.7.1 25 25 0 00-2.7 1z" class="cls-3"/><path d="M49.6 120.7c0-3.5-1-5.8-2.8-6.9s-4.7-.8-8.8.6l-25.4 9.2.4 25.1.2 11.2 9.7-3.6-.2-12.5 15.7-5.7q6-2.2 8.7-5.7a13.8 13.8 0 002.6-8.9zm-9.8 5a7 7 0 01-.1 1.8 3.3 3.3 0 01-.8 1.4 5.3 5.3 0 01-1.5 1A17.3 17.3 0 0135 131l-12.4 4.5-.2-7.2 12.5-4.5a24.7 24.7 0 012.5-.8 3 3 0 011.6 0 1.1 1.1 0 01.7.8 7.5 7.5 0 01.1 1.9zM91.2 130.3l-9.6-7.9q5.5-2.2 7.7-5.6a12.2 12.2 0 001.6-3.3 17.1 17.1 0 00.6-5.1v-2.8c-.1-3.6-1-5.9-2.9-7-1.6-1-4.2-.8-7.7.3l-1 .3-25.5 9.3.6 36.2 9.8-3.5-.2-12.5 6-2.2 10.8 8.6 9.8-3.5 1.1-.4zm-10.5-16.6a5.4 5.4 0 01-1.4 1.1 19.4 19.4 0 01-2.4 1l-12.5 4.5-.1-7.1 12.4-4.5a24 24 0 012.6-.8 2.9 2.9 0 011.5 0 1.1 1.1 0 01.7.7 7.6 7.6 0 01.2 2 7.3 7.3 0 01-.2 1.7 3.4 3.4 0 01-.8 1.4zM107 99q1.1-1.7 4.6-3l21.5-7.7-.1-8.3-25.4 9.2q-6.1 2.2-8.8 5.8a13.8 13.8 0 00-2.5 8.8l.2 15.4c.1 3.5 1 5.8 2.9 6.8s4.7 1 8.7-.5l25.5-9.3-.2-8.2-21.6 7.8a10.2 10.2 0 01-2.8.7 2.5 2.5 0 01-1.7-.4 2.4 2.4 0 01-.8-1.4 12.7 12.7 0 01-.3-2.5v-.3l27.1-9.8-.1-8.2-27.1 9.8a8.1 8.1 0 011-4.6zM165.3 93.4a5 5 0 01-.9 2 6.5 6.5 0 01-1.7 1.6 12.5 12.5 0 01-2.8 1.4l-6.2 2.3a10.1 10.1 0 01-2.9.7 2.5 2.5 0 01-1.7-.5 2.4 2.4 0 01-.8-1.4 12.7 12.7 0 01-.2-2.4l-.1-8.6a8 8 0 011-4.6c.6-1.2 2.1-2.2 4.4-3l6.3-2.2a10.1 10.1 0 012.8-.7 2.8 2.8 0 011.7.4 2.2 2.2 0 01.9 1.4 10.3 10.3 0 01.2 2.3l9.8-3.5-.1-3.3q-.1-5.3-2.8-7t-8.8.7l-14 5q-6 2.3-8.7 5.8a13.8 13.8 0 00-2.6 8.9l.3 15.3q0 5.3 2.8 7c1.8 1 4.7.8 8.8-.7l14-5q6-2.2 8.7-5.8a13.8 13.8 0 002.6-8.8l-.1-3.4-9.8 3.6a15 15 0 01-.2 2.5zM179.8 63l.5 36.3 9.9-3.6-.6-36.2zM228.7 47.9q-2.7-1.6-8.7.6l-14 5c-4 1.5-7 3.5-8.8 5.8a13.9 13.9 0 00-2.6 8.9l.3 15.3c.1 3.5 1 5.9 2.8 7s4.8.8 8.8-.7l14-5q6-2.2 8.7-5.8a13.8 13.8 0 002.6-8.8l-.3-15.4c0-3.5-1-5.8-2.8-6.9zM222 70.3a13.2 13.2 0 01-.2 2.6 5.3 5.3 0 01-.8 2 6.2 6.2 0 01-1.7 1.6 12.6 12.6 0 01-2.8 1.4l-6.2 2.3a10.2 10.2 0 01-2.9.6 2.5 2.5 0 01-1.7-.4 2.4 2.4 0 01-.8-1.4 12 12 0 01-.2-2.4l-.2-8.6a8 8 0 011-4.6c.6-1.1 2.1-2.1 4.4-3l6.3-2.2a10.2 10.2 0 012.8-.7 2.6 2.6 0 011.7.4 2.5 2.5 0 01.9 1.5 12.3 12.3 0 01.2 2.3z" class="cls-2"/></g></g></svg>