<svg xmlns="http://www.w3.org/2000/svg" viewBox="0 0 512 512"><defs></defs><path d="M256 512a15 15 0 01-5.3-1 304.9 304.9 0 01-134.9-100 392.9 392.9 0 01-64.4-130.3 531.4 531.4 0 01-21.3-161 15 15 0 018.3-12.7L249.3 1.6a15 15 0 0113.4 0L473.6 107a15 15 0 018.3 12.7c.1 3 3.6 76.1-21.3 161A392.9 392.9 0 01396.2 411a304.9 304.9 0 01-134.9 100 15 15 0 01-5.3 1z" style="" fill="#b1bacc"></path><path d="M473.6 107L262.7 1.6A15 15 0 00256 0v512a15 15 0 005.3-1 304.9 304.9 0 00134.9-100c28-36.2 49.6-80 64.4-130.3a531.4 531.4 0 0021.3-161 15 15 0 00-8.3-12.7z" style="" fill="#7e8491"></path><path d="M256 446.6a15 15 0 01-6.6-1.5c-66.8-33-113.7-93-139.5-178.1A489.7 489.7 0 0191 158a15 15 0 018.2-14.3l150.2-75.1a15 15 0 0113.4 0l150.2 75a15 15 0 018.3 14.4A489.7 489.7 0 01402 267c-25.8 85.1-72.7 145-139.5 178a15 15 0 01-6.6 1.6z" fill="#7200ff"></path><path d="M413 143.8L262.6 68.7A15 15 0 00256 67v379.5a15 15 0 006.6-1.5c66.8-33 113.7-93 139.5-178.1A489.8 489.8 0 00421 158a15 15 0 00-8.2-14.3z" fill="#5200b7"></path></svg>