<svg xmlns="http://www.w3.org/2000/svg" width="256" height="256" display="block" preserveAspectRatio="xMidYMid" viewBox="0 0 100 100" style="margin:auto;background:0% 0%;animation-play-state:running;animation-delay:0s"><defs/><rect style="animation-play-state:running;animation-delay:0s" width="3" height="9" x="48.5" y="26.5" fill="#01f603" rx="0" ry="0"><animate attributeName="opacity" begin="-0.8571428571428571s" dur="1s" keyTimes="0;1" repeatCount="indefinite" values="1;0"/></rect><rect style="animation-play-state:running;animation-delay:0s" width="3" height="9" x="48.5" y="26.5" fill="#01f603" rx="0" ry="0" transform="rotate(51.429 50 50)"><animate attributeName="opacity" begin="-0.7142857142857143s" dur="1s" keyTimes="0;1" repeatCount="indefinite" values="1;0"/></rect><rect style="animation-play-state:running;animation-delay:0s" width="3" height="9" x="48.5" y="26.5" fill="#01f603" rx="0" ry="0" transform="rotate(102.857 50 50)"><animate attributeName="opacity" begin="-0.5714285714285714s" dur="1s" keyTimes="0;1" repeatCount="indefinite" values="1;0"/></rect><rect style="animation-play-state:running;animation-delay:0s" width="3" height="9" x="48.5" y="26.5" fill="#01f603" rx="0" ry="0" transform="rotate(154.286 50 50)"><animate attributeName="opacity" begin="-0.42857142857142855s" dur="1s" keyTimes="0;1" repeatCount="indefinite" values="1;0"/></rect><rect style="animation-play-state:running;animation-delay:0s" width="3" height="9" x="48.5" y="26.5" fill="#01f603" rx="0" ry="0" transform="rotate(205.714 50 50)"><animate attributeName="opacity" begin="-0.2857142857142857s" dur="1s" keyTimes="0;1" repeatCount="indefinite" values="1;0"/></rect><rect style="animation-play-state:running;animation-delay:0s" width="3" height="9" x="48.5" y="26.5" fill="#01f603" rx="0" ry="0" transform="rotate(257.143 50 50)"><animate attributeName="opacity" begin="-0.14285714285714285s" dur="1s" keyTimes="0;1" repeatCount="indefinite" values="1;0"/></rect><rect style="animation-play-state:running;animation-delay:0s" width="3" height="9" x="48.5" y="26.5" fill="#01f603" rx="0" ry="0" transform="rotate(308.571 50 50)"><animate attributeName="opacity" begin="0s" dur="1s" keyTimes="0;1" repeatCount="indefinite" values="1;0"/></rect></svg>