<svg style="fill: #7e7e83;" xmlns="http://www.w3.org/2000/svg" viewBox="0 0 512 479.87" xmlns:v="https://vecta.io/nano"><defs><clipPath id="A"><path d="M0 0h512v480H0z" fill="none"></path></clipPath></defs><g clip-path="url(#A)"><path d="M376.5 288.52h-80.33a15 15 0 0 0-15 15v81a15 15 0 0 0 15 15h80.33a15 15 0 0 0 15-15v-81a15 15 0 0 0-15-15zm-15 81h-50.33v-51h50.33zm149.92-246.17l-21.1-73.85C482.4 21.74 453.57 0 424.7 0H87.3C58.43 0 29.6 21.74 21.68 49.5L.58 123.35a14.7 14.7 0 0 0-.58 4.12v48.2a63.29 63.29 0 0 0 40.17 58.84v190.2a55.23 55.23 0 0 0 55.17 55.17h321.33a55.23 55.23 0 0 0 55.17-55.17V234.5A63.3 63.3 0 0 0 512 175.66v-48.2a15.07 15.07 0 0 0-.58-4.12zm-460.9-65.6C54.75 43 71.93 30 87.3 30h337.4c15.37 0 32.55 13 36.78 27.75l15.63 54.72H34.9zm75.88 84.72h66.4v33.2a33.2 33.2 0 1 1-66.4 0zm96.4 0h66.4v33.2a33.2 33.2 0 1 1-66.4 0zm96.4 0h66.4v33.2a33.2 33.2 0 1 1-66.4 0zM30 175.66v-33.2h66.4v33.2a33.2 33.2 0 1 1-66.4 0zm120.5 274.2v-90.5h50.34v90.5zm266.17 0H230.84v-105.5a15 15 0 0 0-15-15H135.5a15 15 0 0 0-15 15v105.5H95.34a25.2 25.2 0 0 1-25.17-25.17v-186.2a63.17 63.17 0 0 0 41.23-22 63.08 63.08 0 0 0 96.4 0 63.08 63.08 0 0 0 96.4 0 63.08 63.08 0 0 0 96.4 0 63.17 63.17 0 0 0 41.23 22V424.7a25.19 25.19 0 0 1-25.16 25.17zm32.13-241a33.24 33.24 0 0 1-33.2-33.2v-33.2H482v33.2a33.25 33.25 0 0 1-33.2 33.2z"></path></g></svg>