<svg version="1.1" id="Capa_1" text-rendering="geometricPrecision" shape-rendering="geometricPrecision" image-rendering="optimizeQuality" xmlns="http://www.w3.org/2000/svg" x="0" y="0" viewBox="0 0 127.8 127.2" xml:space="preserve"><style>.st0,.st1{fill-rule:evenodd;clip-rule:evenodd;fill:#604688}.st1{fill:#008fcf}</style><path class="st0" d="M84.6 84.5l-.1.3v.2l-.1.1c-.2 1.3-1.5 3.9-2.2 4.9-3.4 5.1-10.2 6.1-15.6 4.3-7-2.4-8.7-10.7-8.8-19.4-.2-8.8 1.7-17.3 8.3-19.9 3.6-1.4 8.6-1.3 11.9.4 3.1 1.5 4.9 4.3 6.2 8 .2.2 1.8 2.3 4.3.9 3.5-1.9.6-14-10.9-17.9-8-2.7-13.4 2.3-15.5 1.6-.9-.3-.9-1.1-.8-2.3.3-3.2 2.3-9.8 3.5-12.4.4-.8.7-1.4 1-2.1 1.4-3.2 4-6.1 2.1-9-.4-.7-1-1.1-1.7-1.5-.5-.2-1.8-.6-2.5-.5-2.3.3-4.1 2.5-5.3 4.3-3.5 5.3-5.6 12.5-6.5 18.8l-1 8.4c-.1.9-.2 2-.8 2.4-.6.4-1.5.4-1.7-1-.2-1.1 0-1.9.1-3.1 0-.7.1-.7.1-1.4 0-.6 0-1 .1-1.5l.2-2.9c.1-1.8.4-4.1.7-5.6.4-1.8.7-3.9-.4-5.3-1-1.3-2.6-2.1-4.5-1.1-3.1 1.6-4.5 7.3-4.8 11l-.4 5.8v1.5c-.2 1.7-.1 3.1-.2 4.6-.2 1.4.7 7.6-.5 8.6-.8.7-1.7 0-2-.7-.3-1.1-.2-4.7-.2-6l.6-9c.3-2.2.2-3.8-1.5-4.6-.8-.3-2-.3-2.7.1-1.9 1-2.6 4.6-2.8 6.7l-.4 4.3v1.6l-.3 6c-.3 2.4.5 9.1.9 11.6 1.1 6.6 3.7 14.1 7 18.5.3.4.4.5.7.9l4.5 4.9 4.4 3.5c1.1.7 2.9 1.9 4.1 2.3.8.3 1.3.7 2.2 1 .7.3 1.5.5 2.4.8 6.4 1.8 16.1 1.9 22.2-.3 2.9-1 5.5-2.8 7.5-5.1l2.8-3.6c1.9-3.1 3.2-5.5 3.2-9.5 0-4.6-4.6-5.1-5.9-3.5-.1.1-.2.4-.3.5l-.6.4z"/><path class="st1" d="M64.4 115.5c-9.2 0-14.3-1.4-22.1-4.6-4.9-2-11.2-6.5-15-10.3-1.9-1.9-2.8-2.9-4.4-5-6.4-8-11-19.6-11-30.3v-3.4c0-7.1 2.4-15.4 4.8-20.2.2-.4.3-.7.5-1.1l1.7-3c2.4-4.3 6.7-9.6 10.6-12.8l2.6-2.1c5.4-4.4 12.3-7.5 19-9.3 14.1-3.8 31.1-.6 42.8 8 2.8 2.1 4.3 3.3 6.9 5.8 1.1 1.1 2 2.1 3 3.3l4.6 6.4c1.3 2 2.8 5.2 3.7 7.4 3.9 9.6 4.8 21.2 2.3 31.4-1.2 4.9-3 9.4-5.4 13.6-1.2 2.1-2.3 3.8-3.8 5.8-.3.4-.4.5-.7.9-1.3 1.6-3.1 3.7-4.6 5.1l-3.4 2.9c-.3.3-.5.4-.9.7-.7.5-1.2.9-1.9 1.4-9 5.8-18.6 9.4-29.3 9.4zm-2.6 11.7c9.9 0 14.2-.7 23.2-3.7 4.4-1.5 9-3.9 12.9-6.4 3.5-2.2 4.7-3.3 7.6-5.8 1.7-1.4 4.5-4.1 5.8-5.8.3-.4.6-.6.9-1.1l1.7-2.1c1.6-2 3.4-4.7 4.6-6.9.5-.8.9-1.6 1.4-2.5 1-2 1.6-3.1 2.5-5.3 1.2-3.1 2-5.4 2.9-8.7 2.7-10.5 2.4-21.9-.4-32.3-1.8-6.7-5.4-14.6-9.6-20.1-.8-1.1-1.6-2.3-2.5-3.3-1.7-1.9-3.7-4.5-5.6-6.1l-1.6-1.4c-5-4.2-6.6-5.2-12.2-8.5-6-3.5-15.5-6.2-22.6-7-14.1-1.3-27 1.7-38.6 8.1-1.9 1.1-5.4 3.4-7.1 4.7l-7.7 7c-.6.6-.9 1-1.4 1.6-.3.3-.4.4-.7.8l-2 2.4c-1.8 2.4-4.4 6.2-5.8 8.9-.4.7-.6 1.3-1 2-2.1 4.1-3.6 8.5-4.7 13.1C-1.6 62.3 0 76.3 5.3 89c3.4 8.2 8.5 14.6 14.6 20.8.3.3.4.4.8.7l2.3 2.1c6 4.7 7.9 5.9 14.6 9.1 1.5.7 4.6 1.9 6.4 2.5 2.2.7 4.9 1.4 7.1 1.9 3.2.5 7 1.1 10.7 1.1z"/><path class="st1" d="M70.9 60.4c-2.9.4-3.8 2.6-4.4 5.5-.6 3-.5 6.3-.5 9.4 0 5.4-.2 14.2 6.5 13.4 2.8-.4 3.8-2.6 4.4-5.5.6-3 .5-6.3.5-9.5 0-5.4.1-14.3-6.5-13.3z"/><path d="M70.9 60.4c6.6-1 6.5 7.9 6.5 13.3 0 3.2 0 6.4-.5 9.5-.5 2.9-1.5 5.1-4.4 5.5-6.7.9-6.5-8-6.5-13.4 0-3.1 0-6.4.5-9.4.6-2.9 1.5-5 4.4-5.5zm13.5 24.8l.1-.1v-.3l.1-.3c0-1.2.6-2.4.6-3.7h-3.4v-7.4l-2.9-.1v-2.4c1.8-.5 3 0 3.8-3h2.5c-.2-.7-.3-1.5-.4-2.3-.2-.8-.4-1.4-.6-2.2-1.3-3.7-3.1-6.4-6.2-8-3.3-1.7-8.3-1.8-11.9-.4-6.6 2.6-8.5 11.1-8.3 19.9.2 8.8 1.9 17 8.8 19.4 5.4 1.8 12.1.8 15.6-4.3.7-.9 2-3.6 2.2-4.8z" fill-rule="evenodd" clip-rule="evenodd" fill="#fefefe"/><path class="st0" d="M89.6 68.3c0 .4 1 .2 2.3.2 0-1.6 1.7-1.3 2-1.1 1.2.9-2.1 2.2-2.5 2.5-1 .6-2 1.3-2 2.6h7.4v-1.6h-3.9c.1 0 .1-.1.2-.1 1.2-.6 3.7-1.3 3.7-2.7v-.4c0-2.5-7.2-3.1-7.2.6zm-1.4 4.2h.3v-6.8h-2c-.6 1.6-1.4 1.3-2.6 1.6v1.3h2v3.9h2.3zM92.7 78.8c1.7-.3 2.3.9.9 1.1-1.7.3-2.6-.8-.9-1.1zm.1-2.6c1.4-.2 1.8.9.6 1.1-.6.1-1.1-.1-1.3-.4-.2-.4.2-.6.7-.7zm-2.3 1.7c-.1.1-.1.1-.3.2-1 .6-1.1 1.5-.5 2.2 1.1 1.5 5.6 1.5 6.7 0 .6-.8.5-1.6-.5-2.3-.2-.1-.2-.1-.3-.2.3-.3.7-.4.8-1 .1-.5 0-.9-.3-1.3-.5-.6-1.6-1-3-1s-2.5.4-3 1c-.4.5-.5 1.2 0 1.8.1.4.3.4.4.6zM88.2 81.4h.3v-6.8h-2c-.6 1.6-1.4 1.3-2.6 1.6v1.3h2v3.8h2.3z"/></svg>