<svg xmlns="http://www.w3.org/2000/svg" viewBox="0 0 512 512" style="fill: #7e7e83;"><defs></defs><path d="M451 452H31c-9.8 0-30 20.2-30 45a15 15 0 0015 15h480a15 15 0 0015-15c0-24.8-20.2-45-60-45zM421 0H91a45 45 0 00-45 45v15h420V45a45 45 0 00-45-45zM121 360h60v62h-60zM121 300h60v30h-60zM301 300h90v60h-90zM16 165v7.5a37.5 37.5 0 1075 0V165H16zM121 165v7.5a37.5 37.5 0 0075 0V165h-75zM331 165v7.5a37.5 37.5 0 0075 0V165h-75zM436 165v7.5a37.5 37.5 0 0075 0V165h-75z"></path><path d="M421 214.4a67.1 67.1 0 01-52.5 25.6 67.1 67.1 0 01-52.5-25.6 67.1 67.1 0 01-52.5 25.6 67.1 67.1 0 01-52.5-25.6 67.1 67.1 0 01-52.5 25.6 67.1 67.1 0 01-52.5-25.6A67.1 67.1 0 0153.5 240c-2.6 0-5-.5-7.5-.8V422h45V285a15 15 0 0115-15h90a15 15 0 0115 15v137h255V239.2a67 67 0 01-45-24.8zm0 160.6c0 8.3-6.7 17-15 17H286c-8.3 0-15-8.7-15-17v-90a15 15 0 0115-15h120a15 15 0 0115 15v90zM226 165v7.5a37.5 37.5 0 0075 0V165h-75zM46 90l-30 45h75l15-45zM136 90l-15 45h75V90zM226 90h75v45h-75zM391 90h-60v45h75zM481 90h-60l15 45h75z"></path></svg>