<svg xmlns="http://www.w3.org/2000/svg" viewBox="0 0 296.8 257.9"><defs/><defs><style>.cls-1{fill:#0f0}.cls-3{fill:#fff}</style></defs><g id="Capa_2" data-name="Capa 2"><g id="Capa_1-2" data-name="Capa 1"><path d="M272.1 187l-74.5 69.5a5 5 0 01-6.8 0L116.3 187a5 5 0 013.4-8.6h24.9V143l99-35 .3 70.4h24.8a5 5 0 013.4 8.6z" class="cls-1"/><path fill="#5600a8" d="M296.8 52.8a51.5 51.5 0 01-33.1 47.8L1.6 193 0 100.7C.3 91.2 6 83 14.4 80L234.3 2.6c25.1-8.9 52 5.9 60.2 33a55 55 0 012.3 17.2z" opacity=".8"/><path d="M177.6 174.6a16.7 16.7 0 1116.6-16.7 16.7 16.7 0 01-16.6 16.7zm0-22.3a5.6 5.6 0 105.5 5.6 5.6 5.6 0 00-5.5-5.6zM210.9 219a16.7 16.7 0 1116.7-16.7 16.7 16.7 0 01-16.7 16.7zm0-22.2a5.6 5.6 0 105.5 5.5 5.6 5.6 0 00-5.5-5.5zM166.4 219a5.6 5.6 0 01-4.2-9.1l55.5-66.7a5.6 5.6 0 118.6 7.1L170.7 217a5.5 5.5 0 01-4.3 2zM46.2 108.6l22.1-7.5v8.3l-26 8.9q-6.3 2-9 .4t-2.7-7V96.2a13.9 13.9 0 012.7-8.9q2.8-3.5 9-5.6l26.1-8.9v8.3l-22 7.6q-3.6 1.1-4.7 3a8 8 0 00-1 4.5v8.7a11.7 11.7 0 00.2 2.5 2.5 2.5 0 00.8 1.4 2.6 2.6 0 001.7.5 10.7 10.7 0 002.8-.7zM101.3 61.6l10-3.4-.1 13.5a13.9 13.9 0 01-2.8 8.9q-2.7 3.5-9 5.6l-2 .8v12.6l-10 3.4V90.4l-2.2.7q-6.2 2.1-9 .5c-1.9-1.1-2.8-3.4-2.8-7V71l10-3.4v10a11.7 11.7 0 00.3 2.4 2.5 2.5 0 00.8 1.5 2.6 2.6 0 001.7.5 10.7 10.7 0 003-.7l6.3-2.2a13.5 13.5 0 002.9-1.3 6.3 6.3 0 001.8-1.6 5.3 5.3 0 00.8-2 13.1 13.1 0 00.2-2.6zM154.1 69v1.3a18.5 18.5 0 01-.6 4.7 10.6 10.6 0 01-1.9 3.8 12.7 12.7 0 01-3.5 3A26.2 26.2 0 01143 84l-26.6 9V56.5l26.7-9q6.2-2.1 8.6-.6t2.5 6.8V55a10.4 10.4 0 01-.8 4 23.2 23.2 0 01-2.2 4 6.7 6.7 0 012.2 2.4 7.4 7.4 0 01.8 3.6zm-15 2.1l-12.7 4.4v6L139 77l2.5-.9a6.2 6.2 0 001.5-.9 2.7 2.7 0 00.8-1.1 4.4 4.4 0 00.3-1.6 4.5 4.5 0 00-.2-1.6 1.1 1.1 0 00-1.3-.7 18.8 18.8 0 00-3.6.8zm0-14l-12.7 4.4V67l12.7-4.3 2.5-.9a5.9 5.9 0 001.5-.8 2.6 2.6 0 00.8-1.1 4.4 4.4 0 00.3-1.5 6 6 0 00-.2-1.7.9.9 0 00-.7-.7 3.6 3.6 0 00-1.5.2l-2.7.8zM197 65.7l-26.1 8.9q-6.2 2.1-9 .4c-1.8-1-2.7-3.4-2.7-7V52.5a13.9 13.9 0 012.8-8.9q2.8-3.5 9-5.6l26-8.9v8.4L175 45c-2.4.8-4 1.8-4.7 3a7.7 7.7 0 00-1 4.5L197 43v8.4l-27.8 9.4v.3a11.1 11.1 0 00.2 2.4 2.5 2.5 0 00.8 1.5 2.6 2.6 0 001.8.5 10.2 10.2 0 002.9-.7l22-7.5zM229.6 42l10.7 9-11.1 3.8-11-8.9L212 48v12.6l-10 3.4V27.4l26.2-8.8q6.2-2.1 8.9-.5c1.8 1.1 2.7 3.5 2.8 7V28a14.6 14.6 0 01-2.4 8.6q-2.4 3.3-8 5.5zm-4.7-14L212 32.3v7.3l12.8-4.4a18.3 18.3 0 002.4-1 5.4 5.4 0 001.6-1 3.2 3.2 0 00.7-1.4 7 7 0 00.2-1.9 7.5 7.5 0 000-1.8 1.1 1.1 0 00-.8-.9 3 3 0 00-1.6 0 26.2 26.2 0 00-2.5.8z" class="cls-3"/><path d="M68 134.2c0-3.4-1-5.5-2.7-6.5s-4.5-.9-8.3.5l-24 8.6.3 23.7.1 10.5 9.2-3.3-.2-11.8 14.8-5.4c3.9-1.3 6.6-3.1 8.3-5.4a13 13 0 002.5-8.3zm-9.3 4.6a7.2 7.2 0 01-.2 1.8 3.2 3.2 0 01-.7 1.3 5 5 0 01-1.4 1 16.5 16.5 0 01-2.2 1L42.4 148l-.1-6.8L54 137a22 22 0 012.4-.8 2.8 2.8 0 011.4 0 1 1 0 01.7.8 7.2 7.2 0 01.2 1.7zM107.1 143.3l-9-7.4q5.2-2.1 7.4-5.3a11.6 11.6 0 001.4-3.2 16.3 16.3 0 00.6-4.8V120c0-3.4-1-5.5-2.6-6.5s-4-.9-7.3.2l-1 .3-24 8.6.4 34.2 9.3-3.3-.3-11.8 5.6-2L98 148l9.2-3.4 1-.3zm-9.8-15.6a5 5 0 01-1.4 1 18 18 0 01-2.2 1l-11.8 4.2-.1-6.8 11.8-4.2a22.6 22.6 0 012.4-.8 2.6 2.6 0 011.4 0 1 1 0 01.7.8 7 7 0 01.1 1.8 6.2 6.2 0 01-.2 1.7 3 3 0 01-.7 1.3zM122.2 113.9c.7-1.1 2-2 4.3-2.8l20.3-7.3V96l-24 8.6a17.4 17.4 0 00-8.3 5.4 13 13 0 00-2.5 8.4l.3 14.5c0 3.3.9 5.5 2.6 6.5s4.5.8 8.3-.6l24-8.6-.1-7.8-20.4 7.3a9.4 9.4 0 01-2.7.7 2.4 2.4 0 01-1.6-.4 2.3 2.3 0 01-.8-1.4 11.5 11.5 0 01-.2-2.2v-.4l25.6-9.2-.1-7.7-25.2 8.9-.4.2a7.6 7.6 0 01.9-4.3zM177.1 108.7a4.8 4.8 0 01-.7 2 6.4 6.4 0 01-1.7 1.4 11.7 11.7 0 01-2.6 1.3l-5.9 2.1a9.7 9.7 0 01-2.7.7 2.4 2.4 0 01-1.6-.4 2.3 2.3 0 01-.8-1.4 12.2 12.2 0 01-.2-2.2V104a7.6 7.6 0 01.8-4.3q1-1.6 4.3-2.8l5.8-2.1a9.9 9.9 0 012.7-.7 2.7 2.7 0 011.7.4 2.1 2.1 0 01.8 1.3 10.3 10.3 0 01.2 2.3l9.2-3.3v-3.2q-.1-5-2.7-6.5c-1.7-1-4.4-.8-8.2.6l-13.3 4.7q-5.7 2-8.2 5.4a13 13 0 00-2.5 8.4l.2 14.4c.1 3.4 1 5.6 2.7 6.6s4.4.8 8.3-.6l13.2-4.7c3.8-1.4 6.5-3.2 8.2-5.4a13 13 0 002.5-8.4v-3l-9.3 3.2a14.4 14.4 0 01-.2 2.4zM191 80.1l.4 34.2 9.3-3.3-.5-34.2zM237.2 66c-1.8-1-4.5-.9-8.3.5l-13.3 4.7q-5.7 2-8.2 5.4a13 13 0 00-2.5 8.4l.3 14.5c0 3.3.9 5.5 2.6 6.5s4.5.8 8.3-.5l13.2-4.8q5.7-2 8.3-5.4A13 13 0 00240 87l-.2-14.5q0-5-2.7-6.6zm-6.5 21a11.7 11.7 0 01-.2 2.5 5 5 0 01-.7 1.9A5.8 5.8 0 01228 93a12.4 12.4 0 01-2.6 1.3l-5.9 2a9.5 9.5 0 01-2.7.7 2.4 2.4 0 01-1.6-.4 2.3 2.3 0 01-.8-1.3 11.4 11.4 0 01-.2-2.3V85a7.6 7.6 0 01.8-4.3c.7-1.1 2.1-2 4.3-2.8l5.9-2.1a9.9 9.9 0 012.6-.7 2.4 2.4 0 011.7.4 2.3 2.3 0 01.8 1.4 12.1 12.1 0 01.2 2.2z" class="cls-1"/></g></g></svg>