<svg xmlns="http://www.w3.org/2000/svg" class="svg-maximus-verde" viewBox="0 0 3129 1288"><defs/><defs><style>.cls-1{fill:#01f603}</style></defs><g id="Capa_2" data-name="Capa 2"><g id="Capa_1-2" data-name="Capa 1"><path d="M553 1271h9v6H389v-6h8a24 24 0 0017-8c5-5 7-10 6-17l-23-209-130 251h-6l-149-250-22 208c-1 7 1 12 5 18s11 7 17 7h9v6H0v-6h9c11 0 20-4 28-10s13-15 14-27l48-370h6l179 295 172-295h5l49 370c2 11 7 20 15 27a42 42 0 0028 10zM1041 1271h5v6H861v-6h6c8 0 14-3 18-8s6-10 6-15a37 37 0 00-2-14l-29-71H725l-30 71a39 39 0 00-3 14c0 5 2 10 6 15s11 8 19 8h5v6H598v-6h6c8 0 17-3 26-8s16-14 22-25l134-302q27-57 28-76h6l171 377q9 17 22 25 14 9 28 9zm-306-132h115l-56-142zM1334 1271q12 0 19-12a26 26 0 004-12 23 23 0 00-4-12l-81-126-85 126a22 22 0 000 24c6 8 12 12 21 12h7v6h-143v-6h8q33 0 58-33l114-161-107-165a86 86 0 00-26-25 61 61 0 00-33-9h-8v-6h197v6h-8q-12 0-20 11a27 27 0 00-3 13 23 23 0 003 11l72 112 71-111a23 23 0 004-12 21 21 0 00-4-12c-5-8-12-12-20-12h-7v-6h142v6h-8a59 59 0 00-33 9 90 90 0 00-25 24l-98 146 116 180a81 81 0 0026 24c10 7 21 10 32 10h8v6h-197v-6zM1597 1271a35 35 0 0025-11 37 37 0 0012-26V913a36 36 0 00-12-25 36 36 0 00-25-10h-8v-6h176l-1 6h-7a37 37 0 00-26 10 34 34 0 00-11 25v321a34 34 0 0011 26 36 36 0 0026 11h7l1 6h-176v-6zM2374 1271h9v6h-173v-6h8a24 24 0 0017-8c5-5 7-10 6-17l-23-209-130 251h-6l-149-250-22 208c-1 7 1 12 6 18 4 5 10 7 16 7h9v6h-121v-6h10a42 42 0 0028-10c7-7 12-15 14-27l48-370h5l179 295 172-295h6l49 370c2 12 7 20 14 27a42 42 0 0028 10zM2818 878h-10a30 30 0 00-21 7 27 27 0 00-9 20v225q0 71-45 113t-122 42q-91 0-139-41-49-41-49-113V907q-1-18-16-26a32 32 0 00-15-3h-9v-6h167v6h-10c-8 0-15 2-21 7a27 27 0 00-9 20v221c0 41 10 73 30 97s47 36 82 36 63-11 84-34 30-53 31-91V905c-1-11-6-19-16-24a33 33 0 00-15-3h-9v-6h121zM2850 1223q0-42 18-71h5a72 72 0 00-1 9q0 40 29 70c19 19 45 29 78 29q39 0 61-18t21-47a46 46 0 00-10-30q-11-13-36-29l-100-67q-56-38-56-93a55 55 0 011-11q3-46 35-73t86-28c21 0 48 2 79 6h36l-7 85h-6c0-20-8-37-22-49s-35-18-60-18q-45 0-65 28c-7 9-10 18-10 26s1 17 5 23q8 15 35 32l111 72q52 34 52 89 0 61-42 94t-112 33q-39 0-72-10t-49-26q-4-11-4-26zM1802 179c-4 3-27 89-6-33 6-35-13-62-38-83-67-55-170-71-253-59-57 8-128 28-168 73a85 85 0 00-20 69c21 122-2 36-7 33 0 0-37 363-27 399 9 29 162 131 212 164l24 76-9-66s-22-194-20-342c0 0-126-102-133-113s0-13-7-23c0 0 168 87 168 93s10 153 13 161 25 27 25 27 24-20 26-27 13-155 13-161 167-93 167-93c-7 10 0 12-7 23s-132 113-132 113c1 86-6 206-13 267l-18 140 24-74c47-31 205-136 213-166 11-35-27-398-27-398z" class="cls-1"/></g></g></svg>