<svg xmlns="http://www.w3.org/2000/svg" viewBox="0 0 457.6 242.3"><defs/><defs><style>.cls-2{fill:#0dff00}.cls-3{fill:#fff}</style></defs><g id="Capa_2" data-name="Capa 2"><g id="Layer_1" data-name="Layer 1"><rect width="457.6" height="242.3" fill="#5d00bf" rx="121.1"/><path d="M25.8 148.6L21 171l84.3-22.6 4.8-22.4z" class="cls-2"/><path d="M68.5 199.4a51.7 51.7 0 012.2-11.4 46 46 0 014.2-9.7 61.2 61.2 0 015.3-7.7 36 36 0 015.4-5.5l80.6-62a9.1 9.1 0 003.2-4.6l.2-.2c0-2-1.3-2.7-4-2l-92 25.4L75.7 90l115.7-32q12.4-3.3 20 1.1t9.3 16a7.6 7.6 0 000 1.4V79a39.4 39.4 0 01-1.7 9.5 65.7 65.7 0 01-3.7 9.7 49.5 49.5 0 01-5.2 8.7 34.4 34.4 0 01-6.3 6.6l-83.4 64.3-.5 5.3 95.8-26.4-1.8 31.5-147.1 40.6zM355.1 142.3a41.8 41.8 0 01-20.6 12.6l-115.8 32 1.8-31.5 91.9-25.4q4.1-1.1 4.2-4.2c.1-1.3-.1-2.1-.8-2.5a9.7 9.7 0 00-1.7-.8l-75.4-18.7a14.4 14.4 0 01-10.8-9.2 36.3 36.3 0 01-2.5-17l2-29.3L374.2 7.7l-2 31.6-96 26.5V71l78.3 20a16 16 0 014.5 2.3 18.2 18.2 0 014.5 5 26 26 0 013.3 7.8 35.6 35.6 0 01.7 10.8 12.6 12.6 0 01-.3 3.9 58.4 58.4 0 01-12 21.5z" class="cls-3"/><path d="M370.6 70q-2.7-2-9.4-.2l-15.3 4a24 24 0 00-6.9 3 14.4 14.4 0 00-2.9 2.4 15 15 0 00-3.6 9.2l-1 16.3q-.5 5.6 2.3 7.6a4.8 4.8 0 001.2.6c1.9.6 4.6.5 8.1-.5l15.4-4q6.7-1.9 9.8-5.4a15.2 15.2 0 003.5-9l1.1-16.4c.3-3.8-.4-6.4-2.3-7.7zm-11.1 15.8l-.5 6.9a7 7 0 01-1 3.5c-.7.9-2 1.5-3.9 2l-5.1 1.5c-1.9.4-3 .4-3.6-.1s-.8-1.6-.6-3.1l.5-7a7.4 7.4 0 011-3.6 6.4 6.4 0 013.8-2l5.1-1.4c2-.6 3.2-.5 3.7 0a4.6 4.6 0 01.6 3.3zm41-25L376 96.7l-37.7 55.5-.8 1.1 22.8-6L423 54.7zm26.2 35q-2.7-2-9.4-.1l-15.3 4q-6.6 1.9-9.8 5.4a14.4 14.4 0 00-3.5 9.2l-1.2 16.4c-.3 3.7.6 6.2 2.4 7.5s5 1.3 9.4.2l15.3-4.2c4.5-1.2 7.8-3 9.8-5.3a14.5 14.5 0 003.4-9l1.3-16.4q.3-5.7-2.4-7.7zm-11 15.8l-.6 7a7 7 0 01-1.1 3.5 7 7 0 01-3.9 2.1l-5.1 1.4c-1.9.5-3 .5-3.5-.1a4.3 4.3 0 01-.6-3.1l.5-7a7.5 7.5 0 011-3.5c.6-1 1.9-1.6 3.7-2.1l5.1-1.4c2-.5 3.2-.5 3.8.1a4.2 4.2 0 01.6 3.2z" class="cls-2"/></g></g></svg>