<svg xmlns="http://www.w3.org/2000/svg" viewBox="0 0 457.6 242.3"><defs/><defs><style>.cls-2{fill:#0dff00}.cls-3{fill:#fff}</style></defs><g id="Capa_2" data-name="Capa 2"><g id="Layer_1" data-name="Layer 1"><rect width="457.6" height="242.3" fill="#5d00bf" rx="121.1"/><path d="M25.8 148.6L21 171l84.3-22.6 4.8-22.4z" class="cls-2"/><path d="M217.3 150.7l-2.8 32.9L63 221.4l2.8-32.9 55.5-14 6.9-78.7-55.5 14 3-33 95.9-24-9.8 111.7zM380.8 41.2l-5.1 61.3q-1.8 21.1-13.9 34.2T324.7 156l-57.8 14.5q-25 6.2-35.2-1.2t-8.4-28.6l5.1-61.3q1.8-21.2 14-34.2t37-19.3l57.9-14.5q25-6.3 35.1 1.2t8.4 28.6zm-62.6 7.1l-25.7 6.5q-14.2 3.5-19.1 10.1t-5.6 17.7l-3 34.5a45.5 45.5 0 000 9.6 9.7 9.7 0 002.7 6q2.2 2.2 6.5 2.4a40.8 40.8 0 0011.7-1.6l25.7-6.4a50.7 50.7 0 0011.7-4.3 24.8 24.8 0 007.5-5.9 21 21 0 004-7.7 55.8 55.8 0 001.7-10l3.1-34.5a49.9 49.9 0 00-.2-9.5 10 10 0 00-2.7-6.1c-1.5-1.4-3.7-2.2-6.7-2.4a41.2 41.2 0 00-11.6 1.6z" class="cls-3"/><path d="M375.7 66c-1.9-1.4-5-1.4-9.5-.2l-15.3 4a24 24 0 00-6.8 3 14.2 14.2 0 00-3 2.4 15 15 0 00-3.5 9.2l-1.1 16.3c-.3 3.8.4 6.3 2.3 7.6a4.5 4.5 0 001.3.6c1.8.6 4.6.5 8-.5l15.4-4q6.7-1.9 9.8-5.4A15.2 15.2 0 00377 90l1.1-16.3c.3-3.8-.5-6.4-2.3-7.7zm-11.2 15.8l-.5 6.9a7 7 0 01-1 3.5c-.6.9-1.9 1.5-3.8 2l-5.2 1.4c-1.9.5-3 .5-3.6 0s-.7-1.6-.6-3.1l.5-7a7.4 7.4 0 011-3.6 6.5 6.5 0 013.8-2l5.1-1.4c2-.6 3.2-.5 3.7 0a4.5 4.5 0 01.6 3.3zm41-25L381 92.7l-37.7 55.5-.8 1.1 22.7-6 62.8-92.5zm26.2 35c-1.8-1.3-4.9-1.3-9.3-.1l-15.4 4c-4.4 1.3-7.6 3-9.8 5.4a14.4 14.4 0 00-3.5 9.2l-1.2 16.4c-.3 3.7.6 6.2 2.4 7.5s5 1.3 9.4.1l15.3-4a20 20 0 009.8-5.4 14.6 14.6 0 003.5-9l1.2-16.4c.2-3.8-.6-6.3-2.4-7.7zm-11 15.8l-.6 7a6.8 6.8 0 01-1 3.5 7 7 0 01-4 2.1l-5.1 1.4c-1.9.5-3 .5-3.5-.1a4.3 4.3 0 01-.6-3.1l.5-7a7.5 7.5 0 011-3.5c.6-1 1.9-1.6 3.7-2.1l5.1-1.4c2-.5 3.2-.5 3.8.1a4.2 4.2 0 01.6 3.2z" class="cls-2"/></g></g></svg>