<svg xmlns="http://www.w3.org/2000/svg" viewBox="0 0 490.2 117"><defs/><defs><style>.cls-1{fill:#c60034}.cls-2{fill:#0c0}.cls-3{fill:#f20034}</style></defs><g id="Capa_2" data-name="Capa 2"><g id="Capa_1-2" data-name="Capa 1"><path d="M117.6 65.8L100.3 117H86.6L68 87.6l-10 29.4H42.6L60 65.8h13.6l18.8 29.3 10-29.3zM178 80.6L165.6 117h-15.2l6.7-20h-27l-6.8 20H108l12.3-36.5q2.5-7.5 8-11t15-3.7H165q9.5 0 12.4 3.6t.5 11.2zm-44 4.7h27a20 20 0 00.9-3.4 3.8 3.8 0 00-.5-2.5 3.7 3.7 0 00-2.1-1.4 14.6 14.6 0 00-4.3-.5h-9.7q-5.4 0-7.7 2a12 12 0 00-3.6 5.8zM202 82.7a108 108 0 00-.3 13.4 37.5 37.5 0 00.5 4.7 14.4 14.4 0 001 3.3c.4.8.9 1.2 1.4 1.2h.8a4.9 4.9 0 003-1.5A37.2 37.2 0 00213 98q3-4.3 7.9-12t12.4-20H249l-21.8 36.5a31.1 31.1 0 01-3.5 4.5 50.4 50.4 0 01-5 4.8 32.8 32.8 0 01-5.3 3.8 10.7 10.7 0 01-5.2 1.5H194a6.6 6.6 0 01-4.1-1.3 10.5 10.5 0 01-3-3.5 16 16 0 01-1.5-4.8 19.9 19.9 0 01-.3-5l2.5-36.6h15.8zM253.8 117h-15.3l17.3-51.2h15.4zM331.4 80.6l-7.2 21.7q-2.6 7.5-8 11.1t-15 3.6h-39.7l17.3-51.2h39.8q9.5 0 12.4 3.6t.4 11.2zm-22.9-3.1h-18.4l-9.4 27.9H299a18.1 18.1 0 004.5-.5 9 9 0 003.2-1.5 7.7 7.7 0 002.1-2.4 20.6 20.6 0 001.5-3.5l4.2-12.2a20 20 0 00.8-3.4 3.3 3.3 0 00-2.6-4 14.7 14.7 0 00-4.3-.4zM372.3 117l1-16.8h-24l-10 16.8h-15.6l21.6-36.5a36.5 36.5 0 013.3-4.5 39.7 39.7 0 014.6-4.9 32 32 0 015.3-3.8 10.2 10.2 0 015-1.5h19.1a6.2 6.2 0 014.1 1.4 10.1 10.1 0 012.7 3.4 16.1 16.1 0 011.3 4.8 30.3 30.3 0 01.3 5l-3 36.6zm2-28.4q.5-6.1-.4-8.6a3.5 3.5 0 00-3.6-2.6H368a6.8 6.8 0 00-2.8.6 9 9 0 00-2.6 1.9 23.2 23.2 0 00-2.8 3.4l-3.4 5.3zM464.8 80.6l-7.3 21.7q-2.5 7.5-8 11.1t-15 3.6h-39.7l17.4-51.2h39.7q9.5 0 12.5 3.6t.4 11.2zm-23-3.1h-18.3l-9.5 27.9h18.4a18.1 18.1 0 004.6-.5 9 9 0 003.1-1.5 7.6 7.6 0 002.1-2.4 20.6 20.6 0 001.6-3.5l4.2-12.2a19.2 19.2 0 00.8-3.4 3.3 3.3 0 00-2.6-4 14.6 14.6 0 00-4.3-.4z" class="cls-1"/><path d="M28.8 71l-3 8.8a8.3 8.3 0 01-3.3 4.5 11.1 11.1 0 01-6.1 1.5H0L7.2 65h16.3q4 0 5.1 1.5t.2 4.5zm-9.4-1.3h-7.6L7.9 81h7.6a7.8 7.8 0 001.9-.2 3.9 3.9 0 001.3-.6 3.2 3.2 0 00.8-1 8.6 8.6 0 00.7-1.4l1.7-5a7.5 7.5 0 00.3-1.3 1.4 1.4 0 00-.2-1 1.5 1.5 0 00-.9-.6 6.2 6.2 0 00-1.7-.2zM50.6 85.8H34.3q-4 0-5.1-1.5t-.2-4.5l3-8.8a8.4 8.4 0 013.3-4.5 11.1 11.1 0 016.1-1.5h16.4L56 69.7H42.3a5 5 0 00-3.2.8 4.8 4.8 0 00-1.5 2.4H55l-1.6 4.7H36v.2a7.3 7.3 0 00-.4 1.4 1.6 1.6 0 00.1 1 1.6 1.6 0 001 .6 6.2 6.2 0 001.7.2h13.8z" class="cls-2"/><path d="M124.3 65.8L106.9 117H93.3L74.5 87.6l-10 29.4H49.3l17.3-51.2h13.7L99 95.1l10-29.3zM184.6 80.6L172.3 117H157l6.8-20h-27.1l-6.8 20h-15.3L127 80.6q2.5-7.5 8-11.2t15-3.6h21.8q9.5 0 12.4 3.6t.4 11.2zm-44 4.7h27.2a18.4 18.4 0 00.7-3.4 3.8 3.8 0 00-.4-2.5A3.7 3.7 0 00166 78a14.6 14.6 0 00-4.3-.5H152q-5.4 0-7.7 2a12 12 0 00-3.6 5.8zM208.6 82.7a138.5 138.5 0 00-.5 7.8l.2 5.6a39.3 39.3 0 00.6 4.7 15 15 0 001 3.3c.4.8.8 1.2 1.3 1.2h.8a4.9 4.9 0 003-1.5 37.8 37.8 0 004.7-5.8q3-4.3 7.9-12T240 65.8h15.7l-21.9 36.6a30.6 30.6 0 01-3.4 4.5 50.3 50.3 0 01-5 4.8 32.9 32.9 0 01-5.4 3.8 10.7 10.7 0 01-5 1.5h-14.3a6.6 6.6 0 01-4.1-1.4 10.6 10.6 0 01-3-3.4 16 16 0 01-1.6-4.8 20.4 20.4 0 01-.3-5l2.6-36.6H210zM260.5 117H245l17.4-51.2h15.4zM338.1 80.6l-7.3 21.7q-2.5 7.5-8 11.1t-15 3.6h-39.7l17.4-51.2h39.8q9.4 0 12.4 3.6t.4 11.2zm-23-3.1h-18.3l-9.5 27.9h18.4a18 18 0 004.6-.5 9 9 0 003.1-1.5 7.7 7.7 0 002.2-2.4 21.4 21.4 0 001.5-3.5l4.2-12.2a20 20 0 00.7-3.4 3.8 3.8 0 00-.4-2.5 3.7 3.7 0 00-2.2-1.4 14.6 14.6 0 00-4.2-.5zM378.9 117l1.1-16.8h-24L346 117h-15.6L352 80.5a36.5 36.5 0 013.2-4.5 40.4 40.4 0 014.6-4.8 32.4 32.4 0 015.3-3.8 10.2 10.2 0 015-1.6h19.2a6.2 6.2 0 014 1.4 10.1 10.1 0 012.7 3.5 15.8 15.8 0 011.4 4.7 30.3 30.3 0 01.2 5l-2.9 36.6zm2.1-28.4q.5-6.1-.4-8.6a3.5 3.5 0 00-3.6-2.5h-2.3a6.8 6.8 0 00-2.9.5 9.2 9.2 0 00-2.5 1.9 23.9 23.9 0 00-2.8 3.4l-3.5 5.3zM471.4 80.6l-7.2 21.7q-2.6 7.5-8 11.1t-15 3.6h-39.7l17.3-51.2h39.8q9.5 0 12.4 3.6t.4 11.2zm-22.9-3.1h-18.4l-9.5 27.9h18.5a18.1 18.1 0 004.5-.5 8.9 8.9 0 003.2-1.5 7.7 7.7 0 002.1-2.4 20.6 20.6 0 001.5-3.5l4.2-12.2a20 20 0 00.8-3.4 3.8 3.8 0 00-.5-2.5 3.7 3.7 0 00-2.1-1.4 14.6 14.6 0 00-4.3-.5z" class="cls-3"/><path d="M90.2 17.7l-9 26.1q-3 9-9.7 13.4t-18.3 4.3H26.6q-11.6 0-15.2-4.3t-.5-13.4l9-26q3-9 9.7-13.4T47.7 0h26.8Q86 0 89.6 4.3t.6 13.4zm-28-3.7h-12c-4.3 0-7.5.8-9.4 2.3a14.4 14.4 0 00-4.3 7.1l-5.1 14.7a20.4 20.4 0 00-1 4.2 4.3 4.3 0 00.5 2.9 4.5 4.5 0 002.6 1.7 18.3 18.3 0 005.2.6h11.9a22.7 22.7 0 005.6-.6 11.2 11.2 0 003.8-1.7 9.3 9.3 0 002.6-3 24.4 24.4 0 001.9-4.1l5-14.7a22.7 22.7 0 001-4.1 4.5 4.5 0 00-.5-3 4.6 4.6 0 00-2.6-1.8 18.7 18.7 0 00-5.2-.5zM103.2 61.5H84.5l15.1-43.8q3-9 9.8-13.3T127.6 0h48.6l-4.9 14h-41.2c-4.3 0-7.5.8-9.4 2.3a14.4 14.4 0 00-4.3 7.1l-.1.1H168l-4.8 14h-51.7zM234.8 61.5h-48.5q-11.6 0-15.2-4.3t-.5-13.4l8.9-26q3-9 9.7-13.4T207.5 0H256l-5 14H210c-4.4 0-7.5.8-9.4 2.3a14.4 14.4 0 00-4.4 7.1l-.1.1h51.8l-4.8 14h-51.8l-.2.6a20.4 20.4 0 00-1 4.2 4.3 4.3 0 00.5 2.9 4.5 4.5 0 002.6 1.7 18.3 18.3 0 005.3.6h41.1zM302.8 40.2l12.8 21.3h-20.8l-13.2-21.2h-11.3L263 61.5h-18.7L265.5 0H314q11.5 0 15.1 4.3t.6 13.4l-1.6 4.8q-3 8.6-8.9 13t-16.5 4.7zM303 14h-23.7L275 26.2H299a34 34 0 004.7-.3 9.2 9.2 0 003.2-1 5.8 5.8 0 002-1.8 12.8 12.8 0 001.5-3 13.4 13.4 0 00.8-3.2 2 2 0 00-.7-1.9 5.3 5.3 0 00-2.6-.8 43.4 43.4 0 00-4.8-.2zM384.6 14l-16.3 47.5h-18.7L366 14h-25.6L345 0h70l-4.8 14zM488.8 17.7l-15 43.8H455l8.3-24h-33.1l-8.2 24h-18.7l15-43.8q3.1-9 9.8-13.3T446.3 0h26.8q11.5 0 15.1 4.3t.6 13.4zM435 23.4h33a22 22 0 001-4.1 4.5 4.5 0 00-.4-3 4.6 4.6 0 00-2.7-1.7 18.9 18.9 0 00-5.2-.6h-12c-4.3 0-7.4.8-9.4 2.3a14.4 14.4 0 00-4.3 7.1z" class="cls-2"/></g></g></svg>