<svg xmlns="http://www.w3.org/2000/svg" xmlns:xlink="http://www.w3.org/1999/xlink" id="Capa_1" x="0" y="0" version="1.1" viewBox="0 0 512 512" xml:space="preserve"><defs/><style>.st0,.st1,.st2,.st3,.st4{clip-path:url(#SVGID_2_);fill:#f5103e}.st1,.st2,.st3,.st4{fill:#f5113f}.st2,.st3,.st4{fill:#f61240}.st3,.st4{fill:#f61340}.st4{fill:#f61441}.st5,.st6,.st7,.st8,.st9{clip-path:url(#SVGID_2_);fill:#f71542}.st6,.st7,.st8,.st9{fill:#f71742}.st7,.st8,.st9{fill:#f81843}.st8,.st9{fill:#f81944}.st9{fill:#f81a44}.st58,.st59{clip-path:url(#SVGID_8_);fill:#f40e3d}.st59{fill:#f50f3e}.st60,.st61,.st62,.st63,.st64{clip-path:url(#SVGID_8_);fill:#f5103e}.st61,.st62,.st63,.st64{fill:#f5113f}.st62,.st63,.st64{fill:#f61240}.st63,.st64{fill:#f61340}.st64{fill:#f61441}.st96,.st97,.st98{clip-path:url(#SVGID_12_);fill:#f30b3b}.st97,.st98{fill:#f30c3c}.st98{fill:#f40d3c}.st100,.st101,.st102,.st99{clip-path:url(#SVGID_12_);fill:#f40e3d}.st100,.st101,.st102{fill:#f50f3e}.st101,.st102{fill:#f5103e}.st102{fill:#f5113f}.st115{fill:#21e000}.st134,.st135{clip-path:url(#SVGID_16_);fill:#f61340}.st135{fill:#f61441}.st136,.st137,.st138,.st139{clip-path:url(#SVGID_16_);fill:#f71542}.st137,.st138,.st139{fill:#f71742}.st138,.st139{fill:#f81843}.st139{fill:#f81944}.st181{clip-path:url(#SVGID_22_);fill:#f30c3c}.st182,.st183,.st184,.st185{clip-path:url(#SVGID_22_);fill:#f40d3c}.st183,.st184,.st185{fill:#f40e3d}.st184,.st185{fill:#f50f3e}.st185{fill:#f5103e}.st186,.st187,.st188,.st189{clip-path:url(#SVGID_22_);fill:#f5113f}.st187,.st188,.st189{fill:#f61240}.st188,.st189{fill:#f61340}.st189{fill:#f61441}.st216,.st217,.st218,.st219{clip-path:url(#SVGID_26_);fill:#f50f3e}.st217,.st218,.st219{fill:#f5103e}.st218,.st219{fill:#f5113f}.st219{fill:#f61240}.st220,.st221,.st222,.st223{clip-path:url(#SVGID_26_);fill:#f61340}.st221,.st222,.st223{fill:#f61441}.st222,.st223{fill:#f71542}.st223{fill:#f71742}.st236,.st237{clip-path:url(#SVGID_28_);fill:#f30b3b}.st237{fill:#f30c3c}.st238,.st239,.st240,.st241{clip-path:url(#SVGID_28_);fill:#f40d3c}.st239,.st240,.st241{fill:#f40e3d}.st240,.st241{fill:#f50f3e}.st241{fill:#f5103e}.st254{fill:#f90041}</style><defs><path id="SVGID_1_" d="M80 241l1 21c0 5-1 9-3 12-3 3-7 6-12 8l-19 7c-5 2-9 2-11 1-3-2-4-5-4-9l-1-21c0-5 1-9 3-12 3-3 6-6 12-8l18-7c6-2 10-2 12-1 3 2 4 5 4 9zm-20 5l-9 3-6 5-1 6 1 11v4l1 1 3 1 3-1 9-3 3-2 2-2 2-3v-4l-1-11v-3l-1-2-3-1-3 1z"/></defs><clipPath id="SVGID_2_"><use overflow="visible" xlink:href="#SVGID_1_"/></clipPath><path d="M66 277l2-1v1z" class="st0"/><path d="M57 277l11-6v5l-2 1z" class="st1"/><path d="M48 277l20-11v5l-11 6z" class="st2"/><path d="M44 274l24-13v5l-20 11h-4z" class="st3"/><path d="M44 269l24-13v5l-24 13z" class="st4"/><path d="M44 264l24-13v5l-24 13z" class="st5"/><path d="M44 259l24-13v5l-24 13z" class="st6"/><path d="M44 254l16-9h8v1l-24 13z" class="st7"/><path d="M44 249l7-4h9l-16 9z" class="st8"/><path d="M51 245l-7 4v-4z" class="st9"/><path fill="#f30c3c" d="M77 291l4-2v2z" clip-path="url(#SVGID_2_)"/><path fill="#f40d3c" d="M67 291l14-7v5l-4 2z" clip-path="url(#SVGID_2_)"/><path fill="#f40e3d" d="M58 291l23-12v5l-14 7z" clip-path="url(#SVGID_2_)"/><path fill="#f50f3e" d="M49 291l32-17v5l-23 12z" clip-path="url(#SVGID_2_)"/><path d="M40 291l41-22v5l-32 17z" class="st0"/><path d="M33 291l-1-1 49-26v5l-41 22z" class="st1"/><path d="M32 290l-1-2v-2l50-27v5z" class="st2"/><path d="M31 281l50-27v5l-50 27z" class="st3"/><path d="M31 276l50-27v5l-50 27z" class="st4"/><path d="M31 271l50-27v5l-50 27z" class="st5"/><path d="M31 266l50-27v5l-50 27z" class="st6"/><path d="M31 261l50-27v5l-50 27z" class="st7"/><path d="M31 256l46-25h2l2 3-50 27z" class="st8"/><path d="M31 251l37-20h9l-46 25z" class="st9"/><path fill="#f91b45" d="M31 246l28-15h9l-37 20z" clip-path="url(#SVGID_2_)"/><path fill="#f91c46" d="M31 241l19-10h9l-28 15z" clip-path="url(#SVGID_2_)"/><path fill="#f91d46" d="M31 236l9-5h10l-19 10z" clip-path="url(#SVGID_2_)"/><path fill="#fa1e47" d="M31 231h9l-9 5z" clip-path="url(#SVGID_2_)"/><path fill="#fa1f48" d="M31 231z" clip-path="url(#SVGID_2_)"/><g><defs><path id="SVGID_3_" d="M98 269l-13 5-1-34c0-5 1-9 3-12s6-6 12-8l33-13 1 11-29 11-6 4-1 6 36-14v11l-36 14 1 19z"/></defs><clipPath id="SVGID_4_"><use overflow="visible" xlink:href="#SVGID_3_"/></clipPath><path fill="#f30a3b" d="M126 274l7-4v4z" clip-path="url(#SVGID_4_)"/><path fill="#f30b3b" d="M117 274l16-9v5l-7 4z" clip-path="url(#SVGID_4_)"/><path fill="#f30c3c" d="M108 274l25-14v5l-16 9z" clip-path="url(#SVGID_4_)"/><path fill="#f40d3c" d="M98 274l35-19v5l-25 14z" clip-path="url(#SVGID_4_)"/><path fill="#f40e3d" d="M89 274l44-24v5l-35 19z" clip-path="url(#SVGID_4_)"/><path fill="#f50f3e" d="M84 272l49-27v5l-44 24h-5z" clip-path="url(#SVGID_4_)"/><path fill="#f5103e" d="M84 267l49-27v5l-49 27z" clip-path="url(#SVGID_4_)"/><path fill="#f5113f" d="M84 262l49-27v5l-49 27z" clip-path="url(#SVGID_4_)"/><path fill="#f61240" d="M84 257l49-27v5l-49 27z" clip-path="url(#SVGID_4_)"/><path fill="#f61340" d="M84 252l49-27v5l-49 27z" clip-path="url(#SVGID_4_)"/><path fill="#f61441" d="M84 247l49-27v5l-49 27z" clip-path="url(#SVGID_4_)"/><path fill="#f71542" d="M84 242l49-27v5l-49 27z" clip-path="url(#SVGID_4_)"/><path fill="#f71742" d="M84 237l49-27v5l-49 27z" clip-path="url(#SVGID_4_)"/><path fill="#f81843" d="M84 232l46-25h3v3l-49 27z" clip-path="url(#SVGID_4_)"/><path fill="#f81944" d="M84 227l37-20h9l-46 25z" clip-path="url(#SVGID_4_)"/><path fill="#f81a44" d="M84 222l28-15h9l-37 20z" clip-path="url(#SVGID_4_)"/><path fill="#f91b45" d="M84 217l18-10h10l-28 15z" clip-path="url(#SVGID_4_)"/><path fill="#f91c46" d="M84 212l9-5h9l-18 10z" clip-path="url(#SVGID_4_)"/><path fill="#f91d46" d="M84 207h9l-9 5z" clip-path="url(#SVGID_4_)"/><path fill="#fa1e47" d="M84 207z" clip-path="url(#SVGID_4_)"/></g><g><defs><path id="SVGID_5_" d="M187 235l-34 13c-5 2-9 2-12 1-2-1-3-4-4-9v-21c-1-4 0-8 3-11 2-4 6-6 11-8l34-13v11l-28 11c-3 1-5 2-6 4l-1 6 36-14v11l-36 14 1 4 1 2h2l4-1 29-11v11z"/></defs><clipPath id="SVGID_6_"><use overflow="visible" xlink:href="#SVGID_5_"/></clipPath><path fill="#f2093a" d="M179 250l8-4v4z" clip-path="url(#SVGID_6_)"/><path fill="#f30a3b" d="M170 250l17-9v5l-8 4z" clip-path="url(#SVGID_6_)"/><path fill="#f30b3b" d="M160 251l27-15v5l-17 9z" clip-path="url(#SVGID_6_)"/><path fill="#f30c3c" d="M151 251l36-20v5l-27 15z" clip-path="url(#SVGID_6_)"/><path fill="#f40d3c" d="M142 251l45-25v5l-36 20z" clip-path="url(#SVGID_6_)"/><path fill="#f40e3d" d="M138 251l-1-3 50-27v5l-45 25z" clip-path="url(#SVGID_6_)"/><path fill="#f50f3e" d="M137 248v-5l50-27v5z" clip-path="url(#SVGID_6_)"/><path fill="#f5103e" d="M137 238l50-27v5l-50 27z" clip-path="url(#SVGID_6_)"/><path fill="#f5113f" d="M136 233l51-27v5l-50 27z" clip-path="url(#SVGID_6_)"/><path fill="#f61240" d="M136 228l51-27v5l-51 27z" clip-path="url(#SVGID_6_)"/><path fill="#f61340" d="M136 223l51-27v5l-51 27z" clip-path="url(#SVGID_6_)"/><path fill="#f61441" d="M136 218l51-27v5l-51 27z" clip-path="url(#SVGID_6_)"/><path fill="#f71542" d="M136 213l50-26h1v4l-51 27z" clip-path="url(#SVGID_6_)"/><path fill="#f71742" d="M136 208l40-21h10l-50 26z" clip-path="url(#SVGID_6_)"/><path fill="#f81843" d="M136 203l31-16h9l-40 21z" clip-path="url(#SVGID_6_)"/><path fill="#f81944" d="M136 198l22-11h9l-31 16z" clip-path="url(#SVGID_6_)"/><path fill="#f81a44" d="M136 193l13-6h9l-22 11z" clip-path="url(#SVGID_6_)"/><path fill="#f91b45" d="M136 188l4-1h9l-13 6z" clip-path="url(#SVGID_6_)"/><path fill="#f91c46" d="M140 187l-4 1v-1z" clip-path="url(#SVGID_6_)"/></g><g><defs><path id="SVGID_7_" d="M226 203l14 11-14 6-15-11-8 3 1 17-13 5-2-49 34-13c5-2 9-2 11-1 3 1 4 4 4 9l1 4c0 4-1 8-3 11s-5 6-10 8zm-7-18l-17 6 1 10 16-7 3-1 2-2 1-1 1-3-1-2-1-1h-2l-3 1z"/></defs><clipPath id="SVGID_8_"><use overflow="visible" xlink:href="#SVGID_7_"/></clipPath><path d="M224 201l2-1v1z" class="st58"/><path d="M215 201l11-6v5l-2 1z" class="st59"/><path d="M206 201l19-11 1 5-11 6z" class="st60"/><path d="M202 198l23-13v5l-19 11h-4z" class="st61"/><path d="M202 193l17-10h6v2l-23 13z" class="st62"/><path d="M202 188l8-5h9l-17 10z" class="st63"/><path d="M210 183l-8 5v-5z" class="st64"/><path fill="#f10638" d="M237 234l3-2v2z" clip-path="url(#SVGID_8_)"/><path fill="#f20739" d="M228 234l12-7v5l-3 2z" clip-path="url(#SVGID_8_)"/><path fill="#f20839" d="M219 234l21-12v5l-12 7z" clip-path="url(#SVGID_8_)"/><path fill="#f2093a" d="M210 234l30-17v5l-21 12z" clip-path="url(#SVGID_8_)"/><path fill="#f30a3b" d="M200 234l40-22v5l-30 17z" clip-path="url(#SVGID_8_)"/><path fill="#f30b3b" d="M191 234l49-27v5l-40 22z" clip-path="url(#SVGID_8_)"/><path fill="#f30c3c" d="M189 230l51-28v5l-49 27h-2z" clip-path="url(#SVGID_8_)"/><path fill="#f40d3c" d="M189 225l51-28v5l-51 28z" clip-path="url(#SVGID_8_)"/><path d="M189 220l51-28v5l-51 28z" class="st58"/><path d="M189 215l51-28v5l-51 28z" class="st59"/><path d="M189 210l51-28v5l-51 28z" class="st60"/><path d="M189 205l51-28v5l-51 28z" class="st61"/><path d="M189 200l50-28 1 2v3l-51 28z" class="st62"/><path d="M189 195l46-25h3l1 2-50 28z" class="st63"/><path d="M189 190l37-20h9l-46 25z" class="st64"/><path fill="#f71542" d="M189 185l28-15h9l-37 20z" clip-path="url(#SVGID_8_)"/><path fill="#f71742" d="M189 180l18-10h10l-28 15z" clip-path="url(#SVGID_8_)"/><path fill="#f81843" d="M189 175l9-5h9l-18 10z" clip-path="url(#SVGID_8_)"/><path fill="#f81944" d="M189 170h9l-9 5z" clip-path="url(#SVGID_8_)"/><path fill="#f81a44" d="M189 170z" clip-path="url(#SVGID_8_)"/></g><g><defs><path id="SVGID_9_" d="M273 164l1 37-13 5-1-37-18 7-1-11 49-19 1 11-18 7z"/></defs><clipPath id="SVGID_10_"><use overflow="visible" xlink:href="#SVGID_9_"/></clipPath><path fill="#f10638" d="M287 206l4-2v2z" clip-path="url(#SVGID_10_)"/><path fill="#f20739" d="M278 206l13-7v5l-4 2z" clip-path="url(#SVGID_10_)"/><path fill="#f20839" d="M269 206l22-12v5l-13 7z" clip-path="url(#SVGID_10_)"/><path fill="#f2093a" d="M259 206l32-17v5l-22 12z" clip-path="url(#SVGID_10_)"/><path fill="#f30a3b" d="M256 206l-1-2 36-20v5l-32 17z" clip-path="url(#SVGID_10_)"/><path fill="#f30b3b" d="M255 204l-2-4 38-21v5z" clip-path="url(#SVGID_10_)"/><path fill="#f30c3c" d="M253 200l-2-4 40-22v5z" clip-path="url(#SVGID_10_)"/><path fill="#f40d3c" d="M251 196l-2-4 42-23v5z" clip-path="url(#SVGID_10_)"/><path fill="#f40e3d" d="M249 192l-3-4 45-24v5z" clip-path="url(#SVGID_10_)"/><path fill="#f50f3e" d="M246 188l-2-3 47-26v5z" clip-path="url(#SVGID_10_)"/><path fill="#f5103e" d="M244 185l-2-4 49-27v5z" clip-path="url(#SVGID_10_)"/><path fill="#f5113f" d="M242 181v-5l49-27v5z" clip-path="url(#SVGID_10_)"/><path fill="#f61240" d="M242 171l45-25h4v3l-49 27z" clip-path="url(#SVGID_10_)"/><path fill="#f61340" d="M242 166l36-20h9l-45 25z" clip-path="url(#SVGID_10_)"/><path fill="#f61441" d="M242 161l27-15h9l-36 20z" clip-path="url(#SVGID_10_)"/><path fill="#f71542" d="M242 156l18-10h9l-27 15z" clip-path="url(#SVGID_10_)"/><path fill="#f71742" d="M242 151l9-5h9l-18 10z" clip-path="url(#SVGID_10_)"/><path fill="#f81843" d="M251 146l-9 5v-5z" clip-path="url(#SVGID_10_)"/></g><g><defs><path id="SVGID_11_" d="M343 140l2 34-13 5-1-19-23 9 1 19-13 5-2-34c0-5 1-9 4-12 2-4 6-6 11-8l19-8c5-2 9-2 11 0 3 1 4 4 4 9zm-35 18l23-9-1-3-1-2h-2l-4 1-8 3c-3 1-5 2-6 4s-2 4-1 6z"/></defs><clipPath id="SVGID_12_"><use overflow="visible" xlink:href="#SVGID_11_"/></clipPath><path d="M330 158h1z" class="st96"/><path d="M321 158l10-5v5h-1z" class="st97"/><path d="M311 158l20-10v5l-10 5z" class="st98"/><path d="M307 155l22-11h2v4l-20 10h-4z" class="st99"/><path d="M307 150l13-6h9l-22 11z" class="st100"/><path d="M307 145l3-1h10l-13 6z" class="st101"/><path d="M310 144l-3 1v-1z" class="st102"/><path fill="#f00336" d="M339 193l6-3v3z" clip-path="url(#SVGID_12_)"/><path fill="#f00437" d="M330 193l15-8v5l-6 3z" clip-path="url(#SVGID_12_)"/><path fill="#f10537" d="M321 193l24-13v5l-15 8z" clip-path="url(#SVGID_12_)"/><path fill="#f10638" d="M311 193l34-18v5l-24 13z" clip-path="url(#SVGID_12_)"/><path fill="#f20739" d="M302 193l43-23v5l-34 18z" clip-path="url(#SVGID_12_)"/><path fill="#f20839" d="M294 192l51-27v5l-43 23h-8z" clip-path="url(#SVGID_12_)"/><path fill="#f2093a" d="M294 187l51-27v5l-51 27z" clip-path="url(#SVGID_12_)"/><path fill="#f30a3b" d="M294 182l51-27v5l-51 27z" clip-path="url(#SVGID_12_)"/><path d="M294 177l51-27v5l-51 27z" class="st96"/><path d="M294 172l51-27v5l-51 27z" class="st97"/><path d="M294 167l51-27v5l-51 27z" class="st98"/><path d="M294 162l51-27v5l-51 27z" class="st99"/><path d="M294 157l49-26 2 2v2l-51 27z" class="st100"/><path d="M294 152l43-23h6v2l-49 26z" class="st101"/><path d="M294 147l34-18h9l-43 23z" class="st102"/><path fill="#f61240" d="M294 142l24-13h10l-34 18z" clip-path="url(#SVGID_12_)"/><path fill="#f61340" d="M294 137l15-8h9l-24 13z" clip-path="url(#SVGID_12_)"/><path fill="#f61441" d="M294 132l6-3h9l-15 8z" clip-path="url(#SVGID_12_)"/><path fill="#f71542" d="M300 129l-6 3v-3z" clip-path="url(#SVGID_12_)"/></g><g><path d="M80 241l1 21c0 5-1 9-3 12-3 3-7 6-12 8l-19 7c-5 2-9 2-11 1-3-2-4-5-4-9l-1-21c0-5 1-9 3-12 3-3 6-6 12-8l18-7c6-2 10-2 12-1 3 2 4 5 4 9zm-20 5l-9 3-6 5-1 6 1 11v4l1 1 3 1 3-1 9-3 3-2 2-2 2-3v-4l-1-11v-3l-1-2-3-1-3 1zM98 269l-13 5-1-34c0-5 1-9 3-12s6-6 12-8l33-13 1 11-29 11-6 4-1 6 36-14v11l-36 14 1 19zM187 235l-34 13c-5 2-9 2-12 1-2-1-3-4-4-9v-21c-1-4 0-8 3-11 2-4 6-6 11-8l34-13v11l-28 11c-3 1-5 2-6 4l-1 6 36-14v11l-36 14 1 4 1 2h2l4-1 29-11v11zM226 203l14 11-14 6-15-11-8 3 1 17-13 5-2-49 34-13c5-2 9-2 11-1 3 1 4 4 4 9l1 4c0 4-1 8-3 11s-5 6-10 8zm-7-18l-17 6 1 10 16-7 3-1 2-2 1-1 1-3-1-2-1-1h-2l-3 1zM273 164l1 37-13 5-1-37-18 7-1-11 49-19 1 11-18 7zM343 140l2 34-13 5-1-19-23 9 1 19-13 5-2-34c0-5 1-9 4-12 2-4 6-6 11-8l19-8c5-2 9-2 11 0 3 1 4 4 4 9zm-35 18l23-9-1-3-1-2h-2l-4 1-8 3c-3 1-5 2-6 4s-2 4-1 6z" class="st115"/></g><g><defs><path id="SVGID_13_" d="M90 275l2 55-13 5-28-21 1 32-15 5-2-55 13-5 29 21-1-31 14-6z"/></defs><clipPath id="SVGID_14_"><use overflow="visible" xlink:href="#SVGID_13_"/></clipPath><path fill="#f40d3c" d="M83 351l9-4v4z" clip-path="url(#SVGID_14_)"/><path fill="#f40e3d" d="M72 351l20-10v6l-9 4z" clip-path="url(#SVGID_14_)"/><path fill="#f50f3e" d="M61 351l31-17v7l-20 10z" clip-path="url(#SVGID_14_)"/><path fill="#f5103e" d="M50 351l42-23v6l-31 17z" clip-path="url(#SVGID_14_)"/><path fill="#f5113f" d="M39 351l53-29v6l-42 23z" clip-path="url(#SVGID_14_)"/><path fill="#f61240" d="M36 347l56-31v6l-53 29h-3z" clip-path="url(#SVGID_14_)"/><path fill="#f61340" d="M36 341l56-31v6l-56 31z" clip-path="url(#SVGID_14_)"/><path fill="#f61441" d="M36 335l56-31v6l-56 31z" clip-path="url(#SVGID_14_)"/><path fill="#f71542" d="M36 329l56-31v6l-56 31z" clip-path="url(#SVGID_14_)"/><path fill="#f71742" d="M36 323l56-31v6l-56 31z" clip-path="url(#SVGID_14_)"/><path fill="#f81843" d="M36 317l56-31v6l-56 31z" clip-path="url(#SVGID_14_)"/><path fill="#f81944" d="M36 311l56-32v7l-56 31z" clip-path="url(#SVGID_14_)"/><path fill="#f81a44" d="M36 304l53-29h3v4l-56 32z" clip-path="url(#SVGID_14_)"/><path fill="#f91b45" d="M36 298l42-23h11l-53 29z" clip-path="url(#SVGID_14_)"/><path fill="#f91c46" d="M36 292l31-17h11l-42 23z" clip-path="url(#SVGID_14_)"/><path fill="#f91d46" d="M36 286l19-11h12l-31 17z" clip-path="url(#SVGID_14_)"/><path fill="#fa1e47" d="M36 280l8-5h11l-19 11z" clip-path="url(#SVGID_14_)"/><path fill="#fa1f48" d="M44 275l-8 5v-5z" clip-path="url(#SVGID_14_)"/><g><defs><path id="SVGID_15_" d="M150 268l1 39-15 6v-22l-26 10 1 22-15 5-1-39c0-5 1-10 4-13 2-4 6-7 12-9l21-8c6-2 11-3 13-1 3 1 5 5 5 10zm-40 21l25-10v-4l-1-2-3-1-4 1-9 4c-4 1-6 3-7 5l-1 7z"/></defs><clipPath id="SVGID_16_"><use overflow="visible" xlink:href="#SVGID_15_"/></clipPath><path d="M131 289l4-3v3z" class="st134"/><path d="M119 289l16-9v6l-4 3z" class="st135"/><path d="M110 288l25-14v6l-16 9h-9z" class="st136"/><path d="M110 282l17-10h8v2l-25 14z" class="st137"/><path d="M110 276l6-4h11l-17 10z" class="st138"/><path d="M116 272l-6 4v-4z" class="st139"/><path fill="#f30b3b" d="M147 328l4-2v2z" clip-path="url(#SVGID_16_)"/><path fill="#f30c3c" d="M136 328l15-8v6l-4 2z" clip-path="url(#SVGID_16_)"/><path fill="#f40d3c" d="M125 328l26-14v6l-15 8z" clip-path="url(#SVGID_16_)"/><path fill="#f40e3d" d="M114 328l37-20v6l-26 14z" clip-path="url(#SVGID_16_)"/><path fill="#f50f3e" d="M103 328l48-26v6l-37 20z" clip-path="url(#SVGID_16_)"/><path fill="#f5103e" d="M95 327l56-31v6l-48 26h-8z" clip-path="url(#SVGID_16_)"/><path fill="#f5113f" d="M95 321l56-31v6l-56 31z" clip-path="url(#SVGID_16_)"/><path fill="#f61240" d="M95 315l56-31v6l-56 31z" clip-path="url(#SVGID_16_)"/><path d="M95 308l56-31v7l-56 31z" class="st134"/><path d="M95 302l56-31v6l-56 31z" class="st135"/><path d="M95 296l56-31v6l-56 31z" class="st136"/><path d="M95 290l55-31 1 1v5l-56 31z" class="st137"/><path d="M95 284l50-28h4l1 3-55 31z" class="st138"/><path d="M95 278l39-22h11l-50 28z" class="st139"/><path fill="#f81a44" d="M95 272l28-16h11l-39 22z" clip-path="url(#SVGID_16_)"/><path fill="#f91b45" d="M95 266l17-10h11l-28 16z" clip-path="url(#SVGID_16_)"/><path fill="#f91c46" d="M95 260l6-4h11l-17 10z" clip-path="url(#SVGID_16_)"/><path fill="#f91d46" d="M101 256l-6 4v-4z" clip-path="url(#SVGID_16_)"/></g><g><defs><path id="SVGID_17_" d="M170 262a52 52 0 003 8 84 84 0 004 9l2 3 2 1 3-3 2-7 3-15 5-23 15-6-8 43-2 5a40 40 0 01-6 12l-5 4-13 5h-5l-4-2-3-4-2-5-11-35 15-6 5 16z"/></defs><clipPath id="SVGID_18_"><use overflow="visible" xlink:href="#SVGID_17_"/></clipPath><path fill="#f30b3b" d="M202 299l7-5v5z" clip-path="url(#SVGID_18_)"/><path fill="#f30c3c" d="M190 299l19-11v6l-7 5z" clip-path="url(#SVGID_18_)"/><path fill="#f40d3c" d="M179 299l30-17v6l-19 11z" clip-path="url(#SVGID_18_)"/><path fill="#f40e3d" d="M168 299l41-23v6l-30 17z" clip-path="url(#SVGID_18_)"/><path fill="#f50f3e" d="M164 299l-1-4 46-25v6l-41 23z" clip-path="url(#SVGID_18_)"/><path fill="#f5103e" d="M163 295l-3-4 49-27v6z" clip-path="url(#SVGID_18_)"/><path fill="#f5113f" d="M160 291l-2-5 51-28v6z" clip-path="url(#SVGID_18_)"/><path fill="#f61240" d="M158 286l-3-5 54-29v6z" clip-path="url(#SVGID_18_)"/><path fill="#f61340" d="M155 281l-2-4 56-31v6z" clip-path="url(#SVGID_18_)"/><path fill="#f61441" d="M153 277l-2-4v-1l58-33v7z" clip-path="url(#SVGID_18_)"/><path fill="#f71542" d="M151 265l58-32v6l-58 33z" clip-path="url(#SVGID_18_)"/><path fill="#f71742" d="M151 259l55-30h3v4l-58 32z" clip-path="url(#SVGID_18_)"/><path fill="#f81843" d="M151 253l44-24h11l-55 30z" clip-path="url(#SVGID_18_)"/><path fill="#f81944" d="M151 247l33-18h11l-44 24z" clip-path="url(#SVGID_18_)"/><path fill="#f81a44" d="M151 241l21-12h12l-33 18z" clip-path="url(#SVGID_18_)"/><path fill="#f91b45" d="M151 235l10-6h11l-21 12z" clip-path="url(#SVGID_18_)"/><path fill="#f91c46" d="M161 229l-10 6v-6z" clip-path="url(#SVGID_18_)"/></g><g><defs><path id="SVGID_19_" d="M229 277l-15 6-2-55 15-6 2 55z"/></defs><clipPath id="SVGID_20_"><use overflow="visible" xlink:href="#SVGID_19_"/></clipPath><path fill="#f30c3c" d="M219 283l10-6v6z" clip-path="url(#SVGID_20_)"/><path fill="#f40d3c" d="M212 280l17-9v6l-10 6h-7z" clip-path="url(#SVGID_20_)"/><path fill="#f40e3d" d="M212 274l17-9v6l-17 9z" clip-path="url(#SVGID_20_)"/><path fill="#f50f3e" d="M212 268l17-9v6l-17 9z" clip-path="url(#SVGID_20_)"/><path fill="#f5103e" d="M212 262l17-9v6l-17 9z" clip-path="url(#SVGID_20_)"/><path fill="#f5113f" d="M212 256l17-9v6l-17 9z" clip-path="url(#SVGID_20_)"/><path fill="#f61240" d="M212 250l17-9v6l-17 9z" clip-path="url(#SVGID_20_)"/><path fill="#f61340" d="M212 244l17-9v6l-17 9z" clip-path="url(#SVGID_20_)"/><path fill="#f61441" d="M212 238l17-9v6l-17 9z" clip-path="url(#SVGID_20_)"/><path fill="#f71542" d="M212 231l17-9v7l-17 9z" clip-path="url(#SVGID_20_)"/><path fill="#f71742" d="M212 225l6-3h11l-17 9z" clip-path="url(#SVGID_20_)"/><path fill="#f81843" d="M218 222l-6 3v-3z" clip-path="url(#SVGID_20_)"/></g><g><defs><path id="SVGID_21_" d="M286 215l1 23c0 6-1 10-4 14-2 3-7 6-13 9l-37 14-2-55 38-15c6-2 10-2 13-1 2 2 4 6 4 11zm-23 5l-17 7 1 30 17-7 5-2a9 9 0 003-5v-17-4l-2-2-2-1-5 1z"/></defs><clipPath id="SVGID_22_"><use overflow="visible" xlink:href="#SVGID_21_"/></clipPath><path d="M265 257l7-4v4z" class="st181"/><path d="M254 257l18-10v6l-7 4z" class="st182"/><path d="M246 256l26-15v6l-18 10h-8z" class="st183"/><path d="M246 250l26-15v6l-26 15z" class="st184"/><path d="M246 243l26-14v6l-26 15z" class="st185"/><path d="M246 237l26-14v6l-26 14z" class="st186"/><path d="M246 231l22-12h4v4l-26 14z" class="st187"/><path d="M246 225l11-6h11l-22 12z" class="st188"/><path d="M257 219l-11 6v-6z" class="st189"/><path fill="#f20839" d="M277 275l10-5v5z" clip-path="url(#SVGID_22_)"/><path fill="#f2093a" d="M266 275l21-12v7l-10 5z" clip-path="url(#SVGID_22_)"/><path fill="#f30a3b" d="M255 275l32-18v6l-21 12z" clip-path="url(#SVGID_22_)"/><path fill="#f30b3b" d="M244 275l43-24v6l-32 18z" clip-path="url(#SVGID_22_)"/><path d="M232 275l55-30v6l-43 24z" class="st181"/><path d="M231 270l56-31v6l-55 30h-1z" class="st182"/><path d="M231 264l56-31v6l-56 31z" class="st183"/><path d="M231 258l56-31v6l-56 31z" class="st184"/><path d="M231 252l56-31v6l-56 31z" class="st185"/><path d="M231 246l56-31v6l-56 31z" class="st186"/><path d="M231 239l56-31v7l-56 31z" class="st187"/><path d="M231 233l54-30 2 4v1l-56 31z" class="st188"/><path d="M231 227l44-24h10l-54 30z" class="st189"/><path fill="#f71542" d="M231 221l33-18h11l-44 24z" clip-path="url(#SVGID_22_)"/><path fill="#f71742" d="M231 215l22-12h11l-33 18z" clip-path="url(#SVGID_22_)"/><path fill="#f81843" d="M231 209l11-6h11l-22 12z" clip-path="url(#SVGID_22_)"/><path fill="#f81944" d="M242 203l-11 6v-6z" clip-path="url(#SVGID_22_)"/></g><g><defs><path id="SVGID_23_" d="M346 231l-37 15c-6 2-11 2-13 1-3-2-5-5-5-11l-1-23c0-5 1-10 4-13 3-4 7-7 13-9l38-15v13l-32 12c-3 1-6 3-7 5l-1 7 40-16 1 13-41 15v1l1 3 1 2 3 1 4-1 32-13v13z"/></defs><clipPath id="SVGID_24_"><use overflow="visible" xlink:href="#SVGID_23_"/></clipPath><path fill="#f20739" d="M337 248l9-5v5z" clip-path="url(#SVGID_24_)"/><path fill="#f20839" d="M326 248l20-11v6l-9 5z" clip-path="url(#SVGID_24_)"/><path fill="#f2093a" d="M314 248l32-17v6l-20 11z" clip-path="url(#SVGID_24_)"/><path fill="#f30a3b" d="M303 248l43-23v6l-32 17z" clip-path="url(#SVGID_24_)"/><path fill="#f30b3b" d="M292 248l54-29v6l-43 23z" clip-path="url(#SVGID_24_)"/><path fill="#f30c3c" d="M292 248l-2-3v-2l56-31v7z" clip-path="url(#SVGID_24_)"/><path fill="#f40d3c" d="M290 237l56-31v6l-56 31z" clip-path="url(#SVGID_24_)"/><path fill="#f40e3d" d="M290 231l56-31v6l-56 31z" clip-path="url(#SVGID_24_)"/><path fill="#f50f3e" d="M290 225l56-31v6l-56 31z" clip-path="url(#SVGID_24_)"/><path fill="#f5103e" d="M290 219l56-31v6l-56 31z" clip-path="url(#SVGID_24_)"/><path fill="#f5113f" d="M290 213l56-31v6l-56 31z" clip-path="url(#SVGID_24_)"/><path fill="#f61240" d="M290 207l56-31v6l-56 31z" clip-path="url(#SVGID_24_)"/><path fill="#f61340" d="M290 201l45-25h11l-56 31z" clip-path="url(#SVGID_24_)"/><path fill="#f61441" d="M290 195l34-19h11l-45 25z" clip-path="url(#SVGID_24_)"/><path fill="#f71542" d="M290 188l23-12h11l-34 19z" clip-path="url(#SVGID_24_)"/><path fill="#f71742" d="M290 182l12-6h11l-23 12z" clip-path="url(#SVGID_24_)"/><path fill="#f81843" d="M290 176h12l-12 6z" clip-path="url(#SVGID_24_)"/><path fill="#f81944" d="M290 176z" clip-path="url(#SVGID_24_)"/></g><g><defs><path id="SVGID_25_" d="M390 190l-1-31 15-6 1 55-13 5-28-21 1 32-14 5-2-55 13-5 28 21zm-4-34l-9 4-6-4-4 8-11 4 10-16 9-4 5 4 5-8 10-4-9 16z"/></defs><clipPath id="SVGID_26_"><use overflow="visible" xlink:href="#SVGID_25_"/></clipPath><path d="M394 168l1-1v1z" class="st216"/><path d="M383 168l12-7v6l-1 1z" class="st217"/><path d="M372 168l23-13v6l-12 7z" class="st218"/><path d="M361 168l34-19v6l-23 13z" class="st219"/><path d="M356 164l39-21v6l-34 19h-5z" class="st220"/><path d="M356 158l33-18h6v3l-39 21z" class="st221"/><path d="M356 152l22-12h11l-33 18z" class="st222"/><path d="M356 146l11-6h11l-22 12z" class="st223"/><path fill="#f81843" d="M367 140l-11 6v-6z" clip-path="url(#SVGID_26_)"/><path fill="#f00437" d="M404 229h1z" clip-path="url(#SVGID_26_)"/><path fill="#f10537" d="M393 229l12-6v6h-1z" clip-path="url(#SVGID_26_)"/><path fill="#f10638" d="M382 229l23-12v6l-12 6z" clip-path="url(#SVGID_26_)"/><path fill="#f20739" d="M371 229l34-18v6l-23 12z" clip-path="url(#SVGID_26_)"/><path fill="#f20839" d="M360 229l45-25v7l-34 18z" clip-path="url(#SVGID_26_)"/><path fill="#f2093a" d="M349 229l56-31v6l-45 25z" clip-path="url(#SVGID_26_)"/><path fill="#f30a3b" d="M349 223l56-31v6l-56 31z" clip-path="url(#SVGID_26_)"/><path fill="#f30b3b" d="M349 217l56-31v6l-56 31z" clip-path="url(#SVGID_26_)"/><path fill="#f30c3c" d="M349 211l56-31v6l-56 31z" clip-path="url(#SVGID_26_)"/><path fill="#f40d3c" d="M349 205l56-31v6l-56 31z" clip-path="url(#SVGID_26_)"/><path fill="#f40e3d" d="M349 199l56-31v6l-56 31z" clip-path="url(#SVGID_26_)"/><path d="M349 193l56-31v6l-56 31z" class="st216"/><path d="M349 187l56-32v7l-56 31z" class="st217"/><path d="M349 181l50-28h6v2l-56 32z" class="st218"/><path d="M349 174l39-21h11l-50 28z" class="st219"/><path d="M349 168l27-15h12l-39 21z" class="st220"/><path d="M349 162l16-9h11l-27 15z" class="st221"/><path d="M349 156l5-3h11l-16 9z" class="st222"/><path d="M354 153l-5 3v-3z" class="st223"/></g><g><defs><path id="SVGID_27_" d="M463 146l1 39-14 6-1-22-26 10 1 22-14 5-2-39c0-5 1-10 4-13 3-4 7-7 13-9l21-8c6-3 10-3 13-2 2 2 4 6 4 11zm-40 21l26-10-1-4-1-2-3-1-4 1-9 4c-4 1-6 3-7 5l-1 7z"/></defs><clipPath id="SVGID_28_"><use overflow="visible" xlink:href="#SVGID_27_"/></clipPath><path d="M440 167l9-5v5z" class="st236"/><path d="M429 167l20-11v6l-9 5z" class="st237"/><path d="M423 164l25-14h1v6l-20 11h-6z" class="st238"/><path d="M423 158l14-8h11l-25 14z" class="st239"/><path d="M423 152l3-2h11l-14 8z" class="st240"/><path d="M426 150l-3 2v-2z" class="st241"/><path fill="#f00336" d="M457 206l7-4v4z" clip-path="url(#SVGID_28_)"/><path fill="#f00437" d="M446 206l18-10v6l-7 4z" clip-path="url(#SVGID_28_)"/><path fill="#f10537" d="M435 206l29-16v6l-18 10z" clip-path="url(#SVGID_28_)"/><path fill="#f10638" d="M424 206l40-22v6l-29 16z" clip-path="url(#SVGID_28_)"/><path fill="#f20739" d="M413 206l51-28v6l-40 22z" clip-path="url(#SVGID_28_)"/><path fill="#f20839" d="M408 203l56-31v6l-51 28h-5z" clip-path="url(#SVGID_28_)"/><path fill="#f2093a" d="M408 197l56-31v6l-56 31z" clip-path="url(#SVGID_28_)"/><path fill="#f30a3b" d="M408 191l56-31v6l-56 31z" clip-path="url(#SVGID_28_)"/><path d="M408 185l56-31v6l-56 31z" class="st236"/><path d="M408 178l56-31v7l-56 31z" class="st237"/><path d="M408 172l56-31v6l-56 31z" class="st238"/><path d="M408 166l55-30 1 2v3l-56 31z" class="st239"/><path d="M408 160l47-26h7l1 2-55 30z" class="st240"/><path d="M408 154l36-20h11l-47 26z" class="st241"/><path fill="#f5113f" d="M408 148l25-14h11l-36 20z" clip-path="url(#SVGID_28_)"/><path fill="#f61240" d="M408 142l14-8h11l-25 14z" clip-path="url(#SVGID_28_)"/><path fill="#f61340" d="M408 136l3-2h11l-14 8z" clip-path="url(#SVGID_28_)"/><path fill="#f61441" d="M411 134l-3 2v-2z" clip-path="url(#SVGID_28_)"/></g><g><path d="M90 275l2 55-13 5-28-21 1 32-15 5-2-55 13-5 29 21-1-31 14-6zM150 268l1 39-15 6v-22l-26 10 1 22-15 5-1-39c0-5 1-10 4-13 2-4 6-7 12-9l21-8c6-2 11-3 13-1 3 1 5 5 5 10zm-40 21l25-10v-4l-1-2-3-1-4 1-9 4c-4 1-6 3-7 5l-1 7zM170 262a52 52 0 003 8 84 84 0 004 9l2 3 2 1 3-3 2-7 3-15 5-23 15-6-8 43-2 5a40 40 0 01-6 12l-5 4-13 5h-5l-4-2-3-4-2-5-11-35 15-6 5 16zM229 277l-15 6-2-55 15-6 2 55zM286 215l1 23c0 6-1 10-4 14-2 3-7 6-13 9l-37 14-2-55 38-15c6-2 10-2 13-1 2 2 4 6 4 11zm-23 5l-17 7 1 30 17-7 5-2a9 9 0 003-5v-17-4l-2-2-2-1-5 1zM346 231l-37 15c-6 2-11 2-13 1-3-2-5-5-5-11l-1-23c0-5 1-10 4-13 3-4 7-7 13-9l38-15v13l-32 12c-3 1-6 3-7 5l-1 7 40-16 1 13-41 15v1l1 3 1 2 3 1 4-1 32-13v13zM390 190l-1-31 15-6 1 55-13 5-28-21 1 32-14 5-2-55 13-5 28 21zm-4-34l-9 4-6-4-4 8-11 4 10-16 9-4 5 4 5-8 10-4-9 16zM463 146l1 39-14 6-1-22-26 10 1 22-14 5-2-39c0-5 1-10 4-13 3-4 7-7 13-9l21-8c6-3 10-3 13-2 2 2 4 6 4 11zm-40 21l26-10-1-4-1-2-3-1-4 1-9 4c-4 1-6 3-7 5l-1 7z" class="st254"/></g></g></svg>