<svg xmlns="http://www.w3.org/2000/svg" viewBox="0 0 746 453.4"><defs/><defs><style>.cls-1{fill:#f5dd40}.cls-2{fill:#dd541d}.cls-3{fill:#595959}.cls-4{fill:#1ace00}.cls-5{fill:#12b500}.cls-6{fill:#4b00c1}.cls-7{fill:#fff}.cls-8{fill:#83d462}.cls-9{opacity:.46}.cls-10{fill:#340087}.cls-11{fill:#6faf51}</style></defs><g id="Capa_2" data-name="Capa 2"><g id="OBJECTS"><path d="M444.5 344.4q-1.2-4.5-2-9l-10.5 3.1a43.2 43.2 0 007.1-4.6l-13.7-2.4a46.5 46.5 0 0010.2-2.7q-4.8-4.6-9.4-9.4 6 2.8 11.7 6.2-.3-9.2-.2-18.3l6.8 14.2a123.3 123.3 0 019.1-11.9c-1.7 3.8-3.6 7.5-5.5 11.2l12-5.1q-5.3 4.8-10 10l10 .7a45.3 45.3 0 01-8.5 1.4 20.4 20.4 0 018.3 7.8l-10.4-2.6a61 61 0 014.6 11.7l-4.2-5.4c-.8-1-2.6-4.5-3.9-4.7-1.1 3-1.3 6.7-1.5 9.8z" class="cls-1"/><path d="M434.3 330.3l6.7-1q-2.7-1.6-5.5-2.8a59.6 59.6 0 017.2 1 37.9 37.9 0 01-1.6-5.7 30.6 30.6 0 003.2 4.1l2.5-4.6-.6 4.4a21.5 21.5 0 004-1.8l-3 2.4a13.2 13.2 0 014 .5 29.2 29.2 0 00-4.6 1l4 2.4a18.7 18.7 0 00-3.5-.8l3 4.4q-1.9-1.7-3.9-3.1l-1.8 5v-4a23.7 23.7 0 00-3.8 3c0-1.2.6-3.2.6-3.2l-7-1.2z" class="cls-2"/><path d="M484.5 348c-3.4-1.5-7-.7-10.4.3-4 1.2-8 2.6-12.2 3a34.8 34.8 0 01-13.2-1.3 17.3 17.3 0 01-6.4-3.2 12.4 12.4 0 01.4-19.2 1.4 1.4 0 011.9.4 1.4 1.4 0 01-.3 1.9 9.7 9.7 0 00-3.2 10.2 10 10 0 003.2 4.8 15.7 15.7 0 005.8 2.6 32.6 32.6 0 0012.4 1c3.8-.4 7.3-1.8 11-2.8 4-1.2 8.2-2 12.1-.1a1.4 1.4 0 01-1.1 2.4z" class="cls-3"/><path d="M409.1 370s-2.6 1.5-1.3 6.7c1.3 5.5 4.1 5.3 4.1 5.3l91-21.5-2.8-12z" class="cls-4"/><path d="M500.9 352l-91 21.5s-2 1.1-1.6 5a13.2 13.2 0 01-.5-1.8c-1.3-5.2 1.3-6.6 1.3-6.6l91-21.5z" class="cls-5"/><path d="M480.8 365.8a15.7 15.7 0 00-4.4-5.7 48.8 48.8 0 00-7-4.3l14-3.4s4.6 11.9 4.4 11.9z" class="cls-5"/><path d="M484 330.2s-8.6.9-1.9 29.5c6.6 27.6 15 25.6 15 25.6l116.3-27.6-13-55z" class="cls-6"/><path d="M575 308.7c2 7.8 7 21.7 8 23.3a105.7 105.7 0 0022.7 27.6l-19.5 4.6a112.5 112.5 0 01-19.7-26.2 78.3 78.3 0 01-10.2-24.9z" class="cls-7"/><path d="M599 361.2s-12.4-9.3-19.4-22.4-10.8-28.6-10.8-28.6l-4.8 1s4.4 16.4 11.6 28.5a113.6 113.6 0 0018 22.7z" class="cls-8"/><path d="M537 317.7c2 7.8 7 21.7 8 23.3a105.6 105.6 0 0022.6 27.6l-19.4 4.6-4.4-4.4c-6.1-6.5-11-14.1-15.3-21.8s-8.8-16.1-10.3-24.9z" class="cls-7"/><path d="M561 370.1s-12.4-9.2-19.3-22.3-10.9-28.7-10.9-28.7l-4.8 1.2s4.4 16.3 11.6 28.4a113.6 113.6 0 0018 22.7z" class="cls-8"/><path d="M502.9 325.7c2 7.9 7 21.8 8 23.3a105.8 105.8 0 0022.7 27.6l-19.5 4.6a113 113 0 01-19.7-26.2 78.1 78.1 0 01-10.2-24.8z" class="cls-7"/><path d="M526.9 378.2s-12.4-9.3-19.4-22.4-10.8-28.6-10.8-28.6l-4.8 1.1s4.4 16.3 11.6 28.5a113.7 113.7 0 0018 22.7z" class="cls-8"/><g class="cls-9"><path d="M601.6 352.9a6.6 6.6 0 01-3.7 2.6c-3.7 1.3-7.7 1.6-11.6 2a219.2 219.2 0 00-38.6 7c-4.6 1.3-9.6 2.8-14.3 1.3a3.5 3.5 0 01-2.5-2.1c-.4-1.7 1.4-3 3-3.7a59.3 59.3 0 0113-3.1c13-2 26.4-4 38.5-9.3 2.7-1.2 5.5-2.7 8.6-2.9 3.7-.2 10.3 3.6 7.6 8.2z" class="cls-7"/></g><path d="M608 359s-10-16.6-16-30.6-9-21.6-9-21.6l16.4-3.7 14 54.6z" class="cls-10"/><path d="M659.4 317.8l-43.6 49.9s-5 1.2-14.3-36.2-3.4-38.8-3.4-38.8z" class="cls-8"/><path d="M598 292.8l61.4 25c-.9-.4-40.8-4.3-62.1-6.4-2.8-17.8.8-18.6.8-18.6z" class="cls-11"/><g class="cls-9"><path d="M635.6 340.6a89.5 89.5 0 01-5.2 5 4.4 4.4 0 01-3.2 1.6 2.9 2.9 0 01-2.3-2.3 5.1 5.1 0 01.7-3.4c2-4.1 7-5.8 10.5-8.7 1.8-1.4 11.8-14.4 13.8-9.7 1.1 2.8-4.1 6.8-5.7 8.5z" class="cls-7"/></g><g class="cls-9"><path d="M623.7 349.6c.7 1.5-.7 3.2-2 4.2s-3.2 1.9-4.6 1a3 3 0 01-1.3-2.5 7 7 0 01.6-2.9 8 8 0 011.7-2.7 3.6 3.6 0 013-1.1c2 .2 3 2.6 3.2 4.6z" class="cls-7"/></g><path d="M80.4 248.8h319.2a143.5 143.5 0 01-143.5 143.5H80.4a71.8 71.8 0 01-71.8-71.8 71.8 71.8 0 0171.8-71.7z" class="cls-4" transform="rotate(-6.1 204 320.4)"/><path d="M185.3 29.8h464a98.4 98.4 0 0198.3 98.4 98.4 98.4 0 01-98.4 98.4H-11.5A196.7 196.7 0 01185.3 29.8z" class="cls-6" transform="rotate(-6.1 368 128.2)"/><path d="M150.3 141l-8.8 38.5q-3 13.3-11.8 20.5t-25.4 9l-38 4.1q-16.5 1.7-22.3-4t-2.8-18.9l8.7-38.5q3-13.3 11.9-20.5t25.3-9l38.1-4.1q16.5-1.8 22.3 3.9t2.8 19zm-40.5-1l-17 1.8q-9.3 1-13 4.8t-5.1 10.7l-5 21.7a29.3 29.3 0 00-.9 6.1 6.1 6.1 0 001.2 4 6.4 6.4 0 004 2.2 25.9 25.9 0 007.6 0l16.9-1.8a32.3 32.3 0 007.8-1.7 15.8 15.8 0 005.3-3 13.4 13.4 0 003.2-4.6 35.4 35.4 0 002-6.3l5-21.6a32.5 32.5 0 00.8-6 6.4 6.4 0 00-1.2-4.2 6.5 6.5 0 00-4-2 26.3 26.3 0 00-7.6-.1zM175.5 201.4l-26.6 2.8 14.8-64.6q3-13.4 11.9-20.6t25.3-9l69.2-7.3-4.8 20.6-58.6 6.3q-9.4 1-13.1 4.7t-5.1 10.8l-.2.2 73.8-7.9-4.7 20.7-73.8 7.9zM363 181.4l-69.2 7.4q-16.5 1.7-22.3-4t-2.8-19l8.8-38.4q3-13.3 11.8-20.6t25.4-9l69.2-7.3-4.8 20.7-58.7 6.2q-9.3 1-13 4.8t-5.2 10.8l-.1.2 73.7-7.9-4.7 20.7-73.7 7.9-.2.8a29.2 29.2 0 00-.9 6 6.1 6.1 0 001.2 4.2 6.4 6.4 0 004 2 25.9 25.9 0 007.6 0l58.6-6.2zM456.6 140.7l21.4 28.4-29.6 3.2-22-28.2-16.2 1.7-7.2 31.3-26.6 2.9 21-90.9 69.1-7.3q16.5-1.8 22.3 3.8t2.8 19l-1.6 7q-2.9 12.7-10.6 19.8t-22.8 9.3zm-3.7-37.4l-33.8 3.7-4 18 33.8-3.6a50.6 50.6 0 006.7-1 13.4 13.4 0 004.3-2 8.2 8.2 0 002.7-3 18.2 18.2 0 001.6-4.4 19.2 19.2 0 00.7-4.7 2.9 2.9 0 00-1.2-2.6 7.5 7.5 0 00-3.9-.8 64 64 0 00-6.9.4zM569.1 91l-16 70.2-26.6 2.8 16-70.2-36.5 3.9 4.8-20.7 99.7-10.6-4.8 20.6zM718 80.4l-14.7 64.7-26.6 2.8 8.1-35.5-47.1 5-8.2 35.6-26.5 2.8 14.8-64.7q3-13.3 11.9-20.5t25.3-9l38-4q16.5-1.8 22.3 3.9t2.8 19zm-75.5 16.3l47.1-5a33.3 33.3 0 00.8-6 6.4 6.4 0 00-1.2-4.1 6.6 6.6 0 00-4-2.1 26.6 26.6 0 00-7.5 0l-17 1.7q-9.4 1-13 4.7t-5.2 10.8zM36 349.7a23.4 23.4 0 011.8-5 21.2 21.2 0 012.6-4 29.1 29.1 0 013-3.2 16.1 16.1 0 012.8-2l41-22a4.2 4.2 0 001.8-1.8v-.1c.2-1-.3-1.4-1.6-1.2L44 315l3.3-14 54.5-5.9q5.9-.6 9 2t3 7.9a5 5 0 00-.1.6l-.2 1.1a17.9 17.9 0 01-1.5 4.2 30.5 30.5 0 01-2.3 4 23 23 0 01-3 3.6 15.4 15.4 0 01-3.4 2.5L61 343.8l-.6 2.4 45.2-4.9-3.2 14.1-69.4 7.4zM189.8 303.1l-6 26.2q-2 9.1-8 14t-17.3 6.2l-26 2.7q-11.1 1.2-15-2.6t-2-13l6-26.2q2-9 8-14t17.3-6l26-2.8q11.1-1.2 15 2.6t2 13zm-27.6-.7l-11.5 1.2q-6.4.7-8.9 3.3a14 14 0 00-3.5 7.3L135 329a20.6 20.6 0 00-.6 4.2 4.2 4.2 0 00.8 2.8 4.4 4.4 0 002.7 1.4 18 18 0 005.2 0l11.5-1.2a22.5 22.5 0 005.3-1.1 10.7 10.7 0 003.6-2.1 9 9 0 002.2-3.1 24.2 24.2 0 001.4-4.3l3.4-14.7a22.5 22.5 0 00.5-4.1 4.3 4.3 0 00-.8-2.9 4.4 4.4 0 00-2.8-1.4 18.1 18.1 0 00-5 0zM191.8 333a23.9 23.9 0 011.8-5 20.8 20.8 0 012.7-4 26.4 26.4 0 013-3 17.1 17.1 0 012.8-2.2l41-22a4.3 4.3 0 001.7-1.8h.1c.2-1-.4-1.4-1.7-1.3l-43.3 4.7 3.3-14.1 54.6-5.8q5.8-.7 8.9 2t3 7.9a2.7 2.7 0 00-.1.5l-.2 1.2a18.3 18.3 0 01-1.5 4.1 29 29 0 01-2.3 4.1 22.4 22.4 0 01-3 3.6 15.4 15.4 0 01-3.4 2.5l-42.4 22.8-.6 2.3 45.2-4.8-3.2 14-69.3 7.5zM338.3 316.5l-3.2 14-67.9 7.3 3.2-14 25-2.7 7.7-33.7-25 2.6 3.4-14 43-4.6-11 47.8z" class="cls-7"/><path d="M396.2 406.2q4 6 8.3 11.8l-14.6 8.8a68.4 68.4 0 0112.8-3.4l-11.5 18.3a72.9 72.9 0 0113.7-9q.2 10.3 1 20.7 3-10 5-20 10.3 9.8 21 19.2l-9.3-22.6a189.3 189.3 0 0023.2 2q-9.2-3-18.6-5.3l18.4-8.5q-11 1-22 1L433 407a71.2 71.2 0 00-10.5 8.3 31.6 31.6 0 00-.3-17.7l-7.8 14.7a94.2 94.2 0 00-8.7-17.4l2 10.4c.3 2 2.4 7.7 1.3 9.4-4.6-1.8-9-5.5-12.9-8.5z" class="cls-1"/><path d="M401.9 432.7l8-6.8c-.6 3.2-1.4 6.2-2.4 9.3a90.9 90.9 0 006.2-9.4 61.4 61.4 0 005 7.8 49.7 49.7 0 01-1.4-8l7.9 2-5.6-4a33.5 33.5 0 016-2.6l-5.7.8a20.1 20.1 0 003.6-5 44.5 44.5 0 01-6.2 4.3l1.5-7.2a30.4 30.4 0 01-2.8 5l-1.9-8.1-.3 7.6-7.7-3 4.7 4.2a37.8 37.8 0 01-7.4 1.4c1.4 1 4.3 2.5 4.3 2.5l-5.8 9.2z" class="cls-2"/><path d="M433.7 356.3c-1.7 5.4-6.5 8.9-11.2 11.7-5.6 3.4-11.2 6.5-16 11a54.2 54.2 0 00-12.3 16.5 27 27 0 00-3 10.8 19.3 19.3 0 0022.5 19.5 2.2 2.2 0 001.7-2.5 2.2 2.2 0 00-2.6-1.7 15 15 0 01-15-7 15.4 15.4 0 01-2.2-8.6 24.6 24.6 0 012.9-9.4 51 51 0 0111.8-15.3c4.5-4 9.7-6.7 14.8-9.8 5.4-3.4 10.7-7.5 12.8-13.9.8-2.6-3.3-4-4.2-1.3z" class="cls-3"/><path d="M329.7 420.3s-4.3 1.5-9-5.4c-5-7.2-1.8-10.3-1.8-10.3L438.4 322l10.9 15.8z" class="cls-4"/><path d="M446.2 333.3l-119.6 82.6s-3.3 1.1-7.3-3.3a22 22 0 001.4 2.4c4.7 6.8 9 5.3 9 5.3l119.6-82.6z" class="cls-5"/><path d="M409.4 342a24.4 24.4 0 011.8 11 75.8 75.8 0 01-2.2 12.5l18.5-12.5s-9-17.6-9.1-17.5l-9 6.5z" class="cls-5"/><path d="M453.8 375.4s-10 9-36-28.6c-25-36.3-14-43.8-14-43.8l152.9-105.7 50 72.4z" class="cls-6"/><path d="M573.3 292.8c-7-10.5-17.8-30.8-18.6-33.4-8.3-26-8.8-49.2-8.3-55L521 222c0 3.5.2 6.8.5 9.7 1 13.8 5 27.3 9.2 40.4s9.5 26.9 18 37.7z" class="cls-7"/><path d="M537.7 210.4s-2.3 24 5.7 45.7 21.8 42.3 21.8 42.3l-6.4 4.4s-14.2-22-20.7-43a176.4 176.4 0 01-7.5-44.4z" class="cls-8"/><path d="M523.3 327.3a311 311 0 01-18.6-33.4c-8.3-26-8.8-49.1-8.2-55l-25.6 17.7c0 3.4.2 6.7.5 9.6a178 178 0 009.2 40.4c4.4 13.3 9.5 26.9 18 37.7z" class="cls-7"/><path d="M487.7 245s-2.2 24 5.7 45.6 21.8 42.3 21.8 42.3l-6.3 4.4s-14.3-22-20.8-43a176.4 176.4 0 01-7.5-44.4z" class="cls-8"/><path d="M478.5 358.3c-7-10.5-17.7-30.9-18.5-33.5-8.4-25.9-8.8-49.1-8.3-55l-25.6 17.7c0 3.4.3 6.7.5 9.7 1.1 13.8 5 27.2 9.3 40.3 4.3 13.3 9.4 27 18 37.8z" class="cls-7"/><path d="M443 275.9s-2.3 24 5.7 45.6 21.7 42.3 21.7 42.3l-6.3 4.4s-14.2-22-20.7-43a176.4 176.4 0 01-7.5-44.4z" class="cls-8"/><g class="cls-9"><path d="M550 216c-2.3-.5-4.8.4-6.9 1.5-5.4 3-9.9 7.3-14.4 11.4a339 339 0 01-48.2 37.2c-6.3 4-13.2 8.3-16.3 15.2-.8 1.6-1.3 3.6-.3 5.1 1.6 2.3 5.1 1.6 7.6.4 6.2-3 11.6-7.5 17-11.8 16-13 32-26.2 50.7-34.6 4.3-2 8.9-3.7 12.3-7 4.1-4.1 6.6-15.6-1.5-17.4z" class="cls-7"/></g><path d="M549.5 202.3s8.6 28.8 18.7 50.4 15.6 32.8 15.6 32.8l21.3-15-48.4-73.2z" class="cls-10"/><path d="M650.7 185.8l-103-1.5s-6.5 4.5 26.9 54.1 41.1 44.3 41.1 44.3z" class="cls-8"/><path d="M615.7 282.7l35-96.9a4859 4859 0 01-57.3 78.5c17.6 21.7 22.3 18.4 22.3 18.4z" class="cls-11"/><g class="cls-9"><path d="M599.6 189.6c-3.8.2-7.6.3-11.3.7-1.9.2-4 .6-5 2a4.5 4.5 0 00.2 5.2 8 8 0 004.6 2.8c6.9 1.7 13.9-2 20.9-3.2 3.5-.5 29 1.4 25.6-5.7-2-4.3-12.2-2.4-15.7-2.3z" class="cls-7"/></g><g class="cls-9"><path d="M576.8 194c-1-2.4-4.4-2.5-7-2s-5.5 1.8-6 4.3a4.8 4.8 0 001.6 4.2 10.9 10.9 0 004 2.2 12.4 12.4 0 004.9.9 5.6 5.6 0 004.3-2.2c1.8-2.7.2-6.3-2-8.6z" class="cls-7"/></g></g></g></svg>