<svg xmlns="http://www.w3.org/2000/svg" viewBox="0 0 512 137.5"><defs/><defs><style>.cls-3{fill:#fff}</style></defs><g id="Capa_2" data-name="Capa 2"><g id="Capa_1-2" data-name="Capa 1"><path fill="#0c0" d="M168.5 51H512v43.2a43.3 43.3 0 01-43.3 43.3h-257a43.3 43.3 0 01-43.2-43.3V50.9z"/><rect width="512" height="86.5" fill="#ff001f" rx="43.3"/><path d="M109.2 28.5l-8.5 31.8q-3 11-9.3 16.3t-17.5 5.3H48.4q-11 0-14.5-5.4t-.5-16.2l8.5-31.8q3-11 9.3-16.2T68.7 7h25.5q11 0 14.5 5.3t.5 16.2zM82.4 24H71.2q-6.3 0-9 2.8t-4.2 8.7L53 53.3a31.7 31.7 0 00-1 5.1 6.6 6.6 0 00.5 3.6 4.4 4.4 0 002.5 2.1 14 14 0 005 .7h11.4a17.5 17.5 0 005.3-.7 9.7 9.7 0 003.7-2.1 11 11 0 002.5-3.5 33.6 33.6 0 001.8-5.1l4.9-17.9a33.6 33.6 0 00.9-5A6.7 6.7 0 0090 27a4.6 4.6 0 00-2.6-2.1 14.2 14.2 0 00-5-.8zM121.7 81.8h-17.9l14.5-53.3q2.9-11 9.3-16.2T145 7h46.5l-4.7 17h-39.3c-4.2 0-7.2 1-9 2.8s-3.2 4.8-4.2 8.7v.1h49.4l-4.6 17h-49.5zM247.6 81.8h-46.4q-11.1 0-14.6-5.3t-.5-16.2l8.6-31.8q2.9-11 9.3-16.2T221.4 7H268l-4.7 17H224q-6.3 0-9 2.8t-4.2 8.7v.1H260l-4.6 17H206l-.2.6a30.5 30.5 0 00-1 5.1 6.4 6.4 0 00.5 3.6 4.5 4.5 0 002.5 2.1 14 14 0 005 .7H252zM312.6 55.9l12.2 26H305L292.4 56h-10.9l-7 25.8h-17.9L277 7h46.5q11 0 14.5 5.3t.5 16.3l-1.5 5.8Q334 44.8 328.4 50t-15.8 5.8zm.2-31.9h-22.7l-4 14.9h22.7a25.6 25.6 0 004.5-.4 7.6 7.6 0 003-1.1 6.2 6.2 0 002-2.3 17 17 0 001.4-3.6 18.8 18.8 0 00.8-4 2.8 2.8 0 00-.7-2.2 4.4 4.4 0 00-2.4-1 32.7 32.7 0 00-4.6-.3zM390.9 24l-15.7 57.8h-17.8L373 24h-24.6l4.7-17h67l-4.7 17zM490.5 28.5L476 81.8h-17.9l8-29.3h-31.7l-8 29.3h-17.8l14.4-53.3q3-11 9.3-16.2T450 7h25.6q11 0 14.5 5.3t.5 16.2zm-51.3 7h31.6a33.8 33.8 0 001-5 6.8 6.8 0 00-.6-3.6 4.5 4.5 0 00-2.5-2.1 14.2 14.2 0 00-5-.7h-11.4c-4.2 0-7.2 1-9 2.8s-3.2 4.7-4.2 8.6zM229.5 108l-5.8 17h-8.3l6.7-19.4a11 11 0 014.3-6q3-1.9 8.1-1.9h11.9q5.1 0 6.7 2t.2 5.9l-6.6 19.4h-8.3l5.8-16.9a10.6 10.6 0 00.4-1.8 2 2 0 00-.2-1.3 2 2 0 00-1.2-.8 8.3 8.3 0 00-2.3-.3h-5.2a6.7 6.7 0 00-4.2 1 6.4 6.4 0 00-2 3.2zM276.7 125l.6-9h-13l-5.4 9h-8.5l11.7-19.5a19 19 0 011.7-2.4 21.6 21.6 0 012.5-2.5 18 18 0 012.9-2 5.6 5.6 0 012.7-.9h10.4a3.4 3.4 0 012.2.8 5.3 5.3 0 011.5 1.8 8.5 8.5 0 01.7 2.5 16.7 16.7 0 01.1 2.8l-1.6 19.4zm1.1-15.2a11.8 11.8 0 00-.2-4.5 2 2 0 00-2-1.4h-1.3a3.6 3.6 0 00-1.5.3 4.9 4.9 0 00-1.4 1 13.5 13.5 0 00-1.4 1.8 72 72 0 00-1.9 2.8zM301 106.7l-.2 2v5a19.8 19.8 0 00.4 2.6 8.5 8.5 0 00.5 1.7c.2.5.4.7.7.7h.4a2.6 2.6 0 001.7-.8 20 20 0 002.5-3.1q1.7-2.3 4.3-6.4t6.7-10.7h8.5L314.7 117a15.9 15.9 0 01-1.9 2.5 26.7 26.7 0 01-2.6 2.5 18.2 18.2 0 01-3 2 5.8 5.8 0 01-2.8.8h-7.7a3.6 3.6 0 01-2.2-.7 5.5 5.5 0 01-1.6-1.9 8.4 8.4 0 01-.8-2.5 10.4 10.4 0 01-.2-2.7l1.4-19.5h8.5zM329.1 125h-8.3l9.4-27.3h8.4zM371.2 105.5l-4 11.6a11 11 0 01-4.3 6q-3 1.9-8.1 1.9h-21.5l9.4-27.3h21.6q5 0 6.7 1.9t.2 6zm-12.4-1.6h-10l-5.1 14.8h10a10.2 10.2 0 002.4-.2 4.8 4.8 0 001.8-.8 4 4 0 001.1-1.3 10.9 10.9 0 00.8-1.9l2.3-6.4a9.7 9.7 0 00.4-1.9 2 2 0 00-.2-1.3 2 2 0 00-1.2-.8 8.3 8.3 0 00-2.3-.2zM400 125h-21.6q-5.1 0-6.7-2t-.2-5.9l3.9-11.5a11 11 0 014.3-6 14.7 14.7 0 018.1-1.9h21.6l-2.2 6.2H389a6.7 6.7 0 00-4.2 1 6.4 6.4 0 00-2 3.2h23l-2 6.2h-23l-.1.2a9 9 0 00-.5 1.9 2 2 0 00.2 1.3 2 2 0 001.2.7 8.2 8.2 0 002.3.3h18.3zM418.3 108l-5.9 17h-8.2l6.6-19.4a11 11 0 014.4-6 14.7 14.7 0 018-1.9h12c3.3 0 5.6.6 6.6 2s1.2 3.2.3 5.9l-6.7 19.4h-8.3l5.9-17a10.6 10.6 0 00.4-1.8 2 2 0 00-.2-1.3 2 2 0 00-1.2-.8 8.2 8.2 0 00-2.3-.2h-5.3a6.7 6.7 0 00-4.1 1 6.4 6.4 0 00-2 3.2zM435.5 96h-5.3l-1.8-3-3.7 3h-6.1l7.9-6.2h5.3l1.8 3 3.7-3h6zM465.4 125l.6-9h-13l-5.4 9h-8.5l11.7-19.5a19.9 19.9 0 011.8-2.4 22.5 22.5 0 012.5-2.5 17.6 17.6 0 012.8-2 5.6 5.6 0 012.8-.9H471a3.4 3.4 0 012.2.8 5.3 5.3 0 011.4 1.8 8.2 8.2 0 01.7 2.5 15.6 15.6 0 01.2 2.8L474 125zm1.2-15.2a11.8 11.8 0 00-.3-4.5 2 2 0 00-2-1.4h-1.2a3.6 3.6 0 00-1.6.3 5 5 0 00-1.3 1 12.8 12.8 0 00-1.5 1.8 72 72 0 00-2 2.9z" class="cls-3"/></g></g></svg>