<svg xmlns="http://www.w3.org/2000/svg" viewBox="0 0 887.3 346.8"><defs/><defs><style>.cls-2{fill:#fff}.cls-3{fill:#ff4800;stroke-miterlimit:10;stroke:#1f0051;stroke-width:.5px}</style></defs><g id="Capa_2" data-name="Capa 2"><g id="Capa_1-2" data-name="Capa 1"><path fill="#420082" d="M183 33.6h689.4a15 15 0 0115 15v141.6a156.6 156.6 0 01-156.7 156.6H183.1A156.6 156.6 0 0126.5 190.2 156.6 156.6 0 01183 33.6z" transform="rotate(-180 456.9 190.2)"/><path d="M305.6 97.9l-20.5 59.8h-25.5l11.3-32.9h-45.3l-11.3 33h-25.5l20.6-60q4.2-12.2 13.3-18.2t25-6h36.5q15.8 0 20.7 6t.8 18.3zm-73.3 7.8h45.2a31.1 31.1 0 001.3-5.6 6 6 0 00-.7-4.1 6.2 6.2 0 00-3.6-2.4 25.3 25.3 0 00-7.1-.8h-16.2q-9 0-13 3.2t-5.9 9.7zM368.8 128.6l17.4 29.2h-28.4l-18-29h-15.5l-10 29h-25.5l29-84.1h66.4q15.8 0 20.7 6t.7 18.2l-2.1 6.5q-4 11.7-12.1 17.7t-22.6 6.5zm.3-35.8h-32.5l-5.6 16.7h32.5a47.8 47.8 0 006.4-.4 12.6 12.6 0 004.3-1.3 7.9 7.9 0 002.8-2.5 17.4 17.4 0 002-4 18.7 18.7 0 001.2-4.5 2.8 2.8 0 00-1-2.5 7 7 0 00-3.5-1.2 59 59 0 00-6.6-.3zM442.7 73.7l18.1 45 48.7-45h25.3l-29 84h-25.5l15.2-44.2-45.5 41h-3.5l-17.3-41-15.2 44.3h-25.5l29-84.1zM626.3 97.9l-20.6 59.8h-25.5l11.3-32.9h-45.2l-11.3 33h-25.5l20.6-60q4.2-12.2 13.3-18.2t25-6h36.4q15.8 0 20.8 6t.7 18.3zm-73.3 7.8h45.2a30.8 30.8 0 001.3-5.6 6 6 0 00-.7-4 6.2 6.2 0 00-3.6-2.4 25.2 25.2 0 00-7.1-.8h-16.3q-9 0-12.9 3.2t-5.9 9.6zM725.5 97.9l-12.2 35.6Q709 146 700 151.8t-25 6h-66.3l29-84H704q15.8 0 20.7 5.9t.8 18.2zm-38.3-5h-30.7l-15.8 45.7h30.7a31.2 31.2 0 007.6-.8 15.2 15.2 0 005.3-2.4 12.8 12.8 0 003.6-4 34 34 0 002.5-5.7l7-20a31 31 0 001.3-5.6 6 6 0 00-.7-4 6.2 6.2 0 00-3.7-2.4 25.3 25.3 0 00-7.1-.9zM824 97.7L812 133.3q-4.2 12.4-13.3 18.3t-25 6h-36.5q-15.7 0-20.7-6t-.7-18.3L728 97.8q4.2-12.3 13.3-18.2t25-6h36.4q15.8 0 20.7 6t.8 18.2zm-38.2-5h-16.2q-9 0-12.9 3.1t-6 9.7l-6.9 20a27.5 27.5 0 00-1.4 5.8 5.8 5.8 0 00.7 4 6.2 6.2 0 003.5 2.3 25 25 0 007.2.8H770a31.2 31.2 0 007.6-.8 15 15 0 005.3-2.3 12.8 12.8 0 003.5-4 34.4 34.4 0 002.6-5.8l7-20a31.3 31.3 0 001.3-5.6 6 6 0 00-.8-4 6.2 6.2 0 00-3.6-2.5 25.2 25.2 0 00-7-.8z" class="cls-2"/><path d="M298.3 159.5l-57.7 167h-45.2l-62.2-95.9-33.1 96H49.4l57.6-167h45.2l62.2 95.6 33.2-95.7zM298 326.5h-51l57.6-167h51zM519.3 263.2l-5.2 15.2q-8.4 24.5-26.5 36.3T438 326.5h-72.5q-31.4 0-41.2-11.8t-1.5-36.3l24.2-70.8q8.4-24.5 26.5-36.3t49.5-11.8h72.6q31.4 0 41.2 11.8t1.4 36.3l-5.1 15.3h-50.7a51.5 51.5 0 002.9-11.3q.5-4.9-1.6-7.9c-1.4-2-3.9-3.5-7.3-4.6a50.4 50.4 0 00-14.2-1.6H430q-17.9 0-25.6 6.3t-11.8 19.3L378.7 263a57 57 0 00-2.8 11.4 11.8 11.8 0 001.4 7.9q2 3.2 7 4.7t14.3 1.6H431A61.7 61.7 0 00446 287a32 32 0 0010.5-4.6 23.9 23.9 0 007-7.8 67.6 67.6 0 005-11.3zM695 326.5H563q-31.3 0-41.1-11.8t-1.5-36.3l24.2-70.8q8.4-24.5 26.5-36.3t49.5-11.8h132l-13.3 38H627.6q-17.9 0-25.7 6.3t-11.8 19.3l-.3.3h140.6l-13 38H576.9l-.6 1.5a55.6 55.6 0 00-2.9 11.3 11.7 11.7 0 001.5 8c1.3 2 3.7 3.6 7 4.7s8.1 1.6 14.3 1.6h111.7zM752 326.5h-50.7l13-38H765zm19.6-56.7h-50.7l38-110.3h50.7z" class="cls-3"/><circle cx="101" cy="101" r="96" fill="#ff4800" stroke="#420082" stroke-miterlimit="10" stroke-width="10"/><path d="M45.9 116.2H104a32.3 32.3 0 007.8-.8 15.8 15.8 0 005.5-2.5 13.3 13.3 0 003.7-4.1 34.8 34.8 0 002.6-6l.3-.7H50.8l6.8-19.8h73.2l.1-.1a31.9 31.9 0 001.4-5.9 6.3 6.3 0 00-.8-4.2 6.5 6.5 0 00-3.7-2.5 26 26 0 00-7.4-.8H62.2l7-19.8h68.6q16.4 0 21.5 6.2T160 74l-12.6 37q-4.3 12.8-13.8 18.9t-25.8 6.1H39.1z" class="cls-2"/></g></g></svg>