<svg xmlns="http://www.w3.org/2000/svg" viewBox="0 0 855.3 311.5"><defs/><defs><style>.cls-3{stroke-miterlimit:10}.cls-2{fill:#370072}.cls-3{fill:#ff4800;stroke:#1f0051;stroke-width:.5px}</style></defs><g id="Capa_2" data-name="Capa 2"><g id="Capa_1-2" data-name="Capa 1"><path fill="#eaeaea" stroke="#f2f2f2" stroke-miterlimit="10" d="M155.8.5H839a15.7 15.7 0 0115.7 15.7v139.6A155.3 155.3 0 01699.5 311H155.8A155.3 155.3 0 01.5 155.8v0A155.3 155.3 0 01155.8.5z" transform="rotate(-180 427.7 155.8)"/><path d="M246.2 64.7l-20.6 59.8h-25.5l11.3-32.9h-45.2l-11.2 33h-25.5L150 64.6q4.2-12.3 13.3-18.2t25-6h36.4q15.8 0 20.7 6t.8 18.2zm-73.3 7.8h45.2a31 31 0 001.3-5.6 6 6 0 00-.7-4 6.2 6.2 0 00-3.7-2.4 25.2 25.2 0 00-7-.8h-16.3q-9 0-12.8 3.1t-6 9.7zM309.3 95.4l17.3 29.1h-28.3l-18-29h-15.5l-10 29h-25.5l29-84h66.4q15.7 0 20.7 6t.7 18.2l-2.2 6.5Q340 83 331.8 89t-22.5 6.5zm.3-35.7H277l-5.6 16.6h32.4a46 46 0 006.4-.4 12.8 12.8 0 004.3-1.3 7.8 7.8 0 002.8-2.5 17.3 17.3 0 002-4 18.5 18.5 0 001.2-4.5 2.7 2.7 0 00-1-2.5 7 7 0 00-3.5-1.1 56.8 56.8 0 00-6.5-.3zM385.4 39.4l18 45 48.7-45h25.2l-29 84h-25.4L438 79.2l-45.5 41h-3.5l-17.2-41-15.2 44.2h-25.5l29-84zM568.6 63.6l-20.5 59.8h-25.5l11.3-32.9h-45.2l-11.3 32.9H452l20.6-59.8q4.2-12.3 13.3-18.2t25-6h36.4q15.8 0 20.7 6t.7 18.2zm-73.2 7.8h45.1a31.3 31.3 0 001.3-5.6 6 6 0 00-.7-4 6.2 6.2 0 00-3.6-2.5 25.1 25.1 0 00-7-.8h-16.3q-9 0-12.9 3.2t-6 9.7zM667.7 63.6l-12.1 35.6q-4.2 12.3-13.3 18.2t-25 6H551l29-84h66.3q15.8 0 20.7 6t.7 18.2zm-38.2-5h-30.7L583 104.2h30.7a31.2 31.2 0 007.6-.8 15.2 15.2 0 005.3-2.4 12.8 12.8 0 003.5-4 35.2 35.2 0 002.6-5.7l7-20a31.2 31.2 0 001.2-5.7 6 6 0 00-.7-4 6.2 6.2 0 00-3.6-2.4 25.3 25.3 0 00-7-.8zM768.5 63.2l-12.1 35.6q-4.2 12.3-13.3 18.3t-25 5.9h-36.4q-15.8 0-20.7-6t-.7-18.2l12.1-35.6Q676.6 51 685.7 45t25-6H747q15.8 0 20.7 6t.8 18.2zm-38.2-5h-16.2q-9 0-12.9 3.2t-5.9 9.7l-7 20a27.6 27.6 0 00-1.4 5.7 6 6 0 00.7 4 6.2 6.2 0 003.6 2.4 25.1 25.1 0 007.1.8h16.3a31.2 31.2 0 007.6-.8 15.3 15.3 0 005.2-2.4 12.8 12.8 0 003.6-4 34 34 0 002.5-5.8l7-20a31.2 31.2 0 001.3-5.7 6 6 0 00-.7-4 6.2 6.2 0 00-3.7-2.3 25.2 25.2 0 00-7-.8z" class="cls-2"/><path d="M295 132.6l-50.5 146.5H205L150.3 195l-29 84H76.8l50.6-146.4H167l54.5 83.9 29-83.9zM294.8 279.1h-44.7l50.5-146.5h44.7zM492.8 223.6l-4.5 13.3q-7.4 21.5-23.3 31.9T421.6 279H358q-27.5 0-36.1-10.3t-1.3-31.9l21.2-62q7.3-21.5 23.2-31.9t43.4-10.3h63.7q27.5 0 36 10.3t1.3 31.8l-4.5 13.4h-44.4a45.2 45.2 0 002.5-9.8 9.6 9.6 0 00-1.4-7 11.6 11.6 0 00-6.4-4 44.1 44.1 0 00-12.4-1.4h-28.3q-15.6 0-22.4 5.5t-10.4 17l-12.1 34.8a49.4 49.4 0 00-2.5 10 10.3 10.3 0 001.2 7q1.8 2.7 6.2 4.1a43.9 43.9 0 0012.5 1.4h28.3a54.6 54.6 0 0013.2-1.4 28.4 28.4 0 009.3-4 21 21 0 006.2-6.8 58.8 58.8 0 004.4-10zM646.9 279.1H531.2q-27.5 0-36-10.3t-1.4-31.9l21.3-62q7.3-21.5 23.2-32t43.4-10.3h115.7L685.8 166h-98q-15.7 0-22.5 5.5t-10.3 17l-.3.2H678L666.6 222H543.3l-.5 1.3a49.3 49.3 0 00-2.5 10 10.3 10.3 0 001.3 6.9q1.7 2.8 6.2 4.2a43.9 43.9 0 0012.5 1.4h98zM696.9 279.1h-44.5l11.4-33.3h44.5zm17.2-49.7h-44.5l33.4-96.8h44.4z" class="cls-3"/><circle cx="57.5" cy="63.5" r="57" fill="#ff4800"/><path fill="#fff" d="M27.3 72.7h31.9a17.8 17.8 0 004.3-.4 8.7 8.7 0 003-1.4 7 7 0 002-2.3 19 19 0 001.4-3.2l.2-.4H30l3.7-10.9h40.1a17.8 17.8 0 00.8-3.2 3.5 3.5 0 00-.4-2.3 3.6 3.6 0 00-2-1.4 14.3 14.3 0 00-4-.5h-32L40 36h37.7q9 0 11.7 3.4t.4 10.3L83 69.8a19.2 19.2 0 01-7.5 10.4q-5.2 3.4-14.2 3.3H23.6z"/></g></g></svg>