<svg xmlns="http://www.w3.org/2000/svg" viewBox="0 0 862.6 335.4"><defs/><defs><style>.cls-2{fill:#370072}.cls-3{fill:#00b1ff}</style></defs><g id="Capa_2" data-name="Capa 2"><g id="Capa_1-2" data-name="Capa 1"><path fill="#eaeaea" stroke="#f2f2f2" stroke-miterlimit="10" d="M157 21.7h705v156.6A156.6 156.6 0 01705.6 335H157A156.6 156.6 0 01.5 178.3v0A156.6 156.6 0 01157.1 21.7z" transform="rotate(180 431.3 178.3)"/><path d="M268 105.8L249.7 159h-22.6l10-29.2H197L187 159h-22.7l18.3-53q3.7-11 11.8-16.3t22.1-5.2H249q14 0 18.4 5.2t.7 16.2zm-65 7h40a28 28 0 001.2-5 5.4 5.4 0 00-.7-3.6 5.5 5.5 0 00-3.2-2.2 22.5 22.5 0 00-6.3-.7h-14.4q-8 0-11.4 2.9t-5.3 8.6zM324 133l15.4 26h-25.2l-16-25.8h-13.7l-8.9 25.7H253l25.7-74.6h59q14 0 18.3 5.3t.6 16.2l-1.9 5.8q-3.6 10.4-10.7 15.7t-20 5.8zm.3-31.7h-28.9l-5 14.8h28.9a41 41 0 005.6-.3 11.2 11.2 0 003.9-1.2 7 7 0 002.5-2.2 15.9 15.9 0 001.7-3.6 16.4 16.4 0 001-4 2.5 2.5 0 00-.8-2.2 6.4 6.4 0 00-3.2-1 52.5 52.5 0 00-5.7-.3zM389.6 84.3l16 40 43.3-40h22.3L445.5 159H423l13.5-39.2-40.4 36.4h-3l-15.4-36.4-13.5 39.2h-22.6l25.7-74.6zM552.4 105.8L534 159h-22.6l10-29.2h-40.1l-10 29.2h-22.7l18.3-53q3.7-11 11.8-16.3t22.1-5.2h32.5q14 0 18.4 5.2t.6 16.2zm-65.1 7h40.1a27.1 27.1 0 001.2-5 5.4 5.4 0 00-.7-3.6 5.6 5.6 0 00-3.2-2.2 22.4 22.4 0 00-6.3-.7H504q-8 0-11.4 2.9t-5.3 8.6zM640.4 105.8l-10.8 31.7q-3.7 10.9-11.8 16.2t-22.2 5.2h-58.9l25.7-74.5h59q14 0 18.4 5.2t.6 16.2zm-34-4.5h-27.2l-14 40.7h27.2a27.7 27.7 0 006.8-.7 13.5 13.5 0 004.7-2.2 11.6 11.6 0 003.1-3.5 30.5 30.5 0 002.3-5l6.1-17.8a28 28 0 001.2-5 5.4 5.4 0 00-.7-3.6 5.5 5.5 0 00-3.2-2.2 22.5 22.5 0 00-6.3-.7zM728 107.5L717 139.2q-3.7 10.9-11.8 16.2t-22.1 5.2h-32.4q-14 0-18.4-5.2t-.7-16.2l10.8-31.7q3.8-10.9 11.9-16.2t22-5.2H709q14 0 18.4 5.2t.6 16.2zm-34-4.5h-14.4q-8 0-11.4 2.8t-5.3 8.7l-6.2 17.7a24.7 24.7 0 00-1.3 5 5.2 5.2 0 00.7 3.6 5.4 5.4 0 003.1 2.2 22.3 22.3 0 006.4.7H680a27.7 27.7 0 006.8-.7 13.3 13.3 0 004.6-2.1 11.2 11.2 0 003.2-3.6 29.3 29.3 0 002.2-5l6.2-17.8a27.4 27.4 0 001.2-5 5.4 5.4 0 00-.7-3.6 5.5 5.5 0 00-3.2-2.1 22.4 22.4 0 00-6.3-.8z" class="cls-2"/><path d="M266.6 229.8l-3.5 10.3q-5.7 16.6-18 24.6t-33.6 8h-49.1q-21.3 0-28-8t-1-24.6l16.5-48q5.6-16.6 18-24.6t33.5-8h49.2q21.3 0 28 8t1 24.6l-3.6 10.4h-34.4a34.5 34.5 0 002-7.7 7.5 7.5 0 00-1.1-5.3 9.2 9.2 0 00-5-3.2 34.2 34.2 0 00-9.6-1h-21.8q-12.1 0-17.4 4.3t-8 13l-9.3 27a38 38 0 00-2 7.7 8 8 0 001 5.4 8.4 8.4 0 004.8 3.2 34 34 0 009.7 1h21.8a42.3 42.3 0 0010.3-1 21.7 21.7 0 007-3.1 16.2 16.2 0 004.9-5.3 44.9 44.9 0 003.4-7.7zM314.7 202.8h60.9l15-43.3H425l-39 113.2h-34.4l15.2-44h-61l-15.1 44h-34.4l39-113.2h34.4zM427.1 272.7h-34.5l39-113.2h34.5zM496.3 247H572l-8.8 25.8h-89.4q-21.3 0-27.9-8t-1-24.6l27.7-80.7H507l-24.2 70.1a38 38 0 00-2 7.7 8 8 0 001 5.4 8.4 8.4 0 004.8 3.2 34 34 0 009.7 1.1zM629.4 247H705l-8.8 25.8H607q-21.3 0-27.9-8t-1-24.6l27.7-80.7h34.4l-24.2 70a38 38 0 00-1.9 7.8 8 8 0 001 5.4 8.4 8.4 0 004.8 3.2 34 34 0 009.6 1.1z" class="cls-3"/><circle cx="90.6" cy="67.5" r="67.5" class="cls-3"/><path fill="#fff" d="M54.6 79.3a22.2 22.2 0 012.1-4.5 20.7 20.7 0 013-3.5 27.5 27.5 0 013-2.6 15.7 15.7 0 012.9-1.6L106 50.6a4 4 0 001.9-1.5V49c.3-.9-.2-1.3-1.4-1.3h-41L70 34.8h51.6q5.5 0 8.2 2.8c1.7 1.8 2.4 4.4 2 7.7a2.5 2.5 0 00-.2.5l-.3 1a17 17 0 01-1.8 3.8A29.6 29.6 0 01127 54a21.3 21.3 0 01-3.2 3 15 15 0 01-3.3 2L78.5 76.3l-.8 2.1h42.7l-4.3 12.9H50.5z"/></g></g></svg>