<svg xmlns="http://www.w3.org/2000/svg" viewBox="0 0 863.8 330.3"><defs/><defs><style>.cls-3{stroke-miterlimit:10}.cls-2{fill:#370072}.cls-3{fill:#0f0;stroke:#230044;stroke-width:.5px}</style></defs><g id="Capa_2" data-name="Capa 2"><g id="Capa_1-2" data-name="Capa 1"><path fill="#eaeaea" stroke="#f2f2f2" stroke-miterlimit="10" d="M159 16.6h689.4a15 15 0 0115 15v141.6a156.6 156.6 0 01-156.7 156.6H159.1A156.6 156.6 0 012.5 173.2v0A156.6 156.6 0 01159 16.6z" transform="rotate(180 432.9 173.2)"/><path d="M230.3 83.4L208.8 146H182l11.8-34.4h-47.2L134.9 146h-26.7l21.5-62.6q4.4-12.9 14-19t26-6.3h38.2q16.5 0 21.6 6.2t.8 19.1zm-76.7 8.2H201a32.6 32.6 0 001.3-6 6.4 6.4 0 00-.7-4.1 6.6 6.6 0 00-3.8-2.5 26.6 26.6 0 00-7.4-.9h-17q-9.4 0-13.5 3.4t-6.2 10.1zM296.3 115.5l18.2 30.5h-29.7L266 115.7h-16.2L239.3 146h-26.6L243 58.1h69.4q16.5 0 21.6 6.2t.8 19.1l-2.3 6.8q-4.2 12.3-12.6 18.5t-23.6 6.8zm.3-37.4h-34l-5.8 17.4h33.9a50 50 0 006.6-.3 13.6 13.6 0 004.6-1.4 8.4 8.4 0 003-2.6 18.2 18.2 0 002-4.3 19.4 19.4 0 001.2-4.6 2.8 2.8 0 00-1-2.7 7.4 7.4 0 00-3.7-1.2 61.6 61.6 0 00-6.8-.3zM373.5 58.1l19 47.1 50.8-47h26.4L439.4 146h-26.7l16-46.2-47.6 42.9h-3.7l-18-42.9-15.9 46.2H317L347 58.2zM565.2 83.4L543.7 146h-26.6l11.8-34.4h-47.3L469.8 146h-26.7l21.5-62.6q4.4-12.9 14-19t26-6.3h38.2q16.5 0 21.7 6.2t.7 19.1zm-76.6 8.2h47.2a32.6 32.6 0 001.4-6 6.3 6.3 0 00-.8-4.1 6.5 6.5 0 00-3.7-2.5 26.6 26.6 0 00-7.5-.9h-17q-9.4 0-13.4 3.4t-6.2 10.1zM668.9 83.4l-12.7 37.3q-4.4 12.9-14 19t-26 6.3h-69.4l30.3-87.8h69.4q16.5 0 21.6 6.2t.8 19zm-40-5.3h-32.1L580.3 126h32.1a32.3 32.3 0 008-.8 15.9 15.9 0 005.5-2.5 13.4 13.4 0 003.7-4.2 34.8 34.8 0 002.7-6l7.3-20.9a31.8 31.8 0 001.3-6 6.4 6.4 0 00-.7-4.1 6.6 6.6 0 00-3.8-2.5 26.6 26.6 0 00-7.5-.9zM772 83.2l-12.7 37.3q-4.4 12.9-14 19t-26 6.3h-38.2q-16.5 0-21.6-6.2t-.8-19.1l12.7-37.3q4.4-12.8 14-19t26-6.3h38.1q16.5 0 21.7 6.3t.8 19zM732 78h-17q-9.4 0-13.5 3.4t-6.2 10.1l-7.3 21a30.1 30.1 0 00-1.5 6 6.2 6.2 0 00.8 4 6.5 6.5 0 003.7 2.6 26.5 26.5 0 007.5.8h17a32.8 32.8 0 008-.8 16 16 0 005.5-2.5 13.3 13.3 0 003.7-4.2 35.2 35.2 0 002.7-6l7.3-20.9a32.4 32.4 0 001.3-5.9 6.4 6.4 0 00-.7-4.2 6.6 6.6 0 00-3.8-2.5 26.5 26.5 0 00-7.5-.9z" class="cls-2"/><path d="M229.3 250.2l-1.6 4.7a73.3 73.3 0 01-8.3 16.8 41.5 41.5 0 01-11.7 11.5 49.6 49.6 0 01-16.4 6.6 102 102 0 01-22 2.1h-108a.7.7 0 01-.7-.9l46.1-133.7a.7.7 0 01.7-.4h108.5q25.1 0 32.3 8.7t.5 28.3l-1.7 4.6a41 41 0 01-8.4 14 88.8 88.8 0 01-12 11.3.7.7 0 00-.2 1 26.8 26.8 0 014.3 11 29.2 29.2 0 01-1.4 14.4zm-57.7-11h-51.7a.7.7 0 00-.7.5l-7.2 20.6a.7.7 0 00.6.9H164c4 0 7.4-.1 10-.4a24.8 24.8 0 006.8-1.4 10.7 10.7 0 004.5-3.1 17.6 17.6 0 002.9-5.4 18.6 18.6 0 001.4-6.2q0-3.5-4-4.5t-14-1zm17.7-51.6h-51.7a.7.7 0 00-.6.4l-6.8 19.6a.7.7 0 00.6.9h51.3c4 0 7.4 0 10-.2a22 22 0 006.8-1.3 10.4 10.4 0 004.3-3 17.5 17.5 0 002.8-5.2 24 24 0 001.6-6.3 3.4 3.4 0 00-1.8-3.4 14 14 0 00-5.8-1.3q-4-.2-10.7-.2zM407.6 195.8l-33 96.1h-41l18.1-52.8h-72.6l-18.2 52.8h-41l33.1-96.1q6.8-19.9 21.4-29.4t40-9.5h58.8q25.3 0 33.3 9.5t1.1 29.3zm-117.8 12.5h72.6a50 50 0 002.1-9 9.7 9.7 0 00-1.1-6.6c-1.1-1.7-3-3-5.9-3.8a40.3 40.3 0 00-11.4-1.3h-26q-14.5 0-20.8 5.1t-9.5 15.6zM545.7 267a60 60 0 01-17.8 18 43 43 0 01-23.9 7H381.3a.7.7 0 01-.6-1l10-29.4a.7.7 0 01.6-.4h97.6q4.6 0 5.5-3c.5-1.2.4-2.1-.2-2.7a17.1 17.1 0 00-1.6-1.2L423 215a16.3 16.3 0 01-8-12.2 34.9 34.9 0 012-17.4 10.5 10.5 0 011.6-3.7 59.8 59.8 0 0117.8-18 43 43 0 0124-6.9h122.3a.7.7 0 01.6.9L573.1 187a.7.7 0 01-.6.5h-97.2a7.7 7.7 0 00-4.6 1.4 4 4 0 00-1.4 1.6l-.2.3a5.2 5.2 0 001 2.3 5.8 5.8 0 001.3 1.4l69.9 39.3a15.8 15.8 0 014.3 4 18.3 18.3 0 013 6.2 26 26 0 01.8 8.5 36.8 36.8 0 01-2.3 10.7 12.9 12.9 0 01-1.4 3.7zM699.3 291.5a.7.7 0 01-.6.4H592.5q-25.4 0-33.3-9.5t-1.1-29.4l19.5-57.3q6.8-19.7 21.4-29.3t40-9.5h105.8a.7.7 0 01.6.9L735.2 187a.7.7 0 01-.6.5h-90q-14.4 0-20.6 5.1t-9.6 15.6l-.3 1.2 112.8-1a.7.7 0 01.6 1l-10 29.3a.7.7 0 01-.6.5H604.2a.7.7 0 00-.7.4l-.3.8a44.9 44.9 0 00-2.3 9.2 9.4 9.4 0 001.2 6.4c1 1.7 3 3 5.7 3.8a40 40 0 0011.5 1.3h89.4a.7.7 0 01.7.9z" class="cls-3"/><circle cx="58" cy="58" r="58" fill="#0f0"/><path fill="#fff" d="M84.2 67.4l-3.8 11H25.2l3.8-11h20.2L58.3 41H38.1L42 30h34.9L64 67.4z"/></g></g></svg>