<svg xmlns="http://www.w3.org/2000/svg" viewBox="0 0 863 361"><defs/><defs><style>.cls-2{fill:#370072}.cls-3{fill:#0f0}</style></defs><g id="Capa_2" data-name="Capa 2"><g id="Capa_1-2" data-name="Capa 1"><path fill="#eaeaea" stroke="#f2f2f2" stroke-miterlimit="10" d="M157 48h705v156a157 157 0 01-157 157H157A157 157 0 011 204v0A157 157 0 01157 48z" transform="rotate(-180 431 204)"/><path d="M267 124l-19 53h-22l10-29h-40l-10 29h-23l18-53q4-11 12-16t22-5h33q14 0 18 5t1 16zm-65 7h40a28 28 0 001-5 5 5 0 00-1-3 6 6 0 00-3-3 22 22 0 00-6 0h-15q-8 0-11 3t-5 8zM323 151l15 26h-25l-16-25h-14l-9 25h-22l25-74h59q14 0 19 5t0 16l-2 6q-3 10-10 16t-20 5zm0-31h-29l-5 14h29a41 41 0 006 0 11 11 0 004-1 7 7 0 002-2 15 15 0 002-4 16 16 0 001-4 2 2 0 00-1-2 6 6 0 00-3-1 52 52 0 00-6 0zM388 103l16 40 44-40h22l-26 74h-22l13-39-40 37h-3l-16-37-13 39h-23l26-74zM551 124l-18 53h-23l10-29h-40l-10 29h-23l19-53q3-11 12-16t22-5h32q14 0 18 5t1 16zm-65 7h40a27 27 0 001-5 5 5 0 000-3 6 6 0 00-4-3 22 22 0 00-6 0h-14q-8 0-12 3t-5 8zM639 124l-11 32q-3 11-12 16t-22 5h-59l26-74h59q14 0 18 5t1 16zm-34-4h-27l-14 40h27a28 28 0 007 0 13 13 0 005-2 11 11 0 003-4 31 31 0 002-5l6-18a28 28 0 001-5 5 5 0 000-3 6 6 0 00-4-3 22 22 0 00-6 0zM727 126l-11 32q-4 10-12 16t-22 5h-33q-14 0-18-5t-1-16l11-32q4-11 12-16t22-6h33q14 0 18 6t1 16zm-34-5h-15q-8 0-11 3a18 18 0 00-5 9l-7 18a25 25 0 00-1 5 5 5 0 001 3 5 5 0 003 2 22 22 0 006 1h15a27 27 0 006-1 13 13 0 005-2 11 11 0 003-3 29 29 0 003-5l6-18a27 27 0 001-5 5 5 0 00-1-4 6 6 0 00-3-2 22 22 0 00-6-1z" class="cls-2"/><path d="M268 259l-1 4a63 63 0 01-7 14 36 36 0 01-11 10 42 42 0 01-14 5 88 88 0 01-18 2h-93l39-115a1 1 0 011 0h92q22 0 28 7t1 24l-2 4a35 35 0 01-7 12 76 76 0 01-10 10 1 1 0 000 1 23 23 0 013 9 25 25 0 01-1 13zm-49-10h-45a1 1 0 000 1l-6 17a1 1 0 000 1h53a21 21 0 005-2 9 9 0 004-2 15 15 0 003-5 16 16 0 001-5q0-3-3-4t-12-1zm15-44h-44a1 1 0 00-1 0l-6 17a1 1 0 001 1h52a19 19 0 006-1 9 9 0 004-3 15 15 0 002-4 21 21 0 001-6 3 3 0 00-1-3 12 12 0 00-5-1h-9zM421 212l-29 82h-35l16-45h-62l-16 45h-35l28-82q6-17 19-25t34-8h50q22 0 29 8t1 25zm-101 11h62a44 44 0 002-8 8 8 0 00-1-6 9 9 0 00-5-3 35 35 0 00-10-1h-22q-13 0-18 4t-8 14zM539 273a51 51 0 01-15 15 37 37 0 01-21 6H398l8-26a1 1 0 011 0h83c3 0 4-1 5-3v-2a13 13 0 00-2-1l-59-33a14 14 0 01-7-11 30 30 0 012-15 9 9 0 011-3 51 51 0 0115-15 37 37 0 0121-6h104a1 1 0 011 0l-9 26h-84a7 7 0 00-3 1 3 3 0 00-2 2 4 4 0 001 2 5 5 0 001 1l60 34a14 14 0 014 3 16 16 0 012 5 23 23 0 011 8 32 32 0 01-2 9 11 11 0 01-1 3zM670 294h-91q-22 0-29-8t-1-25l17-49q6-17 18-25t35-8h90a1 1 0 011 0l-9 26a1 1 0 01-1 0h-77q-12 0-17 4t-8 14l-1 1 97-1a1 1 0 010 1l-8 25a1 1 0 01-1 0h-96a1 1 0 00-1 1 39 39 0 00-2 8 8 8 0 001 6 9 9 0 005 3 35 35 0 0010 1h76a1 1 0 011 1z" class="cls-3"/><circle cx="89.5" cy="67.5" r="67.5" class="cls-3"/><path fill="#fff" d="M120 78l-4 13H51l5-13h23l11-30H66l5-13h41L96 78z"/></g></g></svg>