<svg xmlns="http://www.w3.org/2000/svg" viewBox="0 0 886.8 346.3"><defs/><defs><style>.cls-2{fill:#fff}.cls-3{fill:#0d0;stroke-miterlimit:10;stroke:#230044;stroke-width:.5px}</style></defs><g id="Capa_2" data-name="Capa 2"><g id="Capa_1-2" data-name="Capa 1"><path fill="#420082" d="M182.6 33.1h689.3a15 15 0 0115 14.9v141.7a156.6 156.6 0 01-156.7 156.6H182.6A156.6 156.6 0 0126 189.7 156.6 156.6 0 01182.6 33z" transform="rotate(-180 456.4 189.7)"/><path d="M305.1 97.4l-20.5 59.8H259l11.3-32.9H225l-11.3 33h-25.5l20.6-60q4.2-12.2 13.3-18.2t25-6h36.5q15.8 0 20.7 6t.8 18.3zm-73.3 7.8H277a31.1 31.1 0 001.3-5.6 6 6 0 00-.7-4.1 6.2 6.2 0 00-3.6-2.4 25.3 25.3 0 00-7.1-.8h-16.2q-9 0-13 3.2t-5.9 9.7zM368.3 128.1l17.4 29.2h-28.4l-18-29h-15.5l-10 29h-25.5l29-84.1h66.4q15.8 0 20.7 6t.7 18.2l-2.1 6.5q-4 11.7-12.1 17.7t-22.6 6.5zm.3-35.8h-32.5l-5.6 16.7H363a47.8 47.8 0 006.4-.4 12.6 12.6 0 004.3-1.3 7.9 7.9 0 002.8-2.5 17.4 17.4 0 002-4 18.7 18.7 0 001.2-4.4 2.8 2.8 0 00-1-2.6 7 7 0 00-3.5-1.1 59 59 0 00-6.6-.4zM442.2 73.2l18.1 45 48.7-45h25.2l-29 84h-25.4L495 113l-45.5 41H446l-17.3-41-15.2 44.2H388l29-84zM625.8 97.4l-20.6 59.8h-25.5l11.3-32.9h-45.2l-11.3 33H509l20.6-60q4.2-12.2 13.3-18.2t25-6h36.4q15.8 0 20.8 6t.7 18.3zm-73.3 7.8h45.2a30.8 30.8 0 001.3-5.6 6 6 0 00-.7-4 6.2 6.2 0 00-3.7-2.4 25.2 25.2 0 00-7-.8h-16.3q-9 0-12.9 3.2t-6 9.6zM725 97.4L712.8 133q-4.2 12.3-13.3 18.3t-25 5.9h-66.3l29-84h66.3q15.8 0 20.7 6t.8 18.2zm-38.3-5H656L640.2 138h30.7a31.2 31.2 0 007.6-.8 15.2 15.2 0 005.3-2.4 12.8 12.8 0 003.6-4 34 34 0 002.5-5.7l7-20a31 31 0 001.3-5.6 6 6 0 00-.7-4 6.2 6.2 0 00-3.7-2.4 25.3 25.3 0 00-7.1-.9zM823.6 97.2l-12.2 35.6q-4.2 12.4-13.3 18.3t-25 5.9h-36.5q-15.7 0-20.7-6t-.7-18.2l12.2-35.6q4.2-12.3 13.3-18.3t25-5.9H802q15.8 0 20.7 6t.8 18.2zm-38.3-5h-16.2q-9 0-12.9 3.1t-6 9.7l-6.9 20a27.5 27.5 0 00-1.4 5.7 5.8 5.8 0 00.7 4 6.2 6.2 0 003.5 2.4 25 25 0 007.2.8h16.2a31.2 31.2 0 007.6-.8 15 15 0 005.3-2.4 12.8 12.8 0 003.6-4 34.4 34.4 0 002.5-5.7l7-20a31.3 31.3 0 001.3-5.7 6 6 0 00-.7-4 6.2 6.2 0 00-3.6-2.4 25.2 25.2 0 00-7.2-.8z" class="cls-2"/><path d="M256.5 266.4l-1.7 4.8a76.8 76.8 0 01-8.6 17.5 43.4 43.4 0 01-12.2 12 51.8 51.8 0 01-17.1 6.9 106.8 106.8 0 01-22.9 2.2H81.5a.7.7 0 01-.7-1l48-139.2a.7.7 0 01.7-.5h113q26.2 0 33.7 9.1t.5 29.5l-1.7 4.8a42.5 42.5 0 01-8.8 14.6 92.4 92.4 0 01-12.5 11.7.7.7 0 00-.2 1 27.9 27.9 0 014.5 11.5 30.3 30.3 0 01-1.5 15zM196.4 255h-53.8a.7.7 0 00-.7.5l-7.5 21.4a.7.7 0 00.7.9h53.3q6.3 0 10.5-.4a25.3 25.3 0 007-1.4 11.2 11.2 0 004.6-3.3 18.2 18.2 0 003-5.6 19.3 19.3 0 001.5-6.5q0-3.6-4.1-4.6t-14.5-1zm18.4-53.8H161a.7.7 0 00-.7.5l-7 20.4a.7.7 0 00.7.9h53.3q6.3 0 10.6-.2a23 23 0 007-1.4 10.6 10.6 0 004.5-3.1 18.2 18.2 0 002.9-5.5 24.7 24.7 0 001.5-6.5 3.5 3.5 0 00-1.8-3.6 14.8 14.8 0 00-6-1.3c-2.8-.2-6.5-.2-11.2-.2zM442.1 209.6l-34.4 100.2H365l19-55h-75.7l-19 55h-42.6l34.4-100.2q7-20.6 22.3-30.5t41.7-10h61.1q26.5 0 34.7 10t1.2 30.5zm-122.7 13.1h75.7a51.5 51.5 0 002.2-9.4 10.1 10.1 0 00-1.2-6.8c-1.2-1.8-3.2-3.1-6.1-4a42.5 42.5 0 00-11.9-1.3H351q-15 0-21.6 5.3t-10 16.2zM585.9 283.8a62.5 62.5 0 01-18.6 18.8 44.7 44.7 0 01-24.8 7.2H414.7a.7.7 0 01-.6-1l10.4-30.6a.7.7 0 01.7-.4h101.5q4.9 0 5.8-3.2c.5-1.3.5-2.2-.2-2.8a15.7 15.7 0 00-1.7-1.3L458 229.8a17 17 0 01-8.4-12.8 36.3 36.3 0 012.1-18 11.1 11.1 0 011.7-3.9 62.3 62.3 0 0118.6-18.8 44.7 44.7 0 0124.8-7.1h127.5a.7.7 0 01.7 1l-10.7 30.5a.7.7 0 01-.6.5H512.5a8 8 0 00-4.7 1.4 4 4 0 00-1.4 1.7l-.3.3a5.4 5.4 0 001 2.4 6 6 0 001.5 1.5l72.7 41a16.6 16.6 0 014.5 4 19.2 19.2 0 013.1 6.5 27.4 27.4 0 01.9 8.8 38.8 38.8 0 01-2.5 11.2 13.7 13.7 0 01-1.4 3.8zM745.9 309.3a.7.7 0 01-.7.5H634.6q-26.4 0-34.6-10t-1.2-30.5l20.3-59.7q7-20.5 22.3-30.5t41.7-10h110a.7.7 0 01.8 1l-10.7 30.6a.7.7 0 01-.7.5H689q-15 0-21.6 5.3t-10 16.2l-.3 1.3 117.5-1a.7.7 0 01.6 1l-10.4 30.5a.7.7 0 01-.7.5H646.7a.7.7 0 00-.6.4l-.3.8a47.4 47.4 0 00-2.4 9.6 9.8 9.8 0 001.2 6.6c1.1 1.8 3 3.2 6 4a41.9 41.9 0 0012 1.4h93a.7.7 0 01.7.9z" class="cls-3"/><circle cx="100.5" cy="100.5" r="96" fill="#0d0" stroke="#420082" stroke-miterlimit="10" stroke-width="9"/><path d="M151.1 121l-7.1 20.9H39.5l7.1-20.9h38.3l17.3-50H63.9l7.3-21h66.2l-24.6 71z" class="cls-2"/></g></g></svg>