<svg xmlns="http://www.w3.org/2000/svg" viewBox="0 0 862.6 314.2"><defs/><defs><style>.cls-3{stroke-miterlimit:10}.cls-2{fill:#370072}.cls-3{fill:#00b1ff;stroke:#230044;stroke-width:.5px}</style></defs><g id="Capa_2" data-name="Capa 2"><g id="Capa_1-2" data-name="Capa 1"><path fill="#eaeaea" stroke="#f2f2f2" stroke-miterlimit="10" d="M157 .5h692.4A12.7 12.7 0 01862 13.2v143.9a156.6 156.6 0 01-156.6 156.6H157A156.6 156.6 0 01.5 157v0A156.6 156.6 0 01157.1.5z" transform="rotate(180 431.3 157.1)"/><path d="M240 67.5l-21.5 62.6h-26.7l11.8-34.4h-47.3l-11.8 34.4h-26.7l21.5-62.6q4.4-12.9 14-19t26-6.3h38.2q16.6 0 21.7 6.2t.8 19.1zm-76.7 8.2h47.3a33 33 0 001.4-5.9 6.3 6.3 0 00-.8-4.2 6.6 6.6 0 00-3.8-2.5 26.6 26.6 0 00-7.4-.9h-17q-9.4 0-13.5 3.4t-6.2 10.1zM306 99.7l18.2 30.4h-29.7l-18.8-30.3h-16.2l-10.4 30.3h-26.7l30.3-87.9H322q16.5 0 21.7 6.2t.7 19.1l-2.2 6.9q-4.3 12.2-12.7 18.4T306 99.7zm.3-37.5h-34l-5.8 17.5h34a50 50 0 006.6-.4 13.3 13.3 0 004.5-1.4 8.3 8.3 0 003-2.6 18.4 18.4 0 002-4.3 19.2 19.2 0 001.3-4.6 2.9 2.9 0 00-1-2.7 7.4 7.4 0 00-3.8-1.2 61.6 61.6 0 00-6.8-.3zM383.3 42.2l19 47.2 50.9-47.2h26.4l-30.4 88h-26.6l15.9-46.3-47.6 42.9h-3.6l-18-42.9-16 46.2h-26.7L357 42.2zM575.2 67.5l-21.6 62.6H527l11.8-34.4h-47.3l-11.8 34.4H453l21.5-62.6q4.4-12.9 14-19t26-6.3h38.2q16.5 0 21.7 6.2t.8 19.1zm-76.7 8.2h47.3a33 33 0 001.3-5.9 6.3 6.3 0 00-.7-4.2 6.5 6.5 0 00-3.8-2.5 26.6 26.6 0 00-7.4-.9h-17q-9.4 0-13.5 3.4t-6.2 10.1zM679 67.5l-12.8 37.3q-4.4 13-14 19.1t-26 6.2h-69.5l30.4-87.9h69.4q16.5 0 21.7 6.2t.7 19.1zm-40-5.3h-32.2l-16.5 48h32a32.3 32.3 0 008-1 15.9 15.9 0 005.6-2.4 13.4 13.4 0 003.7-4.2 35.3 35.3 0 002.7-6l7.3-20.9a33 33 0 001.3-5.9 6.3 6.3 0 00-.7-4.2 6.5 6.5 0 00-3.8-2.5 26.5 26.5 0 00-7.5-.9zM782 69.5l-12.6 37.3q-4.4 13-14 19.1t-26.1 6.2h-38.1q-16.6 0-21.7-6.2t-.8-19l12.8-37.4q4.4-12.8 13.9-19t26-6.3h38.3q16.5 0 21.6 6.3t.8 19zm-40-5.3h-17q-9.3 0-13.4 3.4t-6.2 10.1l-7.3 21a29.3 29.3 0 00-1.5 6 6.1 6.1 0 00.8 4.1 6.4 6.4 0 003.7 2.5 26 26 0 007.5.8h17a32.5 32.5 0 008-.8 15.9 15.9 0 005.5-2.5 13.4 13.4 0 003.7-4.2 35.2 35.2 0 002.7-6l7.2-20.9a33 33 0 001.4-5.9 6.4 6.4 0 00-.8-4.2 6.6 6.6 0 00-3.8-2.5 26.5 26.5 0 00-7.4-.9z" class="cls-2"/><path d="M231.7 222.5l-4 11.8q-6.5 18.8-20.4 27.8t-38 9h-55.7q-24.1 0-31.6-9t-1.1-27.8l18.5-54.4Q106 161 119.8 152t38-9h55.7q24 0 31.6 9t1.1 27.9l-4 11.7h-38.8a39.4 39.4 0 002.2-8.6 8.4 8.4 0 00-1.3-6.1 10.3 10.3 0 00-5.6-3.6 43 43 0 00-11.2-1l-24.4-.2q-13.7 0-19.7 4.9t-9 14.8l-10.7 30.5a43.5 43.5 0 00-2.2 8.7 9 9 0 001.2 6.1 9.4 9.4 0 005.4 3.6A37.8 37.8 0 00139 242h24.8a47 47 0 0011.6-1.2 24.7 24.7 0 008-3.6 18.5 18.5 0 005.5-6 52 52 0 003.8-8.7zM286.1 192h69l17-49H411l-44.2 128.2h-39l17.3-50h-69l-17.2 50H220L264.2 143h39zM413.5 271.2h-39.1L418.6 143h39.1zM491.8 242h85.8l-10 29.2H466.4q-24.1 0-31.6-9t-1.1-28L465 143H504l-27.4 79.4a42.8 42.8 0 00-2.2 8.7 9 9 0 001 6 9.4 9.4 0 005.5 3.7 38 38 0 0011 1.2zM642.6 242h85.8l-10 29.2H617q-24 0-31.6-9t-1-28l31.3-91.2h39l-27.5 79.4a42.8 42.8 0 00-2.2 8.7 9 9 0 001.1 6 9.5 9.5 0 005.4 3.7 37.9 37.9 0 0011 1.2z" class="cls-3"/><circle cx="57.1" cy="59.8" r="57" fill="#00b1ff"/><path fill="#fff" d="M26.7 69.7a18.4 18.4 0 011.8-3.7 17.1 17.1 0 012.4-3 22.2 22.2 0 012.6-2.2 13.5 13.5 0 012.5-1.4l34.1-13.9a3.3 3.3 0 001.6-1.3V44c.3-.7-.1-1-1.2-1H36l3.8-11h43.5q4.7 0 6.9 2.4c1.5 1.5 2 3.7 1.7 6.5a2 2 0 00-.2.4l-.2.9a14.2 14.2 0 01-1.5 3.2 24.4 24.4 0 01-2.2 3A17.7 17.7 0 0185 51a12.4 12.4 0 01-2.8 1.7L46.9 67.2l-.7 1.8h36l-3.6 10.8H23.2z"/></g></g></svg>