<svg xmlns="http://www.w3.org/2000/svg" viewBox="0 0 886.8 346.3"><defs/><defs><style>.cls-2{fill:#fff}.cls-3{fill:#00b1ff;stroke-miterlimit:10;stroke:#230044;stroke-width:.5px}</style></defs><g id="Capa_2" data-name="Capa 2"><g id="Capa_1-2" data-name="Capa 1"><path fill="#420082" d="M182.6 33.1h689.3a15 15 0 0115 14.9v141.7a156.6 156.6 0 01-156.7 156.6H182.6A156.6 156.6 0 0126 189.7 156.6 156.6 0 01182.6 33z" transform="rotate(-180 456.4 189.7)"/><path d="M305.1 97.4l-20.5 59.8H259l11.3-32.9H225l-11.3 33h-25.5l20.6-60q4.2-12.2 13.3-18.2t25-6h36.5q15.8 0 20.7 6t.8 18.3zm-73.3 7.8H277a31.1 31.1 0 001.3-5.6 6 6 0 00-.7-4.1 6.2 6.2 0 00-3.6-2.4 25.3 25.3 0 00-7.1-.8h-16.2q-9 0-13 3.2t-5.9 9.7zM368.3 128.1l17.4 29.2h-28.4l-18-29h-15.5l-10 29h-25.5l29-84.1h66.4q15.8 0 20.7 6t.7 18.2l-2.1 6.5q-4 11.7-12.1 17.7t-22.6 6.5zm.3-35.8h-32.5l-5.6 16.7H363a47.8 47.8 0 006.4-.4 12.6 12.6 0 004.3-1.3 7.9 7.9 0 002.8-2.5 17.4 17.4 0 002-4 18.7 18.7 0 001.2-4.4 2.8 2.8 0 00-1-2.6 7 7 0 00-3.5-1.1 59 59 0 00-6.6-.4zM442.2 73.2l18.1 45 48.7-45h25.2l-29 84h-25.4L495 113l-45.5 41H446l-17.3-41-15.2 44.2H388l29-84zM625.8 97.4l-20.6 59.8h-25.5l11.3-32.9h-45.2l-11.3 33H509l20.6-60q4.2-12.2 13.3-18.2t25-6h36.4q15.8 0 20.8 6t.7 18.3zm-73.3 7.8h45.2a30.8 30.8 0 001.3-5.6 6 6 0 00-.7-4 6.2 6.2 0 00-3.7-2.4 25.2 25.2 0 00-7-.8h-16.3q-9 0-12.9 3.2t-6 9.6zM725 97.4L712.8 133q-4.2 12.3-13.3 18.3t-25 5.9h-66.3l29-84h66.3q15.8 0 20.7 6t.8 18.2zm-38.3-5H656L640.2 138h30.7a31.2 31.2 0 007.6-.8 15.2 15.2 0 005.3-2.4 12.8 12.8 0 003.6-4 34 34 0 002.5-5.7l7-20a31 31 0 001.3-5.6 6 6 0 00-.7-4 6.2 6.2 0 00-3.7-2.4 25.3 25.3 0 00-7.1-.9zM823.6 97.2l-12.2 35.6q-4.2 12.4-13.3 18.3t-25 5.9h-36.5q-15.7 0-20.7-6t-.7-18.2l12.2-35.6q4.2-12.3 13.3-18.3t25-5.9H802q15.8 0 20.7 6t.8 18.2zm-38.3-5h-16.2q-9 0-12.9 3.1t-6 9.7l-6.9 20a27.5 27.5 0 00-1.4 5.7 5.8 5.8 0 00.7 4 6.2 6.2 0 003.5 2.4 25 25 0 007.2.8h16.2a31.2 31.2 0 007.6-.8 15 15 0 005.3-2.4 12.8 12.8 0 003.6-4 34.4 34.4 0 002.5-5.7l7-20a31.3 31.3 0 001.3-5.7 6 6 0 00-.7-4 6.2 6.2 0 00-3.6-2.4 25.2 25.2 0 00-7.2-.8z" class="cls-2"/><path d="M234.9 261.6l-4.6 13.4q-7.3 21.5-23.2 31.8t-43.4 10.4h-63.6q-27.5 0-36.1-10.4T62.7 275L84 212.9q7.3-21.5 23.2-31.8t43.5-10.4h63.6q27.5 0 36.1 10.4t1.3 31.8l-4.6 13.4h-44.4a44.5 44.5 0 002.5-9.9 9.7 9.7 0 00-1.4-7c-1.2-1.7-3.4-3-6.4-4s-7.6-1-12.8-1l-27.9-.3q-15.6 0-22.4 5.6t-10.4 16.9l-12.1 34.8a49.5 49.5 0 00-2.5 10 10.3 10.3 0 001.2 7c1.2 1.8 3.3 3.2 6.2 4.1s7.1 1.4 12.5 1.4h28.3a54.6 54.6 0 0013.2-1.4 28.4 28.4 0 009.3-4 21 21 0 006.1-6.8 59 59 0 004.5-10zM297 226.8h78.8l19.5-56h44.4l-50.5 146.4h-44.4l19.7-57.1h-78.8l-19.7 57h-44.4L272 170.8h44.4zM442.6 317.2h-44.7l50.5-146.5H493zM532 283.8h98l-11.4 33.4H503q-27.5 0-36.1-10.4t-1.3-31.8l35.9-104.3h44.4l-31.3 90.7a49.5 49.5 0 00-2.5 10 10.3 10.3 0 001.2 6.9c1.2 1.9 3.3 3.2 6.2 4.2s7.1 1.3 12.5 1.3zM704.1 283.8h98l-11.3 33.4H675q-27.5 0-36.1-10.4t-1.3-31.8l35.9-104.3H718l-31.3 90.7a49.5 49.5 0 00-2.5 10 10.3 10.3 0 001.2 6.9c1.2 1.9 3.3 3.2 6.2 4.2s7.1 1.3 12.5 1.3z" class="cls-3"/><circle cx="100.5" cy="100.5" r="96" fill="#00b1ff" stroke="#420082" stroke-miterlimit="10" stroke-width="9"/><path d="M48.4 115.7a30.8 30.8 0 013-6.3 27.7 27.7 0 014.1-5 37 37 0 014.3-3.7 22.7 22.7 0 014-2.3L121 75.2a5.5 5.5 0 002.6-2.2l.2-.1c.3-1.2-.4-1.8-2.1-1.8H63.9L70.2 53h72.7q7.9 0 11.6 3.9t2.8 10.8a4.4 4.4 0 00-.2.7l-.4 1.5a23.9 23.9 0 01-2.5 5.3 39.7 39.7 0 01-3.7 5 30.3 30.3 0 01-4.5 4.3 20.8 20.8 0 01-4.7 2.8L82 111.5l-1 3h60.2l-6.2 18H42.6z" class="cls-2"/></g></g></svg>