<svg xmlns="http://www.w3.org/2000/svg" viewBox="0 0 855 378"><defs/><defs><style>.cls-2{fill:#370072}.cls-3{fill:#ff4800}</style></defs><g id="Capa_2" data-name="Capa 2"><g id="Capa_1-2" data-name="Capa 1"><path fill="#eaeaea" stroke="#f2f2f2" stroke-miterlimit="10" d="M156 67h699v155a155 155 0 01-155 156H156A155 155 0 011 222v0A155 155 0 01156 67z" transform="rotate(-180 428 222)"/><path d="M272 143l-18 53h-23l10-29h-40l-10 29h-22l18-53q4-10 12-16t22-5h32q14 0 18 5t1 16zm-65 7h40a28 28 0 001-5 5 5 0 00-1-3 5 5 0 00-3-2 22 22 0 00-6-1h-14q-8 0-12 3a17 17 0 00-5 8zM327 170l16 26h-25l-16-25h-14l-9 25h-22l25-74h59q14 0 18 5t1 16l-2 6q-4 10-11 16t-20 5zm0-31h-28l-5 15h28a42 42 0 006-1 11 11 0 004-1 7 7 0 002-2 16 16 0 002-4 17 17 0 001-4 2 2 0 00-1-2 6 6 0 00-3-1 51 51 0 00-6 0zM392 122l16 40 43-40h22l-25 74h-23l14-39-40 36h-3l-16-36-13 39h-22l25-74zM554 143l-18 53h-23l10-29h-40l-10 29h-22l18-53q4-10 12-16t22-5h32q14 0 18 5t1 16zm-65 7h40a28 28 0 001-5 5 5 0 00-1-3 5 5 0 00-3-2 22 22 0 00-6-1h-14q-8 0-12 3a17 17 0 00-5 8zM641 143l-11 32q-3 11-12 16t-21 5h-59l26-74h58q14 0 18 5t1 16zm-34-4h-27l-14 40h27a27 27 0 007 0 13 13 0 005-3 11 11 0 003-3 30 30 0 002-5l6-18a28 28 0 001-5 5 5 0 000-3 5 5 0 00-3-2 23 23 0 00-7-1zM728 145l-11 31q-4 11-12 17t-22 5h-32q-14 0-18-5t-1-17l11-31q4-11 12-16t22-5h32q14 0 18 5t1 16zm-34-4h-14q-8 0-12 2a17 17 0 00-5 9l-6 18a24 24 0 00-1 5 5 5 0 000 3 5 5 0 004 2 22 22 0 006 1h14a27 27 0 007-1 14 14 0 005-2 11 11 0 003-3 29 29 0 002-5l6-18a27 27 0 001-5 5 5 0 000-4 5 5 0 00-4-2 22 22 0 00-6 0z" class="cls-2"/><path d="M316 199l-45 128h-34l-48-74-26 74h-39l45-128h34l48 73 26-74zM316 327h-40l45-128h39zM486 278l-4 12q-6 19-20 28t-38 9h-56q-24 0-32-9t-1-28l19-54q6-19 20-28t38-9h56q24 0 32 9t1 28l-4 11h-39a39 39 0 002-8 8 8 0 00-1-6 10 10 0 00-6-4 39 39 0 00-11-1h-24q-14 0-20 5t-9 14l-11 31a43 43 0 00-2 9 9 9 0 001 6 9 9 0 005 3 38 38 0 0011 2h25a48 48 0 0012-2 25 25 0 008-3 18 18 0 005-6 51 51 0 004-9zM621 327H520q-24 0-32-9t-1-28l19-54q6-19 20-28t38-9h102l-11 29h-86q-13 0-19 5t-9 14l-1 1h109l-10 29H531l-1 1a43 43 0 00-2 9 9 9 0 001 6 9 9 0 005 4 38 38 0 0011 1h86zM665 327h-39l10-29h39zm15-44h-39l29-84h39z" class="cls-3"/><circle cx="90.2" cy="66.9" r="66.9" class="cls-3"/><path fill="#fff" d="M55 78h37a21 21 0 005-1 10 10 0 004-1 9 9 0 002-3 23 23 0 002-4H58l4-13h47a20 20 0 001-4 4 4 0 000-3 4 4 0 00-3-1 17 17 0 00-4-1H65l5-12h44q10 0 14 4t0 12l-8 23q-3 9-9 13t-16 4H50z"/></g></g></svg>